<svg xmlns="http://www.w3.org/2000/svg" id="Layer_1" data-name="Layer 1" viewBox="0 0 1527.69 1669.41"><defs><style>.cls-1{fill:#619d32}.cls-1,.cls-100,.cls-103,.cls-11,.cls-14,.cls-17,.cls-23,.cls-29,.cls-30,.cls-34,.cls-48,.cls-49,.cls-50,.cls-55,.cls-6,.cls-67,.cls-75,.cls-82,.cls-83,.cls-89,.cls-90,.cls-94,.cls-99{strokeWidth:0}.cls-6{fill:#5f6f37}.cls-11{fill:#79a853}.cls-14{fill:#796c4d}.cls-17{fill:#524832}.cls-23{fill:#4e442f}.cls-29{fill:#514e49}.cls-30{fill:#486724}.cls-34{fill:#5a8d2e}.cls-48{fill:#9b856d}.cls-49{fill:#3b2912}.cls-50{fill:#584d36}.cls-55{fill:#211912}.cls-67{fill:#b59c67}.cls-75{fill:#7e7050}.cls-82{fill:#8b7e61}.cls-83{fill:#877a5c}.cls-89{fill:#7fa85c}.cls-90{fill:#746748}.cls-94{fill:#739c4f}.cls-99{fill:#e7d8c7}.cls-100{fill:#f4f6f2}.cls-103{fill:#66a03a}</style></defs><path d="M835.82 0c-2.54 1.64-5.58.79-8.29 1.65-1 .32-1.39-.74-1.54-1.65z" style="strokeWidth:0;fill:#cdcac4"/><path d="M537.15 1471.22c-2.2 0-4.4.1-6.59-.05-4.28-.3-8.36.03-11.92 2.76-.69-2.59-2.79-1.5-4.31-1.51-4.47-.02-9 .39-12.25-3.67-.5-.43-.92-.92-1.26-1.48-3.06-5.74-7.46-10.56-10.95-16-9.72-11.85-19.75-23.4-30.85-33.99-3.78-4.26-8.21-7.79-12.64-11.31q-.54-.33-1.02-.72c-16.62-14.52-34.78-26.79-54.18-37.26-20.5-10.56-38.93-24.74-59.93-34.42-1.83-.84-4.01-1.4-4.84-3.65-11.14-5.47-23.56-8.56-34-14.84-12.35-7.43-24.72-15.92-32.09-29.28-1.66-3.02-3.82-4.79-7.41-4.28 1.19-1.55 1.83-2.74.46-4.94-4.15-6.66-7.27-13.88-10.16-21.19-.79-1.99-1.23-3.94-.84-6.06 1.25-12.42.66-24.95 2.45-37.33 1.33-8.29.75-16.63.27-24.9-.71-12.16-2.03-24.3-5.82-35.99-.43-6.43-2.26-12.56-4.35-18.58-5.36-15.44-11.01-30.77-19.35-44.93-1.18-2-2.62-4.02-2.35-6.6 1.43-2.46 3.9-1.87 6.01-1.82 23.11.59 45.62-3.29 67.87-9.07 20.22-5.26 39.44-13.3 58.61-21.44 6.58-2.79 13.3-5.23 20.05-7.51 6.2-2.1 11.62-5.34 16.49-9.54 5.97-5.16 11.45-10.84 16.75-16.68 6.3-6.93 5.87-15.94 7.4-24.34.18-1.02.04-2.08.16-3.12.04-.5.14-.98.27-1.46 1.16-9.1 1.91-18.19.12-27.32-1-5.09-1.45-10.26-.09-15.39.49-1.83.73-3.86 3-4.53 1.91.3 2.54 1.91 3.3 3.33 9.7 18.29 19.05 36.74 24.81 56.77 3.61 12.53 6.31 25.12 3.94 38.27-.75 4.15-2.32 7.99-3.75 11.9-1.08 2.97-1.94 5.98-.61 9.12.7 1.66 1.4 3.49 3.48 3.67 2.14.18 3.11-1.55 3.88-3.17 1.97-4.19 3.48-8.55 4.44-13.08 3.12-14.69 2.21-29.3-.95-43.85-3.98-18.32-11.09-35.46-19.38-52.2-3.29-6.64-7.4-12.92-9.38-20.17.62-2.15 2.17-1.59 3.61-1.19 3.16.87 5.35 2.96 7.36 5.49 8.71 10.98 15.58 23.27 24.27 34.25 9.95 12.57 21.97 22.53 37.23 28.1 6.07 2.21 12.22 2.22 18.44.46 17.21-4.87 33.89-11.28 50.75-17.17 23.24-8.12 45.12-19.41 67.61-29.25 5.88-2.57 11.33-6.54 16.65-10.27 4.32-3.03 6.58-8.07 7.49-13.33.79-4.55 1.61-9.09 2.61-13.6 3.33-14.86 2.8-29.53-1.67-44.11-3.88-12.67-7.43-25.44-11.33-38.11-1.14-3.71-3.17-7.07-3.96-10.88 2.37-7.19 7.45-12.46 12.54-17.73 1.96-1.34 3.85-3.26 5.51.47 7.21 16.24 14.22 32.56 20.89 49.04-1.04 9.65-3.6 19.01-5.64 28.45-3.83 17.82-5.72 35.87-7.37 53.97-.73 8.01-1.26 16.05-2.61 23.98-2.19 12.82-1.98 25.81-3.08 38.7-.4 4.68-.64 9.5-.45 14.23.88 21.71-2.71 43.07-4.93 64.53-1.58 15.25-3.31 30.49-4.95 45.74-.21 1.94-.5 3.84-1.46 5.57-3.77 6.53-9.93 11-14.6 16.79-3.16 3.92-6.98 7.3-10.28 11.16-4.18 4.89-9.11 8.97-14.65 12.3-11.36 6.83-21.9 14.99-33.65 21.16-17.78 9.34-35.36 19.12-54.23 26.21-2.65 1-5 2.64-7.5 3.94-18.75 9.79-37.59 19.43-58.13 25.01-11.08 3.01-22.61 3.6-33.92 5.4-3.58.57-7.11-.5-10.45-1.86-8.28-3.38-16.95-4.43-25.81-4.28-11.88.2-17.45 7.1-15.12 18.65.71 3.53 1.77 7.01 3.77 9.98 6.4 9.48 12.43 19.15 21.28 26.82 22.05 19.1 45.58 35.98 71.65 49.11 9.28 4.67 18.71 9.14 28.57 12.64 5.61 2 11.39 2.54 17.1 2.74 11.89.42 23.78.53 35.68.97 14.1.53 27.86-2.57 41.4-6.02 8.98-2.29 16.52-8.11 24.66-12.44 7.51-3.99 14.31-9.11 21.26-13.98 1.66-1.17 3.16-2.84 5.55-2.33 2.4 2.33 2.05 5.55 2.25 8.36.76 10.51 1.92 20.98 2.91 31.46.38 4.03.96 7.84 3.68 11.19 2.47 3.04 1.94 7.11 2.36 10.73 1.57 13.56 5.77 26.36 10.79 38.94.77 1.92 1.9 3.76.92 5.94-3.82 4.93-8.87 8.14-14.5 10.67a172 172 0 0 1-32.85 10.94c-1.17.21-2.29.56-3.37 1.07-22.81 6.25-45.93 10.93-69.49 13.28-.59.06-1.19-.04-1.78-.08-1.17.2-2.34-.63-3.5.01Z" class="cls-99"/><path d="M1389.94 537.42c5.34 1.56 10.97 1.38 16.33 3.34 6.57 2.4 11.83 6.18 15.76 11.76 3.92 5.55 9.63 9.44 13.11 15.5 5.17 8.97 7.6 18.74 10.52 28.5 3.2 10.7 4.05 21.69 5.18 32.59 1.29 12.53 2.59 25.16 1.21 37.83-.27 2.47-.67 4.98.56 7.35 2.26 22.03-2.29 43.32-6.99 64.59-2.32 6.52-3.34 13.41-5.81 19.91-1.37 3.61-2.89 7.08-5.02 10.29-3.16 5.01-5.28 10.61-8.74 15.47-1.29 1.81-2.35 3.79-3.88 5.42-1.21 1.14-2.28 2.4-3.15 3.83-4.27 4.56-8.88 8.68-14.67 11.25-4.68 1.57-8.73 4.42-13.08 6.62-13.17 6.65-27.05 11.4-40.85 16.43-1.4.51-2.74 1.13-4.07 1.8-14.96 5.74-30.16 10.79-45.22 16.21-5.49 2.7-11.33 4.51-17.06 6.58-9.97 3.61-18.11 10.2-26.41 16.45a495 495 0 0 0-33.41 27.51c-7.02 6.32-12.46 14.4-16.99 22.77-3.92 7.25-8.22 14.13-13.69 20.3-2.42 2.73-5.23 3.69-8.88 4.21-25.22 3.66-47.76-5.64-70.48-14.12-7.96-2.97-15.41-7.09-23.13-10.59-10.57-4.78-16.23-13.48-18.92-23.97-1.37-5.36.28-11.13 3.37-16.21 5.18-8.52 9.76-17.46 15.84-25.36 7.23-9.39 10.28-20.32 13.14-31.41.85-3.31 1.73-6.63 2.16-10.04 1.8-9.64 4.29-19.19 4.01-29.12.51-9.66-1.07-19.25-1.02-28.89.01-2.09-.48-4.12-1.28-6.06-.71-1.8-1.19-3.67-1.18-5.61.06-11.33-2.89-22.2-5.03-33.19-1.26-8.57-2.69-17.11-4.09-25.66-.26-1.6-.68-3.16-1.15-4.71-2.25-11.71-4.18-23.47-5.73-35.29-.21-1.63-.88-3.12-1.29-4.68-.25-.93-.3-1.88-.23-2.84.32-2.3-.5-4.58-.15-6.88.65-3.45 1.03-6.95 1.96-10.35 1.84-16.63 11.62-27.19 26.37-33.47 9.11-3.88 18.38-1.99 27.3 1.33 4.3 1.6 8.4 3.74 12.32 6.17 6.04 6.3 12.42 12.31 17.06 19.82 5.83 9.67 7.55 20.52 9.11 31.43.24 8.35 2.21 16.47 3.6 24.64 2.37 13.93 4.66 27.83 4.8 42 0 .89.05 1.79.36 2.64.4 1.1 1.15 1.73 2.37 1.56 1.25-.17 1.71-1.07 1.81-2.2.12-1.34.09-2.69-.1-4.01-1.83-12.49-2.55-25.1-4.77-37.56-1.61-9.05-3.03-18.17-3.7-27.37-1.59-12.57-1.74-25.06 2.1-37.32.14-.46.29-.92.43-1.39 2.99-7.13 6.21-14.17 9.55-21.14 4.12-8.62 10.15-15.7 17.74-21.49 3.9-2.98 8.19-4.53 13.14-4.95 6.09-.52 12.11-1.13 18.23-.31 11.29 1.53 20.1 7.76 28.62 14.63 8.86 8.6 12.51 19.79 15.96 31.21 2.06 6.82 3.35 13.78 5.09 20.66.27 2.48.49 4.97 1.72 7.23.23.43.42.87.59 1.32 1.8 7.67 3.75 15.29 3.51 23.28-.35 11.74 2.28 23.07 5.04 34.36.25 1.01.61 2 1.05 2.94.43.92.77 2.16 2.03 2.06 1.53-.13 1.73-1.48 1.76-2.69.15-5.53-.94-10.97-1.32-16.46-.1-1.48-.54-2.95-.45-4.44.99-15.82-2.48-31.46-1.83-47.27.03-.75-.13-1.48-.38-2.19-.97-8.81-.35-17.48 1.56-26.16 1.44-6.54 2.8-13.09 4.58-19.55 1.74-6.32 4.87-11.78 9.45-16.48 5.17-5.31 9.37-11.63 16.1-15.32 12.14-6.66 24.86-10.59 38.9-8.54 2.92.43 5.98.07 8.74 1.45Z" class="cls-49"/><path d="M109.01 777.01c1.36-1.68 1-3.68.95-5.58-.55-18.7-1.13-37.4-1.7-56.1 5.77-.83 11.55-.46 17.31-.12 19.87 1.18 39.78 2.44 59.64 1.26 12.41-.74 24.74-3.13 37.15-4.48 7.38-.8 14.8-1.24 22.15-2.21 8.94-.45 17.72-2.12 26.53-3.6 20.9-3.51 41.27-9.16 61.59-15.07 20.91-6.08 41.3-13.7 61.31-22.18 21.39-9.06 42.35-19.11 61.83-31.97 18.27-12.07 37.08-23.44 53.66-37.8 10.65-9.23 22.18-17.6 31.17-28.67 4.12-5.08 7.41-10.8 12.02-15.51.71-.63 1.49-1.13 2.39-1.45 3.14-.67 3.21 1.99 3.9 3.76 3.93 10.1 6.95 20.52 10.8 30.65 3.21 8.46 6.12 17.03 9.37 25.48.23.68.37 1.38.44 2.09-1.18 13.02.59 25.81 3.55 38.42 2.28 9.69 4.74 19.37 8.2 28.74 3.54 9.59 9.68 17.32 17.28 23.99 1.38 2.78 4.01 4.31 6.32 6.12 2.97 2.33 5.45 4.97 6.95 8.5 7.13 16.79 14.01 33.68 21.26 50.41.53 1.22 1.15 2.42.99 3.83-1.13 3.81-4.62 5.32-7.4 7.45-9.18 7.02-9.31 7.07-17.39-1.24-5.68-5.84-13.2-8.51-20.07-12.3-1.36-.75-2.89-.4-4.39-.3-12.01.85-23.32 4.72-34.71 8.16-26.09 7.89-52.38 15.12-78.44 23.12-24.2 7.43-48.45 14.72-72.59 22.36-38.79 12.27-77.13 25.81-114.84 41.07-28.03 11.34-55.73 23.54-81.89 38.82-16.37 9.56-32.01 20.12-44.53 34.75-8.57 10.03-12.68 21.39-11.98 34.54.05 1.04.05 2.09-.06 3.13-.26 1.19-.38 2.49-1.99 2.67-1.55-.64-2.08-2.07-2.55-3.48-7.81-23.77-17.54-46.87-24.1-71.07-4.25-15.7-6.42-31.81-9.46-47.76-1.04-9.11-2.89-18.09-3.91-27.2-1.16-10.42-2.27-20.84-3.2-31.28-.59-6.63-1.24-13.27-1.55-19.93Z" class="cls-99"/><path d="M294.35 490.85c11.07 3.89 22.17 7.68 33.17 11.74 2.78 1.03 4.41.76 6.44-1.57 4.23-4.83 9.81-8.09 15-11.81 6.15-4.41 12.17-9 18.24-13.51 5.94-4.29 10.44-10.1 15.77-15.03 1.83-1.69 1-4.14.66-6.32-.08-.52-.17-1.03-.25-1.55-.38-1.29-.68-2.57.25-3.97 1.97.64 2 2.46 2.24 3.91.54 3.24 2.17 3.65 5.07 2.76 11.42-3.5 22.45-8.01 33.19-13.16 11.32-5.43 23.11-9.62 35.01-13.38 23.93-7.56 46.52-18.3 69.36-28.45 22.99-10.22 45.99-20.32 69.98-28.11 17.69-5.74 35.24-11.96 52.72-18.35 3.73-1.36 7.64-1.6 9.72-2.4-14.16 2.34-30.01 4.84-45.59 8.8-2.6.66-5.22 1.45-7.92.96-1.59-.29-3.91-.33-2.61-3.16.44-.22.91-.34 1.39-.38 13.11-2.51 26.03-5.99 39.26-7.85 9.65-1.36 19.29-3.43 29.15-1.75 2.68.46 3.8-1.11 3.91-3.6.67-3.02 1.21-6.1 3.34-8.54q1.78 1.56 1.36 5c9.3-3.99 18.49-7.78 27.45-12.04 16.6-7.89 34.09-13.31 51.4-19.29 20.39-7.04 41.16-13.08 60.84-22.09 2.19-.34 3.12 1.33 4.25 2.67 8.13 9.63 15.54 19.84 24.01 29.2 4.77 5.27 8.54 11.36 11.43 17.93.16 3.6-2.63 4.27-5.16 5.17-19.5 6.94-38.88 14.21-58.04 22.02-38.74 15.78-77.93 30.47-116.45 46.75-25.82 10.92-52.29 19.9-78.57 29.51-27.97 10.22-55.28 22.12-82.91 33.23-18.92 7.61-38.35 13.89-57.35 21.33-22.19 8.68-44.45 17.21-66.06 27.22-28.95 13.41-58.68 24.78-88.58 35.78-20.12 7.41-39.63 16.39-59.99 23.16-14.13 4.69-28.08 9.9-42.25 14.49-2.59.84-4.96 1.2-6.78-1.4-1.86-2.57-3-5.51-3.78-8.51-1.84-7.07-7.8-8.59-13.08-8.06-4.16.42-7.91 1.91-10.86 5.4-9.98 11.78-19.45 23.92-27.72 36.98a39.6 39.6 0 0 0-3.43 6.74c-.39 1-.42 2.51-2.17 2.27-.03-2.09-1.77-3.01-3-4.22-13.08-13-26.2-25.96-39.31-38.93-3.2-3.17-5.89-6.65-6.93-11.16-.59-1.57-.42-3.1.2-6.01 1.92 4.8 4.5 3.11 6.97 2.33 31.54-9.96 61.94-22.76 91.94-36.61 19.45-8.98 39.12-17.4 59.61-23.8 14.24-4.45 27.36-11.62 41.14-17.17 1.84-.74 2.18-3.1 4.31-3.17Z" class="cls-83"/><path d="M118.83 855.87c2.26 11.98 4.34 24 6.83 35.94 4.86 23.27 13.94 45.2 21.73 67.54 2.11 6.04 4.27 12.07 6.4 18.1 3.49 4.61 3.67 10.67 6.8 15.43 1.54 3.01 3.58 5.69 5.53 8.42 1.16 1.83 2.26 3.68 2.83 5.8 1.41 5.24 1.88 10.88 6.47 14.76 1.02.86 1.3 2.3 1.9 3.5 6.97 14.09 13.47 28.39 22.34 41.53 3.59 5.32 6.83 10.29 13 12.65.5.47.66 1.13 1 1.7 10.17 18.19 18.47 37.18 24.21 57.24 1.09 3.82 2.45 7.62 2.63 11.66-8.1-.66-14.91 3.52-22.02 6.23-45.64 17.42-91.24 34.93-136.9 52.31-4.3 1.64-8.12 3.55-10.2 7.89-2.92-13.57-11.92-24.5-16.27-37.48-1.69-5.05-1.11-9.08 2.28-13.22 7.46-9.11 17.23-15.51 26.23-22.79 28.7-23.21 57.55-46.26 86.43-69.25 2.66-2.12 3.51-3.94 2.56-7.4-4.9-17.84-6.99-36.2-9.6-54.46-.56-3.95-1.78-6.16-5.69-7.79-28.29-11.79-56.36-24.1-84.69-35.79-17.7-7.3-35.77-13.71-53.6-20.71-5.17-2.03-10.94-3.61-13.7-9.18-1.99-4.03-1.97-8.64-2.51-13-.79-6.38-2.41-12.76-1.19-19.28-.36-.44-.36-.87 0-1.31.18-25.36.35-50.71.54-76.07 0-.42.25-.83.39-1.25-1.41-4.1.12-6.96 3.84-8.78 1.99-.97 3.14-2.63 4.26-4.42 1.08-1.71 2.59-2.63 4.42-.99 1.62 1.45 3.2 1.04 4.98.43 22.27-7.57 44.47-15.37 66.67-23.13 1.83-.64 3.65-1.3 5.62-1.35.95-.02 1.83.22 2.25 1.13.47 1-.27 1.67-.9 2.3-.64.63-1.38 1.15-2.17 1.56-15.49 7.85-31.2 15.25-43.98 21.31 17.12-6.71 37.75-13.18 58.09-20.49 4.5-1.62 5.02-1.16 5.63 3.75 1.9 15.23 2.85 30.58 5.4 45.73.63 3.75 1.12 7.54 2.14 11.22Z" class="cls-90"/><path d="M1046.8 235.22c14.94 5.78 29.15 13.14 43.34 20.5 30.96 16.06 60.87 33.85 88.98 54.58 1.27 3.45-1.67 4.4-3.61 5.66a565 565 0 0 1-31.28 18.92c-19.01 10.67-36.07 24.06-53.34 37.19-11.12 8.45-22.38 16.7-34.03 24.4-2.11.26-3.19-1.33-4.44-2.54-3.2-3.1-6.3-6.3-9.67-9.59 4.3 8.19 10.49 14.71 15.94 21.76 1.08 1.39 2.59 2.57 1.87 4.68-.83 1.52-2.29 2.29-3.69 3.14-36.43 22.01-72.92 43.93-109.32 65.99-3.31 2-6.61 3.62-10.29.81-3.98-7.79-6.56-16.18-10.19-24.12-1.91-4.18-3.76-8.38-5.57-12.6-.19-.37-.35-.75-.49-1.14-.37-1.13-.65-2.29-1.38-3.26-1.21-1.4-1.95-3.04-2.5-4.78-.55-1.78-1.44-3.42-2.05-5.18-3.82-9.47-10.7-17.14-15.35-26.14-3.2-6.2-6.49-12.39-10.42-18.19-5.18-10.01-11.22-19.59-15.3-30.17 6.18-5.92 13.74-9.84 20.97-14.22 22.26-13.49 44.5-27.01 66.87-40.32 9.23-5.5 17.37-12.51 25.94-18.92 17.99-13.45 35.93-26.97 53.93-40.41 2.2-1.64 4.03-3.48 5.08-6.03Z" style="strokeWidth:0;fill:#91b371"/><path d="M605.49 358.45c.55 1.86.55 1.94 2.38 1.95 5.72.03 11.02-2.14 16.5-3.34 12.84-2.81 25.77-5.01 38.97-5.93-5.34 1.93-10.66 3.92-16.02 5.78-25.68 8.9-51.46 17.52-77.01 26.77-11.14 4.04-21.8 9.41-32.7 14.12-26.15 11.32-51.65 24.2-79.04 32.53-18.08 5.5-35.06 13.82-52.44 21.11-5.19 2.18-10.7 3.6-15.97 5.62-3.27 1.25-5.06.94-5.15-3.03-.03-1.41-.65-2.81-1.24-5.17-.18 1.95-.27 2.95-.37 3.95-3.15-17.27-6.35-34.53-9.44-51.81-5.93-33.12-11.8-66.25-17.69-99.37-1.41-7.94 1.06-11.49 8.44-14.97 21.11-9.97 42.06-20.28 63.04-30.53 13.24-6.46 26.3-13.31 39.69-19.45 5.98-2.74 11.98-5.76 18.98-5.94 7.47-.19 11.93 4.74 15.96 9.3 21.79 24.66 43.13 49.72 64.69 74.58 12.28 14.16 24.68 28.22 37.03 42.32.72.25 1.42.52 1.39 1.48Z" class="cls-82"/><path d="M1046.8 235.22c1.77 3.67-1.58 4.68-3.45 6.12-8.91 6.87-17.96 13.55-26.97 20.29-16.96 12.67-33.39 26.15-51.04 37.77-22.4 14.74-45.82 27.94-68.77 41.85-7.45 4.52-14.8 9.2-22.2 13.8-5.04-5.38-9.41-11.24-12.58-17.93-10.14-17.55-24.95-31.5-36.73-47.79-.41-.57-1.16-.88-1.75-1.31-.64.24-1.21.01-1.58-.47-6.37-8.44-15.17-14.77-20.74-23.9-.15-.25-.32-.51-.53-.72-12.78-12.89-24.77-26.66-38.93-38.06-8.47-6.82-17.22-13.23-24.55-21.32-1.66-1.83-3.95-2.6-5.75-4.14-6.83-6.47-13.94-12.45-23.61-14.24-2.78-.52-5.3-1.97-5.61-4.98-.34-3.21 2.55-3.94 4.91-4.87 7.31-2.89 15.15-2.85 22.74-3.52 24.05-2.11 48.07-.05 72.1 1.56 30.98 2.07 61.6 6.58 91.97 12.74 40.58 8.22 80.3 19.58 118.85 34.79 11.51 4.54 23.29 8.47 34.24 14.36Z" style="strokeWidth:0;fill:#96b475"/><path d="M615.01 1456.05c10.4-2.96 20.7-6.14 30.74-10.24 6.04-2.47 11.21-5.95 15.76-10.51 2.53-.92 3.04 1.25 3.86 2.68 1.71 2.96 3.31 6.01 4.73 9.11 4.75 10.37 13.69 17.15 21.34 24.97 24.76 25.34 44.7 54.12 61.24 85.29 5.57 10.49 12.38 20.35 16.46 31.63.81 2.23 2.37 4.12 3.95 5.92 4.2 4.78 9.39 8.53 13.91 13.01 4.6 4.56 11.79 6.09 18.08 8.36 13.1 4.72 26.86 6.51 40.57 8.28 11.5 1.49 22.99 3.03 34.56 4.04 10.66.93 21.34 1.45 32 2.32 8.44.69 16.84 1.84 25.33 1.89 9.65.05 18.63-1.75 26.08-8.48 1.53-1.38 3.37-2.44 5.23-3.4 1.58-.6 3.02-1.39 3.89-2.95 3.02-3.27 5.78-6.92 10.58-7.79 5.29 3.06 9.68 7.3 14.31 11.21.95.81 1.99 1.96.89 3.47-6.95 2.17-13.78 4.74-20.68 7.03-31.69 10.52-63.96 18.74-96.83 24.81-15.3 2.82-30.6 5.58-46.02 7.42-17.35 2.07-34.74 4.91-52.3 2.27-2.64-.4-4.5.97-6.72 1.54-3.2-1.81-6.9-1.68-10.32-2.66-10.01-2.87-19.64-6.9-29.7-9.61-4.87-1.31-8.62-4.64-12.48-7.64-3.78-2.93-7.75-5.49-12.1-7.48-2.56-1.6-5.16-3.08-8.25-3.4-8.8-4.24-15.66-10.98-22.66-17.55-2.53-3.38-5.55-6.28-8.83-8.91-1.19-.82-2.21-1.8-2.82-3.13-.67-1.97-2.21-3.21-3.77-4.44-10.75-13.75-22.79-26.59-30.3-42.65-.75-1.61-1.67-3.15-1.94-4.95a9 9 0 0 1-.14-1.29c.07-2.22-.69-4.23-1.6-6.2-4.58-12.71-10.45-24.96-13.86-38.1-.41-1.58-1-3.12-.98-4.79.8-6.14-1.67-11.94-1.87-17.97-.15-.45-.24-.91-.32-1.38-.52-3.26.25-6.6-.68-9.83-.14-.46-.23-.92-.29-1.39-.38-3.52.26-7.07-.47-10.58-.15-.46-.25-.93-.32-1.4-.16-2.63-.87-5.49 2.75-6.52Z" style="strokeWidth:0;fill:#466323"/><path d="M1487.48 1020.44c-.59 12.07-3.3 23.82-5.4 35.65-5.24 29.51-12.43 58.55-21.23 87.19-.26.84-.22 1.79-1.05 2.37-2.65.75-4.18-1.26-5.82-2.59-15.46-12.58-30.92-25.17-46.37-37.76-29.07-23.68-58.18-47.31-87.18-71.07-3.57-2.93-6.76-5.34-11.89-2.59-3.39 1.82-7.51.71-10.37-2.07-3.47-3.37-6.82-5.08-11.36-2.02-1.14.77-2.86 1.31-3.72-.78 1.14-11.47 3.4-22.78 5.18-34.15.68-4.37.85-8.83 2.34-13.05.77-1.52.85-3.15.8-4.81.06-2.54-.18-5.12 1.06-7.49 1.33-1.61.96-3.57 1.06-5.43.13-.68.41-1.27.94-1.73 2.32-1.21 4.39-.46 6.21 1 3.82 3.07 8 2.95 12.2 1.3 2.58-1.01 4.86-1.05 7.24.33 1.32.77 2.97 1.38 4.27.56 4.95-3.09 10.81-1.57 16.02-3.43 3.04-1.08 5.89.51 8.14 2.61 4.74 4.42 9.76 5.36 15.4 1.81 1.13-.72 2.45-1.21 3.8-1.21 3.73 0 6.97-1.33 9.97-3.41 2.93-2.02 5.79-2.01 8.6.31 1.4 1.16 3.08 1.78 4.87 2.12 3.13.58 6 1.8 8.43 3.88 2.7 2.31 5.35 2.89 8.43.58 2.48-1.86 5.39-2.44 8.48-1.88 3.13.14 5.68 1.68 7.99 3.57 20.09 16.43 40.26 32.76 60.33 49.22 1.04.86 1.99 1.78 2.63 2.97" style="strokeWidth:0;fill:#5d9530"/><path d="M1283.74 1027.61c5.87-3.4 11.02-4.26 16.24 1.9 2.29 2.71 6.89 2.59 10.41.35 2.71-1.73 4.84-1.2 7.22.76 17.62 14.45 35.3 28.85 53 43.21 18.39 14.92 36.85 29.75 55.23 44.67 10.12 8.21 20.14 16.52 30.24 24.75 1.14.93 2.47 1.61 3.72 2.4-6.7 21.61-14.57 42.81-23.3 63.67-5.2 12.42-10.65 24.75-16.83 36.73-26.82-22.13-53.9-43.94-80.83-65.94-21.87-17.87-43.88-35.57-65.62-53.6-1.75-1.45-3.53-2.71-5.96-2.65-.93.02-1.77-.3-1.91-1.45 2.64-15.32 5.84-30.54 8.56-45.84 2.59-14.57 5.68-29.05 7.77-43.71.27-1.88.49-3.85 2.04-5.26Z" class="cls-34"/><path d="M1265.91 1123.31c3.07-1.65 5.33.05 7.55 1.85 20.78 16.92 41.58 33.8 62.32 50.77 21.89 17.91 43.69 35.91 65.57 53.83 5.38 4.41 10.89 8.65 16.35 12.96 1.1.87 1.9 1.88 1.98 3.34-8.77 18.67-18.7 36.71-29.15 54.48-4.28 7.28-8.52 14.59-13.51 21.42-2.46 1.08-3.97-.74-5.52-1.99-13.43-10.86-26.79-21.82-40.2-32.71-15.37-12.49-30.73-25-46.05-37.55-10.71-8.78-21.6-17.34-32.11-26.36-2.85-2.44-6.57-3.27-9.19-5.91-.02-3.32 1.14-6.42 1.96-9.56 6.77-26.11 11.88-52.59 17.93-78.86.45-1.96.37-4.19 2.09-5.72Z" style="strokeWidth:0;fill:#57872c"/><path d="M1244.46 1218.1c6.24-.5 9.35 4.66 13.35 7.81 15.8 12.47 31.32 25.31 46.91 38.05 13.76 11.25 27.46 22.56 41.21 33.81 9.51 7.78 19.07 15.5 28.65 23.21.65.52 1.62.65 2.43.97-18.61 29.25-38.86 57.28-61.61 83.46-.66.76-1.48 1.37-2.22 2.05-21.59-17.25-42.91-34.83-64.33-52.29-8.87-7.23-17.8-14.38-26.59-21.71-1.89-1.58-3.88-2.71-6.5-2.17-.85.17-1.81.07-2.16-1.05 1.18-7.98 4.23-15.45 6.31-23.18 5.52-20.52 11.34-40.96 17.02-61.44.68-2.44.91-4.97 1.62-7.4 1.66-6.8 2.34-13.88 5.91-20.11Z" style="strokeWidth:0;fill:#55822b"/><path d="M139.43 629.6c4.47-10.93 11.03-20.49 18.94-29.2 3.69-4.07 5.66-9.38 9.51-13.36 3.96-4.1 7.4-8.61 13.63-9.87 7.18-1.45 13.69 1.71 16.17 8.55 1 2.76 2.26 5.43 3.4 8.14 7.27 13.28 11.99 27.64 17.69 41.58.45 1.67 1.03 3.28 1.88 4.79 1.05 2.39 1.96 4.84 2.99 7.23 3.91 9.77 5.86 20.32 11.61 29.36 3.77 9.09 7.26 18.29 10.07 27.72.61 2.05 1.91 4.16.49 6.41-12.85 1.39-25.75 2.38-38.53 4.28-17.27 2.56-34.57 3.33-51.97 2.71-14.56-.52-29.11-1.15-43.67-1.71-1.21-.05-2.37-.16-3.38-.9-.36-4.81.68-9.35 2.18-13.91 8.07-24.59 17.15-48.76 28.99-71.82" style="strokeWidth:0;fill:#615140"/><path d="M1289.97 406.91c13.03 12.98 24.84 27.04 36.45 41.27 1.63 1.99 3.14 4.07 4.71 6.12-.74 2.77-3.22 3.78-5.31 5.1-31.82 20.05-64.23 39.13-96.39 58.63-18.68 11.33-37.22 22.91-54.45 36.44-1.71 1.34-3.29 3.1-5.79 2.99-3.23-2.51-4.12-6.43-5.79-9.84-1.3-2.66-2.41-5.43-3.8-8.05-5.93-10.57-11.02-21.58-16.93-32.16-.74-2.23-2.98-3.92-2.45-6.63 1.07-2.12 3.18-3.08 5.01-4.32 20.83-14.17 42.67-26.71 64.22-39.73 2.7-1.63 5.32-3.24 6.84-6.19.91-1.77 2.7-2.74 4.35-3.76 20.91-12.92 42.16-25.28 63.09-38.18 1.88-1.16 3.79-2.48 6.24-1.67Z" style="strokeWidth:0;fill:#86af65"/><path d="M459.36 1416.67c11.72 10.09 21.59 21.89 31.14 33.96-.58 1.19-1.72 1.55-2.84 1.97-52.96 19.8-105.6 40.44-158.49 60.4-2.63.99-4.3 2.33-4.79 5.08-13.1-8.98-26.21-17.96-39.31-26.94-1.64-1.98-3.98-3.03-6.02-4.47-5.12-3.6-6.92-12.29-3.76-17.7.82-1.41 2.1-2.01 3.51-2.55 47.41-18.07 94.77-36.27 142.19-54.31 4.57-1.74 9-3.83 13.68-5.29 3.84-1.2 8.03-.28 11.79-1.96.25-.03.4.07.46.31.42 1.15-.42 1.93-.83 2.84-.62 1.38.29 2.28 1.35 2 5.31-1.4 7.51 2.83 10.56 5.56.44.39.94.7 1.38 1.1Z" class="cls-17"/><path d="M1169.3 557.17c35.73-27.54 75.21-49.2 113.62-72.52 14.34-8.7 28.56-17.59 42.81-26.43 1.88-1.17 3.6-2.6 5.4-3.91 13.05 15.21 24.22 31.81 35.81 48.1.4.56.48 1.34.72 2.02-.46 1.74-1.95 2.52-3.22 3.55-12.05 9.82-25.56 17.39-38.76 25.45-10.92 6.66-21.64 13.66-32.6 20.26-3.3 1.99-4.43 4.12-3.16 8.02 2.41 7.39.24 10.86-7.34 13.54-3.06 1.08-3.72-1.7-5.43-2.79-5.17-2.87-9.52-6.94-14.82-9.72-8.66-4.54-17.75-4.99-27.16-4.4-21.06 1.32-29.39 16.91-37.18 33.09-2.23 4.63-4.27 9.36-6.4 14.05-2.93 1.1-3.16-1.46-3.81-3.03-4.84-11.66-9.6-23.34-15.04-34.74-1.04-3.55-4.38-6.35-3.44-10.54" style="strokeWidth:0;fill:#82ac5f"/><path d="M294.35 490.85c.44 2.32-1.25 2.99-2.87 3.69-16.6 7.21-32.85 15.25-50.24 20.56-18.36 5.6-35.61 13.99-53.13 21.71-24.3 10.71-48.24 22.31-73.73 30.13-6.66 2.04-13.22 4.46-19.76 6.88-2.51.93-3.96.8-4.16-2.3l-.27 3.77c-2.06-4.35.35-8.07 2.41-11.26 20.54-31.74 39.97-64.17 60.13-96.15 1.67-2.64 3.33-5.29 4.99-7.94 5.27-8.37 13.86-10.03 23.43-8.28 9.91 1.8 19.14 5.05 28.44 8.39 25.9 9.31 51.75 18.77 77.62 28.17-.09.12-.16.26-.27.34-.11.07-.27.07-.41.09 1.73 1.28 3.75 1.38 5.78 1.46.68.25 1.37.49 2.05.74Z" class="cls-82"/><path d="M1056.63 396.19c2.62-4.3 7.42-5.86 11.22-8.55 17.31-12.24 33.8-25.57 50.96-38 11.07-8.03 23.18-14.4 34.78-21.58 7.32-4.53 14.75-8.87 22.1-13.36 1.64-1 3.25-2.18 3.42-4.4 17.86 12.27 35.09 25.34 51.07 40.02.43 2.96-2.25 3.61-3.86 4.84a980 980 0 0 1-51.31 36.47c-3.48 2.31-6.86 4.77-10.02 7.47-3.78 3.21-7.71 4.23-12.37 2.33-1.46-.6-3.16-1.53-4.54.07-1.22 1.42-.07 2.81.44 4.16 1.02 2.73 1.06 5.02-1.57 7.13-13.83 11.16-29.27 19.9-44.08 29.57-.62.41-1.33.66-2.1.7-4.15-2-6.55-5.94-9.87-8.87-8.85-10.95-19.02-20.65-28.87-30.66-2.13-2.16-4.83-3.99-5.41-7.33Z" style="strokeWidth:0;fill:#8db16d"/><path d="M1214.03 1330.79c4.07-2.21 7.04.1 9.95 2.48 20.35 16.72 40.65 33.5 61.03 50.18 8.36 6.84 16.9 13.45 25.32 20.2 1.25 1 2.69 1.95 2.85 3.81-4.17 4.98-8.16 10.13-12.54 14.92-16.43 18-33.71 35.15-51.6 51.68-.29.27-.75.36-1.14.53-5.16-1.96-8.66-6.19-12.8-9.51-17.16-13.77-34.16-27.73-51.21-41.64-.91-.75-1.94-1.4-2.53-2.49.9-5.83 4.64-10.41 6.94-15.63 3.84-7.06 5.73-14.86 8.4-22.37.64-1.81 1.24-3.64 1.79-5.48 3.83-13.44 8.32-26.68 12.24-40.08.69-2.35.9-5.06 3.3-6.6" style="strokeWidth:0;fill:#517b29"/><path d="M71.38 1216.56c-.27-3.94 2.03-6 5.35-7.27 37.01-14.11 74.03-28.18 111.03-42.32 14.97-5.72 29.9-11.52 44.81-17.4 2.85-1.12 5.4-1.28 7.93.55 2.6 7.85 4.02 15.96 4.85 24.13 1.27 12.55 2.63 25.13.55 37.75-.25-.18-.52-.36-.61-.63-1.93-5.71-1.9-5.65-7.69-3.43-44.82 17.19-89.64 34.41-134.52 51.46-3.27 1.24-5.7 2.79-6.62 6.24-4.73-11.66-13.49-21.11-17.78-33.1-1.94-5.43-6.21-10.01-7.31-15.98Z" style="strokeWidth:0;fill:#6f6244"/><path d="M731.22 199.39c1.85-.11 3.49.21 4.84 1.7 8.83 9.74 19.57 17.22 29.6 25.57 10.37 8.64 19.64 18.7 28.88 28.61 9.9 10.62 19.2 21.8 28.76 32.73-3.51 3.42-8.17 4.74-12.55 6.27-26.47 9.23-53.13 17.91-79.51 27.39-11.84 4.25-23.16 9.94-34.72 14.97-4.87 2.12-9.75 4.24-14.67 6.38-1.02-2.47 2.38-4.49.21-6.75-.68-.76-.58-1.59-.26-2.48 4.94-13.56 9-27.46 15.42-40.46 9.99-27.26 19.91-54.54 30.06-81.74 1.5-4.03 1.67-8.45 3.93-12.2Z" class="cls-82"/><path d="M1479.33 770.03c4.76 23.38 8.67 46.88 10.81 70.66-.89 1.86-2.58 2.81-4.23 3.83-22.13 13.72-44.7 26.72-66.84 40.43-4.78 2.96-6.41 2.83-10.8-.72-3.49-2.81-7.09-5.46-11.2-7.28-3.33-1.48-6.69-2.84-9.31 1.44-1.2 1.96-3.4 1.81-5.26 1.09-5.77-2.23-12.17-3.06-16.98-7.48-2.27-2.09-4.62-2.3-7.25-.47-4.42 3.09-8.63 2.48-12.59-1.02-1.45-1.28-2.94-2.51-4.56-3.58-4.2-2.76-8.39-3.86-12.66-.12-.78.68-1.71 1.43-2.74 1.42-5.46-.05-9.98 2.45-14.53 5.04-2.66 1.51-5.16.94-7.32-1.19-2.18-8.1 4.27-15.01 12.31-13.01 2.25.56 4.07.31 5.91-.88 3.05-1.96 6.22-3.41 10.01-3.26 2.15.08 3.94-1.3 5.68-2.42 5.27-3.36 10.81-4.6 16.98-2.89 3.44.95 6.8-.73 10.05-1.41 6.64-1.4 12.12-5.44 17.12-9.95 1.37-1.24 1.67-3.19 1.55-5-.39-5.86 2.76-9.39 7.47-12.15 16.32-9.55 32.33-19.62 48.58-29.31 11.25-6.71 22.47-13.49 33.73-20.19 1.8-1.07 3.55-2.96 6.06-1.6Z" class="cls-103"/><path d="M446.45 1404.86c-1.6 0-2.2 1.31-3.06 2.31-.58.68-1.44 1.63-2.22 1.22-5.22-2.76-8.62 1.26-12.94 2.72-5.13 1.74-10.28 3.5-15.35 5.44-33.91 12.96-67.81 25.97-101.74 38.91-10.93 4.17-21.92 8.17-32.89 12.24-3.23 1.2-5.08 7.57-3.4 12.22.97 2.68 2.5 4.95 5.04 6.6 1.92 1.24 4.45 1.96 5.16 4.61-12.13-6.54-14.37-12.27-9.57-25.1 8.29-22.15 16.66-44.27 25.02-66.39.36-.96.92-1.84 1.39-2.75 1.09-1.93 2.32-3.49 4.63-4.34 23.28-8.6 46.44-17.51 69.5-26.66 6-2.38 10.77-1.73 15.79 1.44 16.97 8.5 32.41 19.33 47.19 31.15 2.55 2.04 4.96 4.24 7.43 6.37Z" class="cls-50"/><path d="M1487.48 1020.44c-6.64-3.98-12.13-9.43-18.12-14.23-15.23-12.22-30.19-24.75-45.37-37.04-2-1.62-4.12-3.55-7.11-3.29-1.31-2.91 1.34-3.56 2.84-4.63 4.37-3.11 4.53-3.15.52-6.9-3.91-3.66-6.85-8.15-10.57-11.99-4.39-4.53-3.48-7.66 2.14-10.57 3.96-2.04 4.09-3.01.75-5.98-1.45-1.29-2.89-2.58-3.77-4.35-1.45-2.92-1.05-5.58 1.65-7.49 2.29-1.62 4.52-3.4 7.24-4.33 6.33.27 11.88-1.98 17.1-5.32 17.57-11.23 35.55-21.81 53.43-32.55 1.02-.61 2.1-1.14 3.33-1.22.45.04.85.22 1.18.53 2.62 35.19 2.29 70.36-.41 105.54-1 13.04-2.11 26.05-3.92 39-.23 1.61-.6 3.2-.91 4.8Z" class="cls-1"/><path d="M1491.98 871.09c-15.88 9.49-31.76 18.99-47.65 28.48-6.55 3.91-12.6 8.65-20.1 10.97-2.43.75-4.31-.28-6.45-.1-2.5-.4-4.69-1.49-6.73-2.93-1.84-1.54-3.52-.57-5.2.34-2.69 1.44-4.92 3.56-7.49 5.18-3.48.76-6.8 2.19-10.44 2.22-2.41.02-4.82-.06-6.9-1.4-3.74-2.41-7.27-2.01-10.81.39-1.35.91-2.79 1.7-4.25 2.44-2.66 1.34-5.08 1.15-7.47-.75-3.6-2.87-7.01-6.03-11.18-8.09-4.58-2.26-9.2-3.42-13.97-.35-1.38.89-3 1.41-4.66 1.4-3.4-.02-6.44.97-9.21 2.89-4.31 2.99-8.28 2.54-12.12-.96-1.4-1.28-2.88-2.55-5.09-3.53-1.23 8.42-1.82 16.67-3.02 24.83-1.13 7.65-2 15.33-3.14 22.98-.28 1.87-.27 3.9-1.69 5.45v1.78c-1.15 1.32.35 3.17-.89 4.48-.89 2.62-1.03 5.32-.9 8.04-1.1 1.33.16 3.13-.89 4.47-1.79 10.73-3.58 21.47-5.36 32.2-.89 5.37-1.77 10.73-2.65 16.1-1.8 10.61-3.48 21.25-5.43 31.84-3.78 20.46-7.72 40.89-11.61 61.32-.16.87-.52 1.69-.79 2.54-1.46 10.12-4.28 19.95-6.27 29.96-4.16 20.91-9.25 41.61-14.39 62.29-.21.86-.53 1.7-.79 2.54-1.33 5.55-2.68 11.1-3.98 16.67-.3 1.28-.41 2.59-.61 3.89-.54.29-.98.18-1.33-.32-1.37-2.86-.11-5.58.59-8.26 10.27-39.54 19.03-79.42 27.01-119.46 11.91-59.79 21.84-119.91 28.89-180.48 1.58-13.61 4.27-27.07 5.72-40.69.51-4.73.45-9.53 1.65-14.19.39-1.23.75-2.47 1.89-3.26 3.66 2.17 6.83.65 9.79-1.47 2.88-2.07 5.89-3.4 9.51-3.02 1.36.14 2.53-.25 3.72-1.1 6.32-4.5 8.45-4.47 15.07.08 1.34.92 2.51 2.07 3.79 3.07 5.04 3.93 6.88 4.17 12.26.47 2.76-1.9 4.97-1.59 7.1.48 5.02 4.9 11.81 5.72 17.94 8.08 1.61.62 3.14.69 3.75-1.05 2.06-5.85 6.26-3.27 9.44-2.07 4.54 1.71 8.77 4.4 12.23 7.86 3.08 3.09 5.81 3.15 9.41.94 23.37-14.33 46.83-28.52 70.26-42.75.51-.31 1.05-.55 1.58-.83.05.5.09 1.01.14 1.51.82 1.8-.12 3.8.66 5.61.08 1.71.15 3.42.23 5.13.87 2.1-.15 4.39.66 6.5.08 1.71.15 3.43.23 5.14.49 2.18.66 4.35-.08 6.52Z" style="strokeWidth:0;fill:#649d38"/><path d="M96.47 1265.65c-1.2-3.7.28-5.14 3.92-6.51 29.02-10.89 57.93-22.08 86.86-33.2 18.28-7.02 36.55-14.04 54.8-21.13 2.9-1.13 4.13-.52 3.79 2.73-.15 1.47.03 2.97.06 4.46-1.26 12.75-.56 25.63-2.65 38.31-4.56 2.94-9.81 4.27-14.78 6.17-35.48 13.54-70.89 27.27-106.41 40.7-.7.26-1.39.54-2.07.85-2.7 1.24-2.53 2.83-.2 4.1 4 2.17 8.25 3.33 12.89 2.46 11.42-2.14 22.73-4.8 34.09-7.2 4.95-1.05 9.92-2.06 14.89-3.02 1.85-.36 3.83-1.03 5.42.75-18.62 4.71-37.51 8.19-56.28 12.23-1.78.38-3.53-.16-5.3-.31-9.7-.81-13.06-8.73-16.85-15.58-4.6-8.31-8.17-17.19-12.18-25.82Z" style="strokeWidth:0;fill:#6b5e41"/><path d="M1289.97 406.91c-10.93 4.78-20.46 11.95-30.72 17.88-12.07 6.98-23.83 14.5-35.83 21.59-3.52 2.08-5.81 5.13-8.57 7.91-3.55 3.58-8.61 5.69-13.07 8.35-20.64 12.3-41.28 24.6-61.12 38.2-1.59.34-2.03-.99-2.63-1.92-4.63-7.29-8.8-14.85-13.24-22.25-.62-1.03-1.04-2.15-.7-3.4 1.13-2.06 3.22-3.04 4.95-4.41 30.84-24.42 63.67-46.15 94.95-69.97 9.48-7.22 18.93-14.47 28.53-21.54 1.66-1.22 3.29-3.38 5.88-1.7 5.94 5.68 12.16 11.09 17.72 17.11 4.49 4.86 9.18 9.5 13.84 14.17Z" style="strokeWidth:0;fill:#89b068"/><path d="M1258.41 375.63c-5.11.93-8.42 4.87-12.18 7.78-26.16 20.23-52.98 39.54-79.96 58.66-12.93 9.16-25.32 19.09-37.98 28.65-1.18.89-2.48 1.6-3.73 2.39-3.64-.26-3.8-4.09-6-5.84-5.38-7.19-10.6-14.49-16.64-21.16-.86-.94-2.02-1.83-1.47-3.41 14.97-10.07 30.76-18.89 45.02-30.08 3.52-2.76 3.41-5.26 1.2-7.99-1.58-1.95-.32-2.89.41-4.2.91-1.64 2.22-1.75 3.78-.92 5.31 2.81 9.52 1.69 14.48-2 20.65-15.36 42.45-29.14 62.75-45 .83-.65 1.72-1.15 2.11-2.19 8.65 7.33 17.53 14.4 25.58 22.42.93.92 2.23 1.5 2.65 2.89Z" style="strokeWidth:0;fill:#8ab06a"/><path d="M1181.56 1421.03c4.69 1.75 7.92 5.55 11.68 8.55 15.93 12.69 31.66 25.63 47.43 38.52 2.5 2.05 4.82 4.32 7.23 6.5-15.93 13.65-30.93 28.4-48.25 40.39-16.2-13.12-32-26.73-48.66-39.28-.36-.27-.63-.62-.88-.99-.6-1.8.39-3.15 1.29-4.53 9.37-14.36 17.49-29.45 25.9-44.37 1.06-1.87 1.63-4.27 4.25-4.79Z" style="strokeWidth:0;fill:#4f7628"/><path d="M501.59 1466.7c.27.32.53.64.8.96 1.24 4.25 4.8 4.12 8.2 4.46 2.09.21 5.28-1.17 5.92 1.35.48 1.89-2.53 3.21-4.2 4.66-5.35 4.62-11.13 8.76-16.03 13.91l.09-.07c-2.39.82-3.7 2.95-5.46 4.54l.09-.07c-2.39.82-3.69 2.97-5.46 4.53l.09-.07c-2.38.84-3.68 2.97-5.46 4.54l.09-.07c-2.37.85-3.68 2.97-5.46 4.54l.09-.07c-1.58.22-2.32 1.95-3.89 2.21-6.49.7-12.22 3.77-18.17 6.05-24.32 9.34-48.66 18.62-73 27.9-.97.37-1.94.76-2.88 1.23-2.1 1.04-2.11 2.14-.29 3.62 1.48 1.21 3.97 1.87 3.17 4.67-10.41-6.45-20.5-13.38-30.39-20.6-1.58-1.79-3.53-3.17-5.38-4.66-1.83-1.48-1.41-2.72.24-3.91 1.22-.88 2.63-1.38 4.02-1.92 43.76-16.94 87.64-33.57 131.45-50.38 5.56-2.13 11.1-4.33 16.69-6.4 1.62-.6 3.2-1.75 5.1-.94Z" class="cls-23"/><path d="M1150.43 1474.75c5.41 1.97 9.25 6.19 13.6 9.63 10.97 8.68 21.74 17.62 32.58 26.46 1.36 1.11 2.93 2.09 3.04 4.14-17.66 14.12-36.36 26.75-55.53 38.71-5.26 3.28-10.13 7.22-16.01 9.46-7.66-4.87-14.03-11.38-21.31-16.74-4.77-3.52-8.45-7.87-10.35-13.59.11-1.88 1.56-2.76 2.83-3.77 13.18-10.47 25.11-22.24 36.05-34.99 4.26-4.96 7.66-10.58 11.37-15.96.94-1.37 1.45-3.39 3.72-3.36Z" style="strokeWidth:0;fill:#4d7227"/><path d="M669.55 1607.25c.82.87 1.64 1.73 2.45 2.6 2.91 3.18 5.93 6.25 9.14 9.12 7.01 6.45 14.13 12.77 22.4 17.62 2.91.23 5.11 2.52 8.02 2.76 6.6 2.82 12.03 7.38 17.66 11.68 5.32 4.06 12.02 4.91 18.19 6.97 8.82 2.94 17.44 6.58 26.77 7.82 1.01.13 2.62.2 1.77 2.1-1.83 1.72-4.14 1.35-6.35 1.44-13.65.51-26.95-2.39-40.36-4.19-17.99-2.42-35.89-5.87-53.95-7.26-12.57-.96-24.64-3.88-36.93-5.91-2.92-.48-5.83-1.34-7.38-4.33-3.43-8.02-5.85-16.34-7.43-24.92-.6-3.25 1.21-4.62 3.78-5.56 7.39-2.69 14.66-5.71 22.08-8.33 5.28-1.87 10.18-4.82 15.79-5.77 2.05.75 3.16 2.48 4.32 4.16Z" style="strokeWidth:0;fill:#3c3424"/><path d="M1277.15 572.45c1.84.02 2.54 3.27 4.51 2.07 3.01-1.83 6.87-2.87 8.64-6.06 1.37-2.48-.91-5.15-1.8-7.47-1.45-3.79-.33-5.58 2.82-7.5 18.64-11.34 37.27-22.7 55.71-34.36 7.13-4.5 13.76-9.79 20.62-14.71 7 9.02 12.61 18.96 18.82 28.5 1.04 1.6 1.87 3.34 3.47 4.5-7.39-.21-14.85-1.2-22.13-.42-8.36.89-16.76 3.21-23.81 7.96-15 10.1-25.37 23.4-28.76 41.92-2.1 11.48-4.54 22.79-3.74 34.53-.68 5.29-5.78 9.65-11.81 10.09l.03-.02c-.8-2.37-1.03-4.87-1.79-7.25-2.4-9.08-4.77-18.17-7.22-27.24-2.51-9.28-7.32-17.31-13.56-24.54" style="strokeWidth:0;fill:#7eab5a"/><path d="M1304.28 871.99c-.06.96.12 1.98-.8 2.68-2.8-4.37-1.24-9.17-1.2-13.77.05-5.33.15-10.61-1.42-15.78 15.11-5.37 30.23-10.73 45.34-16.1 15.69-5.66 31.53-10.95 46.5-18.45 3.98-1.99 7.73-4.4 11.65-6.49 5.26-2.89 9.64-6.93 14.09-10.87 1.17-1.01 2.02-2.27 2.92-3.5 4.16-6.9 8.31-13.81 12.47-20.71 1.87 2.65 3.5.25 4.84-.5 9.29-5.26 18.21-11.13 27.41-16.53 1.53-.9 3.03-1.88 4.63-2.64 1.6-.77 3.16-1.03 4.12 1l4.5 19.71c-8.33 3.31-15.52 8.67-23.16 13.19-21.46 12.7-42.7 25.76-64.11 38.53-4.85 2.89-8.3 6.15-7.4 12.4.45 3.13-1.44 5.4-3.87 7.09-7.2 5.02-14.81 9.22-23.77 9.96-3.41.28-6.52-1.57-10.31-.98-4.14.64-7.05 2.91-10.43 4.59-1.87.93-3.5 1.74-5.81 1.39-3.67-.56-6.25 2.32-9.21 3.87-1.38.72-2.5 1.41-4.12.83-6.77-2.43-12.89 1.8-12.87 8.85 0 .74.02 1.49.02 2.23Z" style="strokeWidth:0;fill:#69a13e"/><path d="M501.59 1466.7c-15.18 5.92-30.34 11.91-45.56 17.75-36.1 13.85-72.24 27.62-108.36 41.43-4.64 1.77-4.7 2.06-1.07 5.15a10.34 10.34 0 0 1 2.85 3.89c-6.27-4.13-12.54-8.25-18.81-12.38-1.02-1.32-2.18-2.44-3.84-2.91-.81-.51-1.61-1.02-2.42-1.53-1.92-2.74-1.02-4.23 1.97-5.37 25.36-9.59 50.69-19.25 76.01-28.92 24.91-9.51 49.8-19.08 74.72-28.56 4.42-1.68 8.94-3.07 13.42-4.6 3.88 5.23 8.09 10.22 11.08 16.06Z" class="cls-23"/><path d="M187.08 1295.13c-6.15-.18-11.95 1.84-17.87 2.98-12.91 2.48-25.7 5.61-38.64 7.9-4.81.85-9.58-.97-13.45-4.29-2.27-1.94-2.01-3.11.98-4.24 15.54-5.84 31-11.87 46.5-17.82 23.24-8.92 46.49-17.84 69.75-26.74 2.89-1.11 5.71-2.51 8.91-2.6 1.36 7.34 5.08 13.74 8.14 20.4 1.47 3.21 3.33 6.24 5.05 9.43-1.37.54-2.45.96-3.53 1.38-19.75 4.18-39.51 8.36-59.27 12.52-2.17.46-4.37.72-6.56 1.08Z" style="strokeWidth:0;fill:#665b3f"/><path d="M118.83 855.87c-2.87-7.53-3.28-15.55-4.33-23.4-1.55-11.57-2.53-23.22-3.64-34.85-.23-2.38-1.08-2.68-3.16-1.94-15.68 5.53-31.39 10.99-47.1 16.45-6.13 2.13-12.28 4.21-18.56 5.96 16.89-9.99 35.18-17.23 53.29-27.16-3.58-1.14-5.73 0-7.8.73-23.14 8.04-46.26 16.15-69.37 24.3-1.51.53-2.52.6-3.3-.97-1.41-2.84-2.8-1.82-3.44.34-.77 2.58-2.37 3.78-4.76 4.66-3.43 1.27-4.35 4.18-4.1 7.59-1.52-5.85-1.06-11.71-.02-17.56.98 1.15.74 2.3.46 2.84.51-4.36 1.6-9.3 2.7-14.25.45-2.06-.39-3.76-1.48-5.4 1.96-2.67 4.55-4.12 7.87-4.51 21.41-2.53 42.81-5.1 64.22-7.67 10.9-1.31 21.8-2.68 32.7-4.02 1.24.26 1.57 1.12 1.64 2.28 1.47 25.37 4.05 50.61 8.24 75.68.05.28-.04.59-.06.89Z" style="strokeWidth:0;fill:#786a4a"/><path d="M1096.55 1532.78c6.54 11.34 17.7 17.78 27.3 25.89 1.57 1.32 2.85 2.98 4.27 4.49-18.45 11.51-37.59 21.73-57.2 31.11-10.48-7.54-18.63-17.29-26.24-27.57.19-1.94 1.85-2.51 3.17-3.41 8.58-5.81 18.08-10.09 26.52-16.13 5.17-3.7 10.33-7.42 15.54-11.08 2.03-1.43 3.97-3.13 6.64-3.3" style="strokeWidth:0;fill:#4a6c25"/><path d="M391.83 1367.34c-8.98-5.45-16.57.45-24.32 3.31-20.39 7.51-40.61 15.48-60.96 23.12-1.91.72-3.16 2-4.64 3.13 4.56-12.43 9.1-24.86 13.67-37.28 3.64-9.88 7.77-19.59 10.82-29.68 10.72 4.89 21.12 10.41 31.01 16.78 11.26 7.24 22.85 13.92 34.42 20.63Z" style="strokeWidth:0;fill:#5d5239"/><path d="M1044.87 1566.84c3.59 2.89 7.11 5.82 9.21 10.1 2.32 4.72 6.74 7.38 10.64 10.55 2.39 1.95 5.05 3.69 6.2 6.78-21.98 10.38-44.16 20.28-66.97 28.72-1.79.66-3.62 1.24-5.43 1.85-1.17-4.24-5.35-5.58-8.17-8.15-2.34-2.13-4.8-4.17-7.14-6.33.17-2.55 2.24-3.72 3.86-5.16 16.38-14.58 35.25-25.55 53.71-37.13 1.23-.77 2.44-1.77 4.09-1.24Z" class="cls-30"/><path d="M665.89 1603.56c-12.87 4.96-25.74 9.94-38.62 14.89-2.54.98-3.25 2.21-2.85 5.36 1.06 8.32 4.82 15.8 6.58 23.85-3.54-3.38-3.57-8.32-5.23-12.49-1.77-4.45-1.94-9.54-2.8-14.36-3.14-18.24-7.03-36.33-10.6-54.49-.52-2.64-.06-4.36 2.28-5.49 5.08-2.46 10.41-4.27 15.73-6.11 1.16-.4 2.34-.35 3.34.54 3.39 9.25 8.68 17.37 14.76 25.05 5.86 7.38 11.55 14.89 17.32 22.35.34.17.46.37.37.58q-.135.33-.3.33Z" style="strokeWidth:0;fill:#403926"/><path d="M379.84 1555.51c-.5-2.18-2.64-2.66-4.03-3.91-.94-.85-2.83-.98-2.69-2.64.14-1.68 1.64-2.21 3.1-2.75 7.75-2.92 15.47-5.93 23.2-8.9 20.99-8.06 41.97-16.14 62.97-24.15 2.77-1.05 5.48-2.76 8.7-1.72-2.67 4.46-7.32 6.84-11.01 10.2-2.26 2.06-4.59 4.07-6.75 6.25-9.01 8.62-19.12 15.93-28.56 24.05-4.5 3.87-9.09 7.65-13.7 11.4-5.38 4.38-9.45 4.35-15.43.74-3.88-2.34-8.8-2.62-12.32-5.85-1.08-.99-2.31-1.82-3.47-2.72Zm234.28-80.7c-.02.26-.02.53-.02.79 1.05 3.54-.2 7.27.91 10.8l-.02-.03c.36 4.07 1.22 8.08 1.33 12.18-1.82 3.32-5.49 3.23-8.4 4.4-5.57 2.24-5.74 2.31-4.63 8.12 2.57 13.45 5.16 26.9 7.85 40.33.45 2.27 1.36 4.68-.68 6.74-3.72-14.39-5.95-29.09-9.07-43.6-1.34-6.25-2.49-12.53-3.71-18.81-.32-1.64-.56-3.23-2.65-3.61-12.73-2.29-23.84-9.02-35.88-13.21-6.15-2.14-12.68-3.3-18.34-6.77-.4-.52-1.35-.78-.82-1.74 22.26-2.61 44.34-6.24 65.97-12.26 2.08-.58 4.26-.85 6.39-1.26 1.17 1.96-.3 4.3.9 6.26v-.02c1.28 3.82-.41 7.86.89 11.68Z" style="strokeWidth:0;fill:#4a412d"/><path d="M610.45 1558.15c.21-7.78-2.53-15.08-3.72-22.64-1.44-9.16-3.18-18.3-5.35-27.31-.79-3.28.4-4.32 2.85-5.2 3.89-1.39 7.79-2.73 11.69-4.08 1.68 1.87 1.61 4.01.94 6.23 3.84 14.76 10.44 28.54 15.17 42.99.72 2.05.98 4.24 1.76 6.28-.01.28-.03.57-.06.85-6.71 1.38-12.84 4.34-19.12 6.91-1.9.78-1.96 1.92-1.57 3.87 3.29 16.33 6.35 32.7 9.6 49.04.38 1.94.41 3.81.34 5.73-3.4-13.05-5.52-26.36-8.2-39.56-1.56-7.67-3.59-15.27-4.32-23.11Z" style="strokeWidth:0;fill:#453d29"/><path d="M1474.83 750.32c-1.57-1.12-2.8-.61-4.38.36-11.19 6.81-22.47 13.47-33.73 20.16-2.07 1.23-3.74 1.65-2.88-1.83 4.48-8.41 7.62-17.28 9.21-26.69.16-.97.94-1.83 1.43-2.74 6.36-4.27 12.5-8.85 18.98-12.94 1.52-.96 2.98-2.66 5.14-1.32 2.01 7.75 4.02 15.51 6.01 23.26.15.56.15 1.16.23 1.75Z" style="strokeWidth:0;fill:#6aa23f"/><path d="M1468.6 725.32c-5.71 2.24-10.26 6.32-15.33 9.58-2.78 1.79-5.02 4.72-8.79 4.68 1.25-6.97 2.25-14 3.8-20.91 2.95-13.11 3.83-26.36 3.46-39.75-.04-1.59-.49-3.3.89-4.64 5.91 14.35 10 29.3 14.25 44.19.64 2.26 1.15 4.56 1.73 6.85Z" style="strokeWidth:0;fill:#6da343"/><path d="M697.23 293.34c-4.53 12.63-9.07 25.25-13.58 37.89-.59 1.66-1.06 3.36-1.58 5.05-1.36 2.48-2.29 5.11-2.74 7.9-.9 5.16-.87 4.81-6.54 4.35-9.2-.75-18.31.53-27.4 1.97-13.24 2.11-26.16 5.75-39.37 8l-.26-.09-.27.05-1.39-1.48c15.04-3.2 30.08-6.44 45.14-9.59 8.2-1.72 16.51-1.87 24.78-.74 2.4.33 3.17-.48 3.78-2.5 2.25-7.37 4.51-14.74 6.96-22.04 3.03-9 5.99-18.04 10.47-26.47.5-.93.95-1.86 2-2.29Z" style="strokeWidth:0;fill:#e2e1de"/><path d="M1525.89 366.5c-5.37-12.17-11.14-23.97-14.45-36.74 6.81 11.52 11.39 23.93 14.45 36.74" class="cls-100"/><path d="M496.27 1492.03c4.07-6.15 10.52-9.72 15.86-14.48 1.4-1.25 3.07-2.18 4.06-4.43-3.71-.23-7.18-.46-10.6-.86s-4.02-1.73-3.2-4.59c4.15 4.97 9.88 3.56 15.15 3.59 3.27.02 1.98 1.28 1.11 2.68-7.46 6.03-14.92 12.07-22.37 18.1Z" class="cls-23"/><path d="M4.23 793.21c2.78-.19 3.07 1.57 2.91 3.71-.45 5.87-2.75 11.28-4.28 16.95-.1-1.28-.21-2.57-.31-3.85.32-5.63-.44-11.36 1.68-16.8Z" class="cls-90"/><path d="M453.33 1527.89c2.11-4.73 6.96-6.7 10.31-10.2 2.23-2.33 4.95-4.19 7.45-6.25 1.28-.51 2.11-2.08 3.8-1.61-6.83 6.44-14.17 12.28-21.56 18.06" class="cls-23"/><path d="M383.64 454.37c1.31 3.22 1.26 5.89-1.78 8.46-3.8 3.21-7.12 6.99-10.68 10.5-1.12 1.1-2.05 2.6-3.98 2.39 4.37-4.42 8.64-8.95 13.17-13.2 2.46-2.31 3.96-4.71 3.26-8.14Z" class="cls-82"/><path d="M292.3 490.11c-2.48 1.75-4.33-.22-6.27-1.2-.3-.15.7-.53 1.17-.69 1.36 1.54 3.76.28 5.1 1.89" class="cls-83"/><path d="M474.8 1509.9c1.2-2.25 2.47-4.43 5.46-4.54-1.46 1.95-3.35 3.38-5.46 4.54" class="cls-23"/><path d="M480.17 1505.43c1.2-2.26 2.47-4.44 5.46-4.54-1.46 1.95-3.35 3.37-5.46 4.54m10.73-8.93c1.19-2.27 2.45-4.45 5.46-4.54-1.46 1.95-3.36 3.36-5.46 4.54" class="cls-23"/><path d="M485.53 1500.96c1.2-2.26 2.46-4.45 5.46-4.53-1.47 1.94-3.35 3.37-5.46 4.53" class="cls-23"/><path d="M1525.96 366.6c1.61 1.12 2.09 2.2 1.46 3.8-1.42-.95-1.48-2.32-1.46-3.8" class="cls-100"/><path d="M1491.98 871.09c.03-2.17.05-4.34.08-6.51.91 2.1.75 4.32.66 6.52h-.74Zm-.15-11.66c-1.44-2.04-.51-4.32-.66-6.5.93 2.09.75 4.3.66 6.5" class="cls-103"/><path d="M539.98 1470.41c.27.58.55 1.16.82 1.74l-3.64-.93c.66-1.26 1.77-.93 2.82-.81" style="strokeWidth:0;fill:#695e48"/><path d="M1490.94 847.81c-1.37-1.73-.55-3.72-.66-5.61.99 1.78.74 3.7.66 5.61" class="cls-103"/><path d="M326.8 1519.61c2.13-.15 3.3.97 3.84 2.91z" class="cls-17"/><path d="M1.63 904.9v1.31c-.28.5-.45 1.12-.85 1.46-.47.39-.63-.15-.72-.55-.29-1.32.61-1.8 1.58-2.22Z" style="strokeWidth:0;fill:#9c937f"/><path d="M1044.87 1566.84c-21.37 13.35-43.33 25.87-61.66 43.53-3.65 2.19-6.97 4.8-9.82 7.97-.96 1.35-2.21 2.34-3.72 3-11.79 11.14-25.74 14.08-41.59 12.23-17.13-2-34.42-2.53-51.59-4.23-21.89-2.17-43.79-4.46-65.2-9.8-8.41-2.1-16.12-6.09-24.06-9.47-.67-.29-1.37-.69-1.85-1.22-8.63-9.77-17.19-19.08-23.26-31.32-19.86-40.08-43.58-77.9-76.08-109.23-9.43-9.1-16.84-19.1-22.12-30.91-.46-1.03-.77-2.38-2.42-2.09.95-1.27.46-2.43-.11-3.72-6.73-15.13-11.24-30.85-12.44-47.43-.08-1.15-.24-2.66-.98-3.33-6.07-5.54-4.13-13.17-5.1-19.89-1.47-10.22-2.01-20.58-2.98-30.88-.04-.38-.48-.72-.73-1.07-1-4.52-1.18-9.16-1.29-13.72-.49-20.1-1.86-40.21-.96-60.31 1.33-29.74 1.98-59.51 5.04-89.16 1.12-10.81 1.88-21.66 2.79-32.49.18-2.07 1.25-3.99.85-6.11 2.33-3.85 1.88-8.29 2.41-12.47 1.65-13.19 2.96-26.43 4.38-39.66.98-9.12 1.58-18.29 2.94-27.34 1.99-13.3 1.46-26.65 1.79-40 .3-12.22.93-24.44 1.8-36.64.55-7.66 2.26-15.2 2.8-22.89.52-7.51 1.85-14.96 2.41-22.47a352 352 0 0 1 7.7-51.28c1.79-7.93 3.24-15.93 4.85-23.91-.14-1.84.54-3.58.61-5.39 3.52-16.01 7.35-31.94 11.99-47.66 2.41-8.15 3.98-16.51 6.24-24.69.59-2.14.97-4.54 4.01-4.54 8.9 2.89 15.98 8.56 22.12 15.3 12.54 13.77 24.02 28.45 34.88 43.55 6.33 8.79 11.27 18.56 13.86 29.29 1.65 6.84 4.29 13.3 7.81 19.41 1.27 2.21 3.03 3.41 5.4 4.3 15.98 6.03 32.26 5.86 48.83 3.12 15.15-2.5 30.09-5.68 44.86-9.96 7.9-2.29 20.19-14.71 20.44-24.38.15-5.64-2.1-10.77-3.46-16.07-1.77-6.94-4.5-13.6-7.39-20.11-5.79-13.05-6.41-26.84-6.54-40.7-.05-4.74-.67-9.53.22-14.27.86-2.17.26-4.57 1.03-6.76.19-.43.49-.77.88-1.03 2.42-.92 4.31.54 6.27 1.5 15.09 7.33 29.79 15.44 45.09 22.35 10.93 4.75 21.55 10.16 32.43 15.01 16.46 7.33 33.9 11.14 51.4 14.83 9.03 1.9 18.23 2.75 27.27 4.59.74.06 1.46.19 2.18.36 2.68.87 5.52.25 8.23.81 15.12.95 30.18 2.96 45.39 2.25 2.31-.11 4.82-.48 6.76 1.44-2.15 12.36-4.53 24.67-11.41 35.48-6.14 9.66-12.63 19.08-18.33 29.03-2.73 4.76-4.95 9.65-4.74 14.95.2 4.92 2.42 9.7 5.04 13.87 2.58 4.11 5.84 7.88 10.38 10.22 20.13 10.36 41.04 18.7 62.97 24.41 12.14 3.16 24.46 2.97 36.72 1.24 4.11-.58 6.07-4.97 8.61-7.94 2.49-2.91 4.74-6.19 6.34-9.66 4.29-9.29 10.72-17.1 16.78-25.15 4.42-5.87 10.79-9.76 16.32-14.49 11.09-9.47 22.6-18.42 34.55-26.81 5.32-3.73 11.23-6.2 17.3-8.14 4.4-1.41 8.56-3.3 12.84-4.95 2.65-.07 2.69 1.92 2.58 3.63-.28 4.53.77 8.99.15 13.58-.55 4.04-.11 8.22-.11 12.34-1.44 20.78-5.53 41.21-7.93 61.87-2.34 20.07-5.03 40.08-8.16 60.05-4.04 25.68-8.13 51.35-12.81 76.93-7.13 38.89-15.35 77.55-24.09 116.1-3.35 14.79-7.24 29.45-10.84 44.18-.39 1.57-.51 3.21-.75 4.82-2.84 14.43-7.45 28.4-11.23 42.58-7.36 27.6-15.64 54.93-24.31 82.15-1.52 4.78-3.4 9.49-4.18 14.5-3.08 8.22-5.56 16.65-8.75 24.83-.43 1.09-.82 2.18-1.4 3.2l-7.44 15.15c-6.29 11.04-12.6 22.07-18.87 33.13-3.94 6.95-8.82 13.34-12.26 20.58a207 207 0 0 1-36.65 43.31c-5.62 5.05-11.48 9.82-17.23 14.72-15.49 11.59-31.72 22.06-48.49 31.69-1.14.65-2.13 1.57-3.19 2.36Z" style="strokeWidth:0;fill:#e6d099"/><path d="M168.09 1006.95c-.92-1.75-1.83-3.5-2.75-5.26-.1-2.69-2.62-4.73-2.06-7.61.27-8.15-.49-16.34 1.42-24.43.87-3.71 2.35-6.91 4.62-9.99 12.52-16.98 30.07-27.63 47.63-38.28 3.43-2.08 6.96-4 10.46-5.98 3.62-2.05 7.28-4.04 11.46-4.77 3.57 1.21 1.03 2.64 0 3.72-3.47 3.67-7.54 6.67-11 10.43-6.55 7.13-11.41 15.22-15.47 23.89-7.23 15.42-13.73 31.06-15.98 48.14-.52 3.96-.34 7.77 1.51 11.32 2.2 4.22 6.1 4.73 9.53 1.43 3.29-3.17 4.22-8.71 1.69-13.23-1.61-2.88-1.69-5.48-.77-8.51 3.86-12.74 8.65-25.12 15.48-36.53 10.59-17.71 26.51-29.1 45.39-36.62 13.13-5.23 26.85-8.16 40.96-8.03 22.95.21 44.43 6.02 63.82 18.69 1.83 1.19 3.69 2.97 6.1 1.7 2.68-1.42 3.36-4.17 3.38-6.88.03-4.26-1.56-7.88-5.3-10.24-15.57-9.81-32.22-16.69-50.64-18.87-12.34-1.46-24.64-1.28-36.94.46-1.84.26-3.94.95-4.98-1.55.39-2.4 2.52-2.75 4.24-3.45 19.86-8.01 39.84-15.7 59.98-22.98 38.75-14.02 78.13-26.08 117.5-38.17 7.36-2.26 14.6-5.09 22.29-6.2 4.34 1.57 1.39 3.52-.04 4.68-6.43 5.21-11.62 11.51-16.56 18.06-12.83 16.99-21.39 36.03-26.97 56.49-.79 2.9-1.06 5.9-.05 8.81.61 1.75 1.74 3.21 3.77 3.38 1.93.16 2.92-1.24 3.72-2.73 1.15-2.11 1.82-4.4 2.5-6.69 6.56-22.07 16.99-42.01 33.56-58.19 20.24-19.77 44.61-28.38 72.92-25.24 15.29 1.69 29.49 6.91 43.4 13.17 5.95 2.68 7.63 2.46 9.39-.49 2.4-4.04 1.26-10.74-2.29-13.48-.83-.64-1.77-1.09-2.72-1.52-13.31-6.02-26.71-11.75-41.32-13.99-2.17-.33-4.93.03-6.16-2.71.24-1.7 1.68-1.93 2.92-2.34 9.35-3.07 18.86-5.53 28.64-6.79 3.44-.45 6.74.03 10.02 1.44 7.98 3.43 15.73 7.12 21.66 13.79 1.79 2.02 3.74 3.96 4.72 6.46 1.59 4.04 4.39 6.59 8.4 7.96 5.67 11.07 8.24 23.2 11.72 35 2.55 8.67 5.66 17.21 7.09 26.19 2.05 12.83.8 25.41-2.15 37.97-1.62 6.9-2.12 14.11-6.87 19.93-1.14 1.4-2.26 2.72-3.86 3.62-10.83 6.1-21.65 12.11-33.09 17.15-16.45 7.26-32.69 14.98-49.63 21.04-18.16 6.49-36.09 13.68-54.9 18.23-7.19 1.74-14.01.25-20.25-3.04-9.4-4.97-18.31-10.31-25.87-18.49-8.45-9.14-15.01-19.41-22.22-29.33-3.58-4.92-7.05-9.92-10.73-14.76-2.03-2.67-4.83-4-8.3-3.49-.39.23-.77.22-1.13-.05-1.07-1.25-1.27-3.01-2.91-4.7-1.59 3.05-3.7 5.58-5.95 7.98-1.74 1.85.27 3.24.7 4.82.12.66.03 1.27-.47 1.76-3.28 3.42-3 7.83-2.91 11.97.14 6.48 2.04 12.82 2 19.35-.04 5.44-.44 10.83-1.69 16.14-2.02-2.25-1.53-5.32-2.57-7.94-7.26-18.29-20.77-30.83-36.8-41.32-5.5-3.6-11.33-4.79-17.69-5.09-9.81-.46-19.53-1.95-29.27-3.12-11.89-1.43-23.77-2.48-35.17 2.5-11.5 5.03-22.41 11.22-32.41 18.76-5.96 4.49-9.38 11.4-11.4 18.34-5.62 19.32-7.97 39.05-5.2 59.19 1.91 13.89 13.4 20.66 26.51 15.58 2.68-1.04 4.27-2.94 5.67-5.37 6.32-10.96 12.51-22 19.92-32.29 1.94-2.69 4.25-5.03 7.03-6.8 8.29-5.27 16.7-10.32 26.06-13.52 2.14-.73 4.31-1.15 6.58-1.01 15.58.93 31.2 1.4 46.56 4.54 5.15 1.05 10.04 2.96 14.74 5.12 5.7 2.62 9.89.55 13.79-3.76 1.04-1.15 1.46-3.07 3.54-3-.23 13.42-2.59 25.92-13.83 35.07-4.02 3.27-7.46 7.23-11.31 10.75-8.13 7.42-18.61 9.65-28.33 13.57-14.46 5.83-28.81 11.96-43.47 17.25-17.73 6.4-35.95 11.06-54.66 13.88a232 232 0 0 1-39.03 2.57c-1.15-.02-2.42-.33-3.29.82l-.97-.88c-4.59-5.2-7.12-11.66-10.33-17.65-8.45-15.74-17.66-30.98-28.18-45.42-2.35-3.23-4.66-6.53-6.09-10.32Z" style="strokeWidth:0;fill:#a9a197"/><path d="M645.6 1127.18c1.8 1.26.79 3.04.66 4.51-3.06 34.98-6.11 69.95-7.19 105.07-.88 28.57-.95 57.13.72 85.67.13 2.19.66 4.46-.63 6.53-10.41 7.44-21.2 14.26-32.13 20.93-12.39 7.57-25.87 10.8-39.89 13.15-19.77 3.31-39.51.25-59.26.48-9.42.11-17.71-3.77-25.95-7.33-29.98-12.96-57.07-30.58-82.18-51.47-10.92-9.09-19.87-19.56-27.37-31.49-3.41-5.42-5.26-11.31-5.66-17.54-.47-7.32 6.65-14.01 15.26-14.23 9.36-.23 18.83-.08 27.47 4.28 8.25 4.17 16.32.57 24.46-.12 26.97-2.28 50.53-14.27 73.89-26.5 11.72-6.13 24-10.92 35.93-16.52 22.98-10.8 44.42-24.15 65.51-38.11 5.83-3.85 10.69-8.87 15.24-14.31 5.9-7.07 12.58-13.5 18.9-20.22.81-.86 1.47-1.84 2.2-2.77Z" style="strokeWidth:0;fill:#26211a"/><path d="M639.15 819.21c-3.31.93-6.11-.51-7.22-3.23-4.48-10.95-13.66-16.54-23.25-22.17-8.1-4.76-16.06-2.84-24.19-1.36-7.32 1.33-14.37 3.68-21.4 6.1-1.16 1.55-2.94 1.96-4.63 2.49-20.17 6.33-40.67 11.56-60.84 17.92-2.59.82-5.26.65-7.87 1.06-21.48 6.53-43 12.95-64.45 19.62-46.06 14.31-91.56 30.2-136.19 48.51-1.09.45-2.13 1.04-3.19 1.56-3.74 3.39-8.58 4.66-13.03 6.59-8.47 3.68-16.83 7.55-25.08 11.67-2.9 1.44-5.94 2.62-9.11 3.37-17.84 8.27-34.42 18.55-50.1 30.45-7.45 5.65-13.39 12.47-19.22 19.58-3.02 3.69-3.41 8.12-4.17 12.49-1.06 6.03-1.51 12.08-.38 18.16.22 1.19.71 2.45-1.26 2.52-1.88-.03-2.65-1.46-3.53-2.76-2.91-5.32-5.13-10.86-5.33-17.03-2.49-21.74 8.85-36.88 24.07-50.06 18.52-16.04 39.88-27.54 61.74-38.23 51.24-25.08 104.83-44.12 158.93-61.81 58.75-19.22 118.27-35.9 177.46-53.64 6.15-1.84 12.55-2.5 18.91-3.27.87-.1 1.88-.17 2.64.17 10.81 4.95 21.9 9.55 28.48 21.08 5.66-4.61 11.92-8.14 16.69-13.61.53-.62.97-1.32 1.64-1.81 8.95-7.8 18.88-14.36 28-21.94 5.51.76 9.33 4.54 13.48 7.67 2.04 1.54-.09 3.53-.03 5.32-1.08 3.92-4.1 6.57-6.72 9.27-8.07 8.32-16.21 16.56-24.04 25.11-1.84.96-3.08 2.6-4.52 4.01-4.76 4.89-8.39 10.64-12.28 16.19Z" class="cls-55"/><path d="M407.59 987.31c-.98 1.48-1.83 3.07-2.96 4.42-3.85 4.62-8.6 5.83-14.14 3.53-15.05-6.24-30.94-8.02-46.99-8.89-4.59-.25-9.18.27-13.78-.65-4.43-.89-8.84.82-12.43 2.87-6.93 3.95-14.52 6.72-20.89 11.74-4.06 3.2-7.46 6.97-9.92 11.34-5.47 9.72-12.17 18.71-16.92 28.87-1.9 4.06-11.62 6.92-17.79 5.6-8.96-1.91-14.44-8.55-15.76-17.64-2.75-18.97-.54-37.54 3.96-55.93 3.13-12.79 9.88-23.04 21.92-29.4 6.7-3.55 13.08-7.68 19.92-11.03 9.93-4.86 20.26-6.27 31.22-5 15.2 1.76 30.44 3.11 45.67 4.57 6.81.65 11.52 5.34 16.67 8.9 11.52 7.94 21.11 17.92 27.69 30.38 2.51 4.76 5.41 9.66 4.65 15.52-.08.26-.12.53-.11.81Z" class="cls-29"/><path d="M493.58 1142.09c-15.07-.25-29.68-2.73-42.34-11.43-10.13-6.96-17.02-16.48-18.74-29.06-.23-1.71-.01-3.58.41-5.27.6-2.44 2.14-4.5 4.73-4.83 2.63-.33 4.06 1.75 4.76 3.93 5.83 18.06 20.53 24.07 37.16 26.78 19.56 3.19 38.53.2 56.4-8.26 10.1-4.78 18.86-11.36 22.42-22.86.73-2.36 2.55-4.48 5.21-4.06 3.12.49 4.58 3.07 4.94 6.14.87 7.59-2.26 13.98-6.41 19.89-9.2 13.05-22.58 19.94-37.38 24.32-10.11 2.99-20.47 5-31.14 4.71Z" style="strokeWidth:0;fill:#b6a28c"/><path d="M410.3 939.04c0-.59-.01-1.17-.02-1.76-1.57-2.65-.61-4.83 1.42-6.65 2.17-1.95 4.58-3.25 7.52-1.42l.85.03c9.53 18.67 19.35 37.21 25.59 57.35 4.73 15.29 7.71 30.83 6.74 46.92-.55 9.13-2.77 17.89-6.47 26.25-.93 2.1-2.43 4.07-4.92 3.95-2.5-.12-3.61-2.27-4.55-4.4-1.51-3.39-1.22-6.85.23-9.97 7.74-16.69 4.9-33.32.16-50.01-6.06-21.33-16.55-40.69-26.54-60.29Zm-145.69 317.31c.1-15.1 4.99-26.78 9.58-38.54 1.08-2.76 2.35-5.46 3.61-8.14.97-2.06 2.68-3.32 4.97-3.09 2.1.21 3.34 1.84 4.08 3.71 1.43 3.6 1.51 7.27.12 10.88-2.45 6.38-5.22 12.64-7.49 19.08-5.73 16.25-3.27 23.56 11.01 33.28 2.94 2 6.13 3.64 9.16 5.52 5.65 3.51 7.71 10.01 5.04 15.87-1.53 3.36-4.29 5.01-7.59 3.21-12.63-6.9-24.61-14.57-29.89-29.1-1.75-4.81-2.74-9.7-2.59-12.68Z" style="strokeWidth:0;fill:#a59079"/><path d="M651.43 803.01c.81-1.85 2.19-3.23 3.73-4.47 2.87-.18 3.17 2.27 3.94 4.05 5.53 12.82 11.08 25.63 16.52 38.49.75 1.76 1.37 3.62 2.85 4.98-.35 1.59-.55 3.23-1.78 4.47-3.46-6.04-5.85-12.57-8.57-18.94-4.36-10.19-8.77-20.37-13.2-30.62-1.25.73-2.36 1.39-3.48 2.04Z" style="strokeWidth:0;fill:#d1c1ae"/><path d="M459.36 1416.67c-.43-.11-.92-.12-1.27-.35-3.38-2.24-5.16-6.67-10.91-5.41-4.66 1.02-3.57-1.98-1.35-4.35.4-.43.72-.93 1.08-1.4 4.73 3.21 8.72 7.21 12.45 11.5Z" class="cls-50"/><path d="M613.23 1463.16c-1.65-1.89-.62-4.17-.9-6.26.71-.87 1.65-1.01 2.68-.85-2.67 1.85-1.54 4.65-1.79 7.11Z" class="cls-6"/><path d="M1090.7 638.35c1.91 4.45 3.06 9.06 3.15 13.94.14 7.69 2.61 14.99 3.84 22.49.21 1.3.11 2.65.16 3.98-3.2 3.74-5.85 4.6-9.57 2.48-4.06-2.31-7.98-4.07-12.45-1.13-.48.32-1.26.53-1.72.27-4.89-2.79-10.94-1.14-15.74-4.12-2.41-1.5-4.75-1.69-7.09-.09-4.11 2.81-7.9 2.27-11.22-1.18-2.97-3.09-5.59-2.35-8.55 0-5.19 4.11-5.29 4.09-10.93.5-2.43-1.54-4.84-1.62-7.12-.11-6.4 4.24-12.14 3.75-17.34-2.02-.49-.54-1.23-.84-1.77-1.35-5.75-5.48-12.89-6.02-20.25-5.63-4.14.22-7.92-.53-11.14-3.32-.64-1.6-.35-3.22-.05-4.82 1.67-8.9 3.21-17.8 3.01-26.91-.03-1.48.07-2.98 1.08-4.22 2.15-1.16 3.68.37 5.26 1.34 1.9 1.17 3.56 2.7 5.45 3.9 2.74 1.73 5.71 2.13 8.41.24 3.19-2.24 5.86-1.73 9.02.16 3.89 2.33 8.1 4.01 12.46.63.94-.73 2.37-1.21 3.39-.59 5.33 3.26 12.33 2.28 17.09 7.04 2.45 2.45 5.41 3.46 8.97 1.79 2.33-1.1 4.79-.4 6.73 1.17 3.88 3.13 7.59 2.97 11.32-.11 3.26-2.68 6.61-3.04 10.29-.78 1.93 1.19 4.22 1.41 6.44 1.67 1.64.19 3.36.3 4.63 1.43 3.51 3.14 7.31 1.51 11.03.78 1.65-.33 2.5-1.47 2.35-3.27-.12-1.45-.58-3 .84-4.15Z" class="cls-89"/><path d="M1157.48 594.06c-6.14-2.59-11.78-6.19-18.34-7.94-12.17-3.25-22.82-.89-32.42 7.2-4.38 3.7-7.6 8.27-10.77 12.93-2.63 3.86-1.82 8.59-3.36 12.71-4.09 2-8.24 3.49-12.79 1.41-1.44-.66-2.87-.67-4.29.12-4.46 2.48-8.52 1.19-11.9-1.93-3.81-3.52-7.31-4.47-11.8-1.11-2.58 1.93-5.7 1.69-8.21-.68-3.36-3.17-6.95-3.5-11.07-1.55-4.66 2.21-9.29 3.22-13.61-1.02-1.41-1.38-3.57-1.44-5.47-1.71-3.3-.47-6.38-1.32-9.03-3.48-2.08-1.7-4.59-1.8-6.69-.39-5.44 3.66-9.85 1.3-14.21-1.98-1.19-.89-2.32-1.87-3.48-2.79-2.45-1.95-4.89-2.56-7.76-.7-1.71 1.1-3.69 2.24-5.65.23-2.47-6.8-2.08-14.05-3.27-21.05-.66-3.91-1.96-7.81-1.31-11.88.81-1.77 2.34-1.52 3.83-1.33 3.14.39 6.27 1.17 8.82 2.95 4.88 3.41 10.58 5.46 15.15 9.35 2.32 1.98 4.9 2.22 7.92 1.94 5.66-.53 11.29-.26 15.97 3.81 2.56 2.23 5.42 2.39 8.19.39 3.37-2.44 6.25-1.94 9.13.9 2.46 2.43 5.28 4.25 8.96 4.51 2.97.21 5.09 2.37 7.28 4.1 3.03 2.4 6 3.06 9.32.57 3.53-2.65 6.93-2.2 10.04.79 3.18 3.05 7.62 3.99 11.04 6.65.99.77 2.32.73 3.42.14 7.99-4.25 16.08-8.57 23.42-13.68 6.72-4.67 13.07-10.16 19.58-15.28 5.85-4.6 11.86-8.98 17.84-13.4 1.52-1.12 2.93-2.61 5.12-2.32 2.7 2.2 3.14 5.56 4.26 8.53 1.3 3.44 2.26 7 3.66 10.41 1.28 3.45 2.19 7.02 3.51 10.47.53 1.38 1.81 3.4-1.04 4.13Z" style="strokeWidth:0;fill:#85ac63"/><path d="M967.27 603.68c1.23.08 2.33-.27 3.42-.83 6.12-3.17 6.69-3.07 11.9 1.42 1.12.97 2.33 1.82 3.52 2.7 3.45 2.54 6.85 3.56 10.83.72 2.93-2.09 6.05-2.04 8.84.84 2.69 2.78 6.57 2.34 9.96 3.12 1.47.34 3.21.4 4.09 1.51 3.71 4.67 8 3.03 12.01 1.05 4.73-2.33 8.74-2.32 12.49 1.71 2.98 3.2 6.28 1.63 8.73-.45 3.43-2.92 6.12-2.18 9.02.39 4.29 3.79 8.63 7.3 14.46 2.58.31-.25 1.03-.45 1.23-.28 4.75 3.93 9.87.71 14.8.8-.69 3.56-1.38 7.13-2.08 10.69-1.1 2.15.18 4.24.17 6.36 0 .78.01 1.57.02 2.35.14 7.76.12 7.64-7.82 9.55-2.59.63-4.64.6-6.39-1.54-1.03-1.26-2.41-1.48-3.97-1.59-2.64-.18-5.57-.09-7.67-1.78-3.65-2.93-6.47-1.46-9.51.89-4.73 3.66-6.81 3.58-11.8-.03-2.31-1.67-4.59-2.47-7.36-.66-1.98 1.29-4.13 1.09-6.2-.41-4.11-2.98-7.78-6.97-13.65-6.24-.75.09-1.75-.53-2.38-1.09-2.48-2.21-4.65-2.3-7.45-.18-4.6 3.48-8.78.34-12.56-1.92-2.52-1.51-4.36-2.12-6.69-.05-3.32 2.93-6.9 2.25-10.22.13-3.1-1.98-5.95-4.33-8.91-6.53-2.18-7.67-3.73-15.36-.84-23.21Z" style="strokeWidth:0;fill:#82aa60"/><path d="M963.58 663.58c5.5 2.34 11.64 2.12 17.12 1.86 9.59-.46 14.27 6.59 20.85 10.72 1.81 1.14 3.05 2.04 5.12.86 1.53-.87 3.42-1.15 4.88-2.1 4.36-2.85 8.16-2.77 11.79 1.28 1.56 1.75 3.52 2.06 5.27-.17.72-.92 1.74-1.61 2.62-2.4 3.47-3.09 6.57-3.25 9.78.61 2.61 3.14 5.8 3.77 9.37 1.03 2.89-2.22 5.92-2.45 8.89.2 1.36 1.22 3.12 1.68 4.99 1.54.59-.05 1.2-.07 1.78 0 4.92.67 9.73 3.45 14.84.11 1.42-.93 3.54.49 4.9 1.56 4.09 3.24 8.04 3.07 12.08.07 2.32 6.99 2.99 14.32 4.39 21.5.56 2.88.64 5.85.94 8.79.92 6.79-4.25 9.94-12.19 7.45-5.05-4.96-12.14-6.69-17.6-11.1-2.41-1.94-5.46-.41-8.19.12-1.44.28-3.1 1.61-4.26.9-6.68-4.1-15.3-.06-21.75-5.6-2.78-2.39-6.58-1.41-9.66.52-2.87 1.79-5.22 1.82-7.24-1.18-.67-1-1.68-1.67-2.86-2.02-6.63-2-12.33-5.75-17.86-9.74-2.58-1.86-5.04-2.56-7.79-.8-3.84 2.47-7.26 1.77-10.61-.98-5.52-4.53-11.26-8.75-17.29-12.57-2.3-1.45-4.34-3.22-4.28-6.34.22-1.59-.37-3.57 1.98-4.12Z" style="strokeWidth:0;fill:#7ca658"/><path d="M1090.6 715.47c4.07 2.22 7.73-.31 11.4-1.27 2.2-.58.7-3.4 1.18-5.14 2.75 10.49 5.08 21.05 5.24 31.95.03 2.24.33 4.37 1.03 6.48.94 2.5.38 4.28-2.3 5.24-1.54.55-2.83 1.6-4.17 2.54-.98.69-2.22 1.67-3.23 1.22-5.23-2.3-11.29.12-16.32-3.02-1.31-.82-2.78-.98-4.27-1.02-5.67-.49-11.25-1.25-15.95-4.91-1.79-1.4-3.95-1.84-5.88-.7-5.86 3.46-11.09.79-15.9-1.98-3.6-2.07-6.49-3.81-10.58-1.29-2.46 1.51-4.89-.02-6.97-1.6-2.32-1.77-4.62-3.27-7.75-2.01-1.79.72-3.15-.26-4.29-1.57-1.58-1.81-3.55-3.17-5.39-4.68-.94-.76-1.99-1.43-3.25-1.26-9.73 1.33-18.37-2.48-26.91-6.1-3.74-1.58-6.77-4.76-10.77-6.13.9-3.51 4.66-6.02 8.62-5.62 2.4.24 4.74.84 6.57 2.52 2.14 1.96 4.22 1.88 6.38.12 3.57-2.89 7.12-3.48 10.8-.09 2.34 2.16 4.78 1.41 6.82-.44 5.24-4.74 9.84-4.98 15.46 3.91 4.25 6.74 7.63 7.48 14.7 3.7 4.65-2.48 8.39-6.07 12.74-8.87 3.11-2 5.78-1.94 8.52.43.68.58 1.38 1.13 2.08 1.69 5.44 4.32 6.12 4.43 11.6.37 3.13-2.32 6.18-3.26 9.94-1.55 3.69 1.68 7.27-.12 10.85-.93Z" style="strokeWidth:0;fill:#77a253"/><path d="M1107.49 813.05c-16.47.68-32.85-.85-49.26-1.93-1.17-.08-2.4.1-3.41-.73-2.58-1.49-5.55.23-8.16-.96-.55-.02-1.1-.03-1.66-.05-1.4-.82-3.92-.21-3.97-2.72-.04-2.03 1.81-2.84 3.18-3.97 4.96-4.11 10.54-6.92 16.74-8.57 1.37-.37 2.33-1.22 3.09-2.38 1.1-1.69 2.77-2.36 4.63-1.9 3.31.81 4.61-.96 5.31-3.72 3.09-1.59 5.95-3.01 6.3-7.39.21-2.62 3.13-3.02 5.38-1.76 2.49 1.39 5.2 2.15 7.78 3.25 3.14 1.34 6.02 1.89 9.42.73 3.39-1.16 6.25 1.2 9.2 2.5-.32 10.06-1.65 19.96-4.57 29.61Z" style="strokeWidth:0;fill:#719e4c"/><path d="M1112.07 783.44c-4.94-1.04-10-.44-14.86-.8-3.81-.28-8.57-1.73-12.11-4.82-1.69-1.47-4.3-.77-4.15 1.8.29 4.95-1.67 6.94-6.44 6.51-3.74-1.21-7.16-.73-10.39 1.62-1.65 1.2-3.62 1.48-5.42.27-6.5-4.36-12.36-9.56-18.58-14.29-.6-.45-.84-1.19-.67-1.99 3.61-2.61 7.9-3.9 11.75-6.06 2.65-1.49 5.12.23 7.38 1.74 6.48 4.34 8.01 4.16 13.03-1.64 1.07-1.24 2.38-2.23 3.42-3.49 2.37-2.86 6.65-5.1 3.36-9.92-.17-.25.27-.8.59-1.12 2.06-.03 4.14-.25 5.69 1.62 1.31 1.58 3.58 1.59 4.93 1.24 3.24-.86 5.92-.31 8.66 1.32.9.54 2.06.45 2.94-.22 2.21-1.68 4.25-3.52 7.1-4.24 1.66-.42.85-2.26 1.14-3.47 1.22 1.61 1.52 3.62 1.54 5.45.1 10.18 1.59 20.31 1.08 30.5Z" style="strokeWidth:0;fill:#73a04f"/><path d="M1157.48 594.06c1.8-1.34.4-2.9-.09-3.97-1.55-3.4-2.4-6.98-3.34-10.55 5.9-5.19 11.84-10.33 19.66-12.51 5.65 11.85 10.75 23.93 15.5 36.16.43 1.09.89 2.26 2.39 2.28l-.18.88c-5.17.76-9.65 3.07-13.8 6.14-1.24.92-2.68 1.25-4.1.23-4.84-6.66-10.77-12.37-16.03-18.66Z" style="strokeWidth:0;fill:#679241"/><path d="M1299.69 631.5c4.6-2.59 9.82-4.44 11.81-10.09 1.17 1.6.61 3.45.71 5.2 1.2 21.79 1.75 43.61 3.93 65.33.27 2.7-.22 4.6-2.68 5.26-2.69.72-3.33-1.38-3.98-3.59-3.83-12.87-6.28-25.93-6.15-39.42.08-7.75-1.86-15.22-3.63-22.69Z" class="cls-11"/><path d="M1188.99 643.84c1.19 8.15 2.34 16.31 3.57 24.45.9 5.98 2.03 11.93 2.78 17.93 1.18 9.38 2.26 18.78 3.05 28.19.19 2.21-2.17 1.98-3.97 2.31-2.8.51-3.46-.85-3.65-3-.39-4.43-.43-8.9-.56-13.32-.38-12.61-3.38-24.83-5.15-37.21-.82-5.75-1.36-11.64-2.8-17.33-.2-.77-.24-1.45.35-2.05 2.55.81 1.69 4.39 4.25 5.32 1.63-1.47-.63-4.43 2.14-5.31Z" style="strokeWidth:0;fill:#5e8937"/><path d="M1188.99 643.84c-1.03 1.35-.43 2.72-.16 4.15.2 1.08.41 2.44-1.13 2.91-1.39.42-2-.61-2.84-1.48-1.56-1.6-1.03-3.94-2.25-5.6-2.25-9.83-2.7-20.18-8.51-28.97-.39-.58-.4-1.42-.58-2.13 2.77.1 4.56-1.84 6.59-3.24 3.43-2.36 6.83-4.67 11.31-3.13-2.73 10.57-4.19 21.23-2.45 32.15.28 1.73.03 3.55.03 5.33Z" style="strokeWidth:0;fill:#628e3b"/><path d="M1404.35 804.09c-5.03 4.77-11.55 6.97-17.57 9.94-12.19 6.03-25.24 9.93-37.98 14.6-.81.3-1.73.27-2.6.39 6.22-3.91 13.45-5.24 20.19-7.81 11.5-4.38 22.64-9.51 33.47-15.33 1.41-.76 2.99-1.21 4.49-1.8Z" class="cls-103"/><path d="M1297.94 624.23c1.46 2.2 1.93 4.65 1.79 7.25-1.36-2.23-2.05-4.62-1.79-7.25" class="cls-11"/><path d="M1090.68 636.01c-.98-2.1-1.73-4.2-.17-6.36-.13 2.13 1.11 4.21.17 6.36" class="cls-89"/><path d="M1421.36 789.71c-.15 1.85-1.23 2.93-2.92 3.5.49-1.57 1.55-2.66 2.92-3.5" class="cls-103"/><path d="M685.74 764.81c1.99-4.66-1.05-6.51-4.52-8.21-2.72-1.34-4.77-3.89-7.94-4.44-5.43-2.03-10.46-4.89-15.05-8.35-8.65-6.53-18.23-11.57-27.19-17.6-3.45-2.32-6.61-4.97-9.96-7.39-4.16-4.1-9.2-7.19-13.2-11.47-14.33-10.89-19-26.89-23.6-43.22-3.44-12.24-5.02-24.69-6.48-37.2-.44-3.77.43-7.7.7-11.55-.71-10.47 1.36-20.61 3.64-30.74 3.49-15.52 4.88-31.43 9.08-46.84 2.35-8.61 5.82-16.88 7.61-25.64 6.44-16.32 12.33-33.1 24.68-46.08 6.82-7.17 14.9-13.23 23.59-18.17 3.79-2.15 8.31-2.56 12.59-2.62 17.15-.23 33.89 1.53 48.58 11.69 7.38 5.43 13.39 11.88 16.81 20.64 1.81 4.64 5.24 8.59 6.25 13.64 1.47 12.28 1.89 24.62 1.05 36.93-.53 7.73-3.2 15.12-5.14 22.59-5.12 19.72-9.63 39.6-15.5 59.13-.52 1.72-2.02 4.26.27 5.2 2.68 1.1 3.34-2.05 4.01-3.71 3.51-8.66 8.22-16.87 9.94-26.24 2.54-13.9 8.69-26.47 14.37-39.24 4.18-9.39 8.46-18.7 13.61-27.6 6.67-11.51 16.89-18.46 28.92-23.36 13.46-5.49 26.46-3.05 38.89 2.67 7.74 3.56 11.73 11.22 15.25 18.67 4.04 8.55 5.49 17.87 7.05 27.1.42 2.52 1.36 4.87 1.79 7.36.16 1.37.14 2.75.1 4.13-.22 1.96-.46 3.93-.2 5.91 0 .68-.08 1.34-.23 2-.71 2.17-.25 4.48-.79 6.66-.33 1.31-.51 2.64-.53 4 0 2.12-.67 4.11-1.15 6.13-3.08 6.12-3.36 13.15-6.23 19.34-.78 1.48-1.62 2.93-1.69 4.67q-.12.93-.42 1.8c-.59 1.7-2.03 3.02-2.19 4.91-.11.82-.26 1.63-.52 2.41-1.19 2.89-2.44 5.75-3.41 8.72-.42 1.17-.64 2.39-1.01 3.57-.51 1.35-1.23 2.61-1.71 3.97-.44 1.17-.64 2.4-.94 3.61-1.46 6.69-4.69 12.84-6.02 19.57-.35 1.79-1.99 3.96 1 4.74 2.48.65 2.8-1.6 3.21-3.33 1.53-6.37 3.47-12.63 4.76-19.06.5-1.84 1.98-3.22 2.34-5.13.13-.62.3-1.22.49-1.82.64-1.78 1.26-3.57 1.43-5.48 1.41-3.84 1.76-8.1 4.47-11.44 1.07-1.57 1.48-3.39 1.94-5.2.24-.81.64-1.54 1.07-2.25.99-1.39 1.39-2.97 1.41-4.66 2.52-5.94 2.14-12.87 6.22-18.28 1.25-1.63 2.67-3.17 2.69-5.41.12-1.04.38-2.03 1.02-2.89.93-1.08 1.55-2.31 1.78-3.72 1.81-4.35 4.81-7.78 8.31-10.83 1.35-.49 2.36-1.38 3.08-2.62 3.01-2.92 6.06-5.77 9.92-7.58 2.82-1.57 5.48-3.4 8.47-4.67 9.02-2.75 17.97-5.11 27.55-2.11 10.8 3.38 17.83 10.76 22.15 20.64 6.44 14.73 4.49 29.63-1.02 44.14-4.01 10.57-7.43 21.34-11.78 31.79-6.58 15.8-12.51 31.87-18.45 47.92-6.08 16.42-11.87 32.98-15.56 50.19-1.08 5.05-.38 10.47-3.08 15.19-1.2 2.3.23 4.9-.84 7.21.32 7.38.2 14.77.27 22.15.13 12.98 2.72 25.25 7.98 37.07 3.58 8.03 5.7 16.58 8.49 24.89 3.18 9.5-2.87 20.27-10.44 27.14-6.31 5.73-14.44 6.7-22.07 8.85-15.31 4.32-31.01 6.77-46.82 8.34-12.96 1.29-25.43-1.13-37.68-5.18-1.39-.46-2.08-1.42-2.86-2.58-3.71-5.48-6.47-11.47-7.98-17.82-4.09-17.2-13.24-31.57-24.08-45.12-7.53-9.41-15.04-18.82-22.89-27.99-6.63-7.74-14.44-13.67-23.44-18.21-2.43-1-4.79-2.19-6.95-3.65-2.38-1.6-4.7-1.96-7.26-.65Z" class="cls-49"/><path d="M245.81 710.96c-2.77-11.69-7.46-22.72-11.61-33.94 8.07-3.87 16.71-6.18 25.12-9.09 17.87-6.18 35.76-12.3 53.56-18.68 14.15-5.08 27.77-11.52 41.48-17.69 25.25-11.36 50.82-22.03 75.84-33.87 17.45-8.25 35.81-13.83 53.9-20.21 21.2-7.48 42.58-14.43 63.7-22.12 1.72-.63 4.04-2.89 5.72.36-3.76 4.93-7.39 9.98-11.31 14.78-5.68 6.93-12.68 12.51-19.22 18.58-22.5 20.87-48.18 37.31-74.04 53.44-22.77 14.2-47.37 24.81-72.32 34.63-28.85 11.35-58.49 20.02-88.64 26.96-13.88 3.2-27.94 5.65-42.17 6.86Z" style="strokeWidth:0;fill:#7a6c4d"/><path d="M553.52 555.71c-2.15-1.58-3.98.21-5.72.82-12.35 4.27-24.59 8.86-36.94 13.14-21.74 7.54-43.66 14.61-65.26 22.54-10.97 4.03-21.39 9.56-32.1 14.32-23.07 10.25-46.32 20.12-69.22 30.75-27.71 12.86-56.76 21.99-85.52 31.97-6.32 2.19-12.6 4.48-18.92 6.66-1.81.63-3.63 1.38-5.64 1.11-6.09-8.97-7.89-19.62-11.62-29.51.98-1.23 2.41-1.74 3.8-2.24 18.23-6.56 35.52-15.32 53.48-22.53 18.1-7.27 36.5-13.72 54.88-20.2 17.83-6.28 35.68-12.5 53.55-18.65 10.84-3.73 21.02-9.11 31.56-13.6 21.77-9.27 43.52-18.58 65.09-28.3 15.87-7.15 31.72-14.39 47.83-20.99 10.88-4.46 22.14-7.91 33.25-11.76 4.92-1.71 9.75-3.69 14.74-5.17 2.04-.61 4.5-1.61 5.38 1.75-.08.59-.18 1.31-.74 1.54-5.93 2.49-7.84 7.97-10.37 13.2-4.9 10.12-10.78 19.72-16.39 29.47-.79 1.82-2.33 3.02-3.66 4.4-.48.43-.97.86-1.45 1.29Z" class="cls-75"/><path d="M557.81 549.97c3.67-8.6 9.46-16.05 13.37-24.52 1.24-2.69 3.14-5.13 4.04-7.91 1.76-5.44 4.91-9.34 10.32-11.32 6.02-2.78 11.99-.55 14.34 5.35.42 3.55-1 6.82-2.15 9.94-5.58 15.11-9 30.74-11.32 46.58-2.28 15.54-6.86 30.71-7.46 46.52-.01.26-.28.51-.42.77-.11-.62-.23-1.25-.34-1.87-2.32-10.79-7.04-20.75-10.62-31.11-3.2-9.25-6.11-18.61-9.66-27.75-.58-1.49-1.14-3.11-.09-4.69Z" style="strokeWidth:0;fill:#9b846d"/><path d="M607.89 707.36c4.76 3.22 9.14 6.92 13.42 10.74 2.58 2.01 3.85 4.9 5.02 7.79 5.98 14.77 12.32 29.38 18.56 44.04.63 1.47 1.64 2.93.58 4.62-.47.6-.96 1.16-1.85.83-6.53-15.23-13.34-30.35-19.46-45.75-3.15-7.93-6.94-14.99-14.45-19.48-1.1-.66-1.88-1.43-1.82-2.8Z" style="strokeWidth:0;fill:#d9c9b7"/><path d="M557.81 549.97c3.2 9.68 6.3 19.4 9.63 29.03 3.24 9.37 6.7 18.67 10.12 27.98.79 2.15 1.03 4.31.61 6.55-3.88-8.16-6.4-16.83-9.54-25.27-3.91-10.54-7.48-21.21-11.23-31.81-.38-1.08-.3-2.95-2.43-2.02.47-1.79 1.69-3.1 2.84-4.45Z" style="strokeWidth:0;fill:#d2c1af"/><path d="M154.71 974.76c1.46 5.9 3.36 11.64 6.26 17.02-.09.76-.21 1.51-1.01 1.89-3.23-4.96-4.67-10.6-6.16-16.22.95-.68.44-1.85.91-2.69" style="strokeWidth:0;fill:#aa9d8a"/><path d="M599.87 511.58c-3.67-4.76-8.66-5.98-14.34-5.35-.54-2.59-2.24-1.85-3.79-1.27-20.45 7.62-41.43 13.74-61.45 22.6-28.25 12.49-56.57 24.84-84.79 37.41-33.85 15.07-68.51 27.77-103.52 39.75-30.63 10.48-60.82 22.18-90.24 35.78-6.15 2.84-12.45 5.58-19.16 7.02-1.23-2.25-2.21-4.6-2.7-7.13-.72-1.45-.96-3.08-1.78-4.49-5.93-13.9-11.83-27.82-17.03-42.02 1.32 1.95 2.86 2.31 5.21 1.49 29.44-10.29 59.03-20.1 87.84-32.17 19.43-8.14 39.51-14.7 59.16-22.34 11.2-4.35 22.22-9.22 33.15-14.24 19.98-9.18 40.37-17.37 60.71-25.71 29.68-12.18 60.41-21.61 89.91-34.19 21.86-9.32 43.92-18.11 66.15-26.5 14.59-5.5 29.54-10.06 44.11-15.61 15.26-5.81 30.21-12.41 45.37-18.46 20.54-8.21 41.18-16.14 61.72-24.35 18.06-7.22 35.96-14.83 54.07-21.92 16.31-6.39 32.8-12.32 49.21-18.44 2.09-.78 4.49-1.17 4.1-4.29 4.57 5.71 9.07 11.48 12.58 17.93 4.52 8.63 9.65 16.94 13.47 25.94.56 1.31 1.61 2.42 2.43 3.62-.85 2.77-3.43 3.08-5.62 3.84-20.66 7.15-41.44 13.97-61.91 21.64-16.71 6.26-32.78 14.1-49.14 21.21-19.77 8.6-39.59 17.08-59.28 25.86-1.99.89-4.06 2.02-6.36.76-7.41-4-14.63-8.4-23.28-9.48-8.03-1-16.02-2.65-24.16-2.11-6.54.44-13.07 1.26-18.25 5.97-5.9 5.36-13.02 9.2-18.46 15.16-7.08 7.76-11.92 16.82-15.96 26.42-2.5 5.97-5.31 11.8-7.98 17.7Z" style="strokeWidth:0;fill:#827556"/><path d="M606.02 358.49c13.29-3.56 26.76-6.28 40.28-8.77 9.65-1.78 19.37-2.68 29.15-1.25 3.66.53 2.69-2.77 3.87-4.29.02 5.56-.8 6.23-6.24 5.05-6.69-1.45-13.34.08-19.86.86-14.51 1.73-28.8 4.88-43 8.38-1.25.31-2.81 1.1-4.21.02Z" class="cls-82"/><path d="M168.09 1006.95c8.9 11.45 17.01 23.47 24.37 35.93 6.93 11.73 13.23 23.82 19.79 35.77.27.5.3 1.13.44 1.7-6.73-1.74-9.85-6.87-13.61-12.33-8.4-12.19-14.72-25.4-21-38.64-2.86-6.02-8.43-10.57-9.27-17.64-.19-1.58-.95-3.11-.73-4.78Z" style="strokeWidth:0;fill:#756e5e"/><path d="M159.95 993.67c.1-.76.11-1.56 1.01-1.89l2.6 2.78c.8 2.33 3.15 4.27 1.77 7.14-2.08-2.48-4.1-5.01-5.38-8.03" style="strokeWidth:0;fill:#d3c5b3"/><path d="M937.82 480.25c2.96 1.62 5.57.9 8.34-.78 24.2-14.65 48.45-29.2 72.67-43.83 13.82-8.34 27.59-16.76 41.38-25.14 2.27-.51 3.22 1.26 4.17 2.65 5.89 8.59 12.37 16.75 18.22 25.36 8.5 12.02 15.85 24.77 23.85 37.11 2.93 6.39 7.94 11.54 10.79 17.98.77 1.74 2.06 3.34 1.53 5.45-2.88 3.95-7.29 6.06-11.04 8.91-18.37 13.95-36.47 28.28-55.56 41.28-7.13 4.86-14.65 9.13-21.91 13.8-3.88 2.5-7.26 2.18-10.56-.71-3.49-3.06-7.64-5.16-11.36-7.88-2.55-1.87-5.24-2.19-8.38-.83-6.06 2.63-11.99 2.83-17.37-2-1.97-1.77-4.03-3.53-6.58-4.55-1.85-.74-3.8-1.59-5.53-.3-6.12 4.53-10.5 1.34-14.7-3.05-1.14-1.8-1.47-3.88-1.97-5.9-2.98-12.01-7.52-23.49-11.83-35.06-2.45-6.18-3.41-12.73-4.7-19.2-.22-1.13-.44-2.34.55-3.31Z" style="strokeWidth:0;fill:#8bb16b"/><path d="M937.82 480.25c1.58 7.5 2.73 15.11 5.24 22.39.18 3.44 1.56 6.6 2.3 9.91.78 3.5-.46 5.19-3.71 6.35-10.38 3.7-20.79 7.32-31.22 10.87-19.45 6.64-38.76 13.68-58.29 20.09-2.35.77-4.7 2.06-7.33 1.03-1.94-5.28-2.64-10.84-3.61-16.34-2.11-11.89-6.27-22.82-14.65-31.89-5.93-6.41-14.01-7.5-21.81-8.84-15.86-2.71-28.82 3.91-40.52 13.82-9.37 7.93-13.38 19.26-18.75 29.71-3.91 7.6-6.78 15.67-10.65 23.34-4.04 7.99-5.92 16.97-7.95 25.76-2.39 10.36-7.14 19.76-11.69 29.25-.79 1.65-1.93 2.22-3.58 1.44-2.01-.96-2.63-2.3-1.94-4.68 2.93-10.12 5.72-20.27 8.38-30.46 4.37-16.77 9.01-33.49 12.72-50.4 1.98-9.04.66-18.48.48-27.74-.08-4.29-.59-8.57-.9-12.86 2.8-.29 5.53-.83 8.22-1.76 28.41-9.78 56.87-19.41 85.24-29.32 28.65-10.01 57.31-19.98 86.01-29.85 2.01-.69 4.05-2.15 6.36-.77.63 1.79 1.25 3.57 1.88 5.36-1.17 1.78-3.16 2.14-4.97 2.77-44.44 15.53-88.86 31.1-133.42 46.27-14.28 4.86-28.01 10.95-41.47 17.69-1.3.65-2.82 1.03-3.64 2.43.58.5 1.14.18 1.66 0 36.54-12.38 73.06-24.81 109.42-37.7 3.79-1.34 7.61-2.61 11.44-3.85 1.56-.51 3.17-1.01 4.72.04 1.29.87 2.57.49 3.85.05 18.75-6.39 37.51-12.73 56.06-19.69 6.03 11.12 10.3 23 15 34.69.39.96.75 1.93 1.13 2.9Z" class="cls-14"/><path d="M916.16 429.29c-28.99 10.03-57.98 20.08-86.98 30.1-12.05 4.16-24.14 8.22-36.2 12.36-19.2 6.59-38.39 13.22-57.58 19.83-1.77.61-3.61 1.62-5.06-.58-5.54-12.32-10.67-24.92-22.36-33.08 5.99-.91 11.07-4.18 16.47-6.52 31.59-13.68 62.93-27.94 94.67-41.25 14.62-6.13 30.03-10.32 44.92-15.85 8.74-3.24 17.93-5.27 26.23-9.69 8.63 14.9 17.27 29.79 25.9 44.69Zm5.53 13.37c-.21 1.87-1.72 2.23-3.13 2.72-17.97 6.2-35.94 12.43-53.94 18.56-1.25.43-3.33 2.26-3.77-1.19-.09-.7-1.58.04-2.39.33-26.24 9.11-52.46 18.27-78.72 27.32-12.91 4.45-25.89 8.71-38.85 13.05-.99.33-1.97.88-2.97.92-1.9.08-4.06 3.41-5.38.76-1.47-2.95 2.22-3.27 3.95-4.19 18.32-9.71 37.74-16.67 57.32-23.32 37.27-12.65 74.42-25.7 111.61-38.58 4.2-1.46 8.41-2.92 12.61-4.38.83 1.53 1.21 3.32 2.6 4.52-.19 1.33.54 2.38 1.04 3.5v-.02Z" style="strokeWidth:0;fill:#7e7052"/><path d="M1081.67 439.13c-6.07-8.54-12.12-17.11-18.25-25.61-.84-1.17-2.13-2.02-3.21-3.01-2.53-4.68-6.13-8.58-9.54-12.57-3.96-4.62-6.92-9.83-9.75-15.26 6.43 3.14 10.09 9.49 15.71 13.52 10.73 11.18 21.44 22.37 32.2 33.52 1.16 1.2 1.98 2.56 2.67 4.04-2.81 2.65-5.07 6.29-9.83 5.37" style="strokeWidth:0;fill:#82a960"/><path d="M921.68 442.68c-.97-.98-2.33-1.85-1.04-3.51.71 1.06 1.14 2.21 1.04 3.51" class="cls-14"/><path d="M616.86 1505.15c-.31-2.08-.63-4.16-.94-6.23-.01-4.2-1.47-8.29-.92-12.53.9 6.23 3.56 12.28 1.86 18.76" class="cls-6"/><path d="M681.14 1618.97c-3.92-2.17-6.94-5.23-9.14-9.12 3.63 2.46 6.64 5.53 9.14 9.12" style="strokeWidth:0;fill:#5b6d34"/><path d="M615.02 1486.41c-1.52-3.5-1.01-7.17-.91-10.8 1.91 3.46.48 7.21.91 10.8m-.9-11.6c-1.96-3.76-.41-7.8-.91-11.68 1.97 3.76.43 7.8.91 11.68" class="cls-6"/><path d="M711.57 1639.35c-3.11.34-5.46-1.5-8.02-2.76 3.33-.98 5.36 1.8 8.02 2.76" style="strokeWidth:0;fill:#5e7235"/><path d="M665.89 1603.56c-.02-.3-.05-.6-.07-.9 1.9.99 3.51 2.23 3.73 4.59l-3.65-3.68Z" style="strokeWidth:0;fill:#607337"/><path d="M633.79 1554.41c-1.46-1.85-1.86-3.99-1.76-6.28 1.52 1.83 1.84 4 1.76 6.28" style="strokeWidth:0;fill:#5f7236"/><path d="m969.67 1621.35 3.72-3c-.49 1.93-1.63 3.06-3.72 3" class="cls-30"/><path d="M1411.53 906.86c2.06 1.24 4.52 1.78 6.26 3.58-1.86 1.22-3.69 2.48-5.57 3.66-3.97 2.5-4.41 5.11-1.27 8.66.97 1.1 2.17 2.02 3.35 2.91 3.48 2.64 3.25 4.08-.51 6.53-2.03 1.32-5.95.66-5.75 4.53.17 3.35 2.75 5.31 4.92 7.59 3.96 4.16 7.35 8.82 11.58 12.76 2.1 1.96-.36 2.63-1.53 3.51-2.17 1.61-5.41 1.98-6.09 5.3-3.39-.72-6.39 0-9.11 2.23-2.48 2.02-4.91 2.16-7.51-.18-3.12-2.82-6.75-4.78-11.15-4.91-.55-.02-1.25-.3-1.61-.7-4.01-4.5-7.87-3.21-11.93.01-1.75 1.39-3.94 2.05-6.29 1.77-1.86-.22-3.56.34-5.08 1.32-6.31 4.1-11.32 2.84-16.31-1.95-2.84-2.73-5.91-3.77-9.62-1.7-1.77.99-3.79.48-5.71.52-1.79.04-3.67-.16-5.15 1-3.03 2.39-5.91 2.23-8.9-.06-1.28-.98-2.65-.93-4.17-.18-5.22 2.57-10.32 2.99-14.86-1.46-1.49-1.46-3.33-.95-5.06-1.06l2.97-24.6c1.1-9.07 2.19-18.15 3.3-27.22.12-.97-.55-2.34.56-2.82 1.08-.46 2.31.11 3.29.87.23.18.42.42.66.6 9.18 7.02 6.58 7.4 16.65 1.44 1.46-.87 3.03-1.1 4.7-1.07 1.62.03 3.36.38 4.79-.61 8.83-6.18 16.07-1.57 22.82 3.74 7.77 6.11 7.65 6.47 16.48 1.62 3.77-2.07 7.01-2.4 10.69.15 3.43 2.37 7.38 1.73 11.15.67 2.15-.6 4.25-1.32 6.53-1.07 4.36-1.35 7.97-4.46 12.52-5.37Zm-118 59.93c.21-1.51-.59-3.22.89-4.48-.49 1.45 1.64 3.43-.89 4.48m-1.79 12.51c.21-1.51-.59-3.22.89-4.47-.21 1.51.59 3.22-.89 4.47m-93.09 398.82c2.05-10.07 5.63-19.69 8.71-29.45 11.29-35.72 20.99-71.87 30.68-108.04.19-.69.55-1.34.83-2.01.33.01.66.02.99.04-5.06 18.51-10.05 37.05-15.21 55.53-3.42 12.24-7.08 24.4-10.63 36.6-4.8 15.8-9.59 31.59-14.39 47.39-.35.37-.68.34-.99-.05Z" style="strokeWidth:0;fill:#619935"/><path d="M218.1 635.88c1.43 1.16 1.86 2.73 1.78 4.49-1.37-1.19-1.82-2.74-1.78-4.49" class="cls-75"/><path d="M1118.32 499.04c-1.65-5.28-4.58-9.89-7.7-14.38-1.93-2.79-4.12-5.42-4.84-8.87 3.92-3.81 7.92-7.52 13.43-8.95 2.55 1.43 2.8 4.84 5.35 6.27 3.72 8.34 8.94 15.82 13.45 23.71.8 1.39 1.76 2.68 2.65 4.02.21 2.38 2.73 3.76 2.69 6.25-4.64 4.16-9.64 7.77-15.44 10.18-.43-.1-.94-.23-1.13-.6-3.02-5.78-6.35-11.41-8.46-17.62Z" style="strokeWidth:0;fill:#78a154"/><path d="M1128.14 516.93c4.9-3.55 9.65-7.33 15.21-9.85 3.98 5.13 6.2 11.24 9.27 16.88 2.73 5.02 5.16 10.2 7.73 15.31-5.19 4.9-10.71 9.31-17.47 11.91-1.64-.81-1.99-2.51-2.61-3.96-3.72-8.82-7.64-17.56-11.78-26.19-.61-1.28-1.53-2.63-.36-4.1Z" style="strokeWidth:0;fill:#719b4d"/><path d="M1143.33 550.93c5.57-4.03 10.96-8.33 17.01-11.65 3.83 5.54 5.46 12.18 8.95 17.89l4.41 9.87c-6.55 4.17-13.11 8.34-19.66 12.51-2.38-6.26-4.77-12.52-7.15-18.78-2.79-2.69-4.55-5.76-3.56-9.83Z" style="strokeWidth:0;fill:#6c9647"/><path d="M1119.21 466.84c-4.54 2.89-8.55 6.57-13.43 8.95-4.74-5-7.3-11.43-11.14-17.02-4.44-6.47-8.66-13.09-12.98-19.64 4-.46 6.1-4.42 9.83-5.37 3.34 2.62 6.32 5.61 8.94 8.95 6.71 7.69 13.28 15.5 18.77 24.14Z" style="strokeWidth:0;fill:#7da55b"/><path d="M1198.65 1378.12c.33.02.66.04.99.05-2.82 8.03-5.62 16.06-8.46 24.08-.47 1.34-.51 2.98-2.18 3.62 3.22-9.25 6.43-18.51 9.65-27.76Z" class="cls-34"/><path d="M1411.53 906.86c-3.86 2.51-7.35 5.9-12.52 5.37 2.1-3.65 5.83-5.1 9.32-6.83 1.48-.73 2.52.12 3.19 1.46Z" class="cls-1"/><path d="M916.63 1563.23c-9.81 0-19.63.22-29.44-.06-9.45-.27-18.26-3.97-27.43-5.69-17.8-3.34-31.03-13.52-41.28-27.52-6.89-9.41-11.79-20.16-15.86-31.24-2.9-7.89-7.25-15.18-10.47-23.01-6.7-16.24-15.81-31.43-28.56-43.35-12.49-11.67-20.34-26.64-31.54-39.09-5.96-6.63-11.9-13.35-15.66-21.6-2.98-6.53-6.35-13.26-2.1-20.3 2.91-4.82 6.97-8.86 11.54-12.29 1.02-.76 2.07-1.08 3.34-.79 9.17 2.08 18.48 4.41 26.2 9.67 5.87 3.99 10.09 10.31 14.59 16.01 12.86 16.27 26.48 31.95 42.13 45.52 12.02 10.42 25.03 20.38 40.12 25.49 24.42 8.27 49.27 17.63 75.5 15.28 30.12-2.7 58.63-11.87 84.83-27.87 14.94-9.13 25.89-21.61 35.34-35.83 1.41-2.12 3.11-3.53 5.41-4.37 7.65-2.78 15.51-3.07 23.25-.91 8.05 2.25 11 9.32 7.68 17.38-5.16 12.5-11.66 24.18-19.89 35.01-12.01 15.8-25.81 29.96-39 44.7-8.71 9.73-17.98 19.29-23.92 30.92-5.37 10.52-14.1 18.11-20.55 27.58-2.17 3.18-4.73 6.17-6.37 9.61-2.69 5.65-7.25 8.27-12.92 9.82-14.72 4.02-29.79 5.39-44.94 6.94Z" class="cls-55"/><path d="M844.81 550.89c20.94-7.14 41.89-14.24 62.82-21.42 11.38-3.9 22.71-7.96 34.08-11.87 2.23-.77 3.18-1.4 2.61-4.35-.67-3.44-2.71-6.89-1.26-10.62 5.43 13.41 10.21 27.03 13.52 41.14 3.94 8.19 6.63 16.68 6.24 25.91.96 7.26 1.92 14.51 2.87 21.77.53 4.07 1.04 8.14 1.56 12.21-.64 7.77.95 15.46.84 23.21-.24.37-.69.74-.67 1.11.36 12.04-2.08 23.78-3.86 35.59-1.36 1.27-.64 2.94-.84 4.44-3.37 14.7-4.73 29.77-7.98 44.49-3.49 13.22-6.17 26.66-10.75 39.58-2.28 6.2-4.12 12.55-6.37 18.76-.69 1.91-1.04 4.61-4.3 3.69-13.01-5.31-25.14-12.4-37.8-18.43-4.34-2.06-8.2-5.3-13.24-5.77.23-10.18 2.84-19.92 5.56-29.61 5.03-17.93 11.43-35.38 18.37-52.68 4.07-10.16 7.68-20.53 11.7-30.73 2.81-7.13 6.09-14.17 8.01-21.54 2.06-7.9 7.31-14.66 7.84-23 .45-7.2 2.14-14.68.81-21.56-1.79-9.27-6.5-17.74-14.27-23.9-7.78-6.17-16.51-8.48-26.3-6.27-3.89.88-7.77 1.83-11.66 2.74-3.34.3-5.68 2.43-8.1 4.42-3.62 1.87-6.37 4.89-9.63 7.24-.95.91-1.77 1.97-2.91 2.67-3.1 3.28-6.31 6.47-8.13 10.72-.87 1.03-1.11 2.37-1.69 3.54-.97.67-.74 1.75-.91 2.7-.61 1.94-2.14 3.44-2.63 5.43-4.03 5.6-3.63 12.72-6.39 18.75-.61 1.49-1.08 3.04-1.63 4.55-.33.56-.66 1.13-.99 1.69-.96 1.69-1.17 3.62-1.7 5.46-2.68 3.4-2.8 7.82-4.62 11.56-.82 1.71-1.13 3.58-1.66 5.38-.04.59-.07 1.17-.11 1.76-.86 1.34-1.8 2.61-3.24 3.42-1.43.34-2.82.44-3.94-.79.18-1.22-.31-2.6.89-3.57 1.18-.91 1.28-2.39 1.88-3.61.1-1.22-.36-2.55.74-3.56 1.93-2.73 2.57-5.98 3.7-9.03.06-.87.11-1.73.17-2.6.91-1.47 2.19-2.73 2.53-4.52.03-.58.06-1.15.1-1.73.69-1.48 1.1-3.05 1.67-4.57 1.27-4.83 3.08-9.51 3.84-14.49.29-1.9 1.19-3.63 2.52-5.08.69-2.02 2.1-3.94.86-6.23.01-1.25-.45-2.59.71-3.61 1.54-2.22-.18-4.91 1.03-7.18l.09-1.77c.35-1.77.72-3.55-.04-5.31v-4.51Z" class="cls-90"/><path d="M705.89 1080.86c1.31-8.72 4.14-18.15 8.09-27.25 1.35-3.12 3.15-6.09 4.13-9.32 3.41-11.25 12.41-16.81 21.75-22.24 12.79-7.44 26.29-13.11 40.39-17.53 4.96-1.55 9.64-1.16 14.47-.17 10.62 2.17 21.71 2.62 31.72 7.01 18.65 8.18 34.4 20.68 48.49 35.17 4.87 5.01 6.49 12.3 8.94 18.82 5.03 13.34 8.31 27.1 9.94 41.32.48 4.18-1.07 7.19-3.38 9.63-5.73 6.04-13.49 10.23-20.92 3.52-10.63-9.59-20.63-19.65-29.82-30.68-8.54-10.25-19.24-18.25-32.06-22.51-5.88-1.96-12.35-1.76-18.59-1.92-8.61-.23-17.17.14-25.69 2.03-11.54 2.55-20.4 9.45-28.96 16.88-2.64 2.29-5.07 3.74-8.72 3.2-4.42-.66-8.44 2.1-12.99 1.79-5.3-.36-6.76-1.42-6.79-7.75m361.64-9.63c15.19.67 28.74 2.55 42.23 4.75 7.09 1.16 13.36 5.07 19.39 8.68 9.19 5.5 16.95 12.84 24.48 20.6 10.19 10.49 13.17 23.84 17.17 36.88 2.38 7.77 4.15 15.72 4.93 23.88.16 1.7-.04 2.67-1.11 3.9-1.84 2.12-3.29 4.5-4.44 7.14-1.74 4-4.3 4.22-8.32 3.01-8.21-2.47-12.77-9.09-18.66-14.45-12.76-11.62-26.36-22.59-42.56-28.95-13.11-5.15-27.22-4.08-41.02-2.29-5.73.74-11.44 1.86-17.06 3.2-5.51 1.31-10.7 3.53-15.18 7.18-4.7 3.83-10.47 5.58-15.97 7.8-2.03.82-3.4-.04-5.06-1.54-7.35-6.67-5.2-15.47-5.55-23.62-.48-11.37 7.72-18.23 14.36-25.71 9.66-10.9 21.41-19.41 33.48-27.32 5.99-3.93 13.55-2.28 18.91-3.12Z" class="cls-55"/><path d="M1063.96 1037.18c24.9.39 44.45 5.04 63.66 11.6 5.91 2.02 11.58 4.65 17.41 6.79 13.1 4.82 22.68 13.85 31.18 24.42 4.65 5.78 9.41 11.48 14.11 17.23 4.47 5.46 5.46 12.47 8.02 18.75 1.13 2.77-1.74 5.49-4.15 7.27-2.48 1.84-4.85.71-6.85-1.12-4.53-4.14-7.77-9.37-11.79-13.94-7.64-8.69-14.16-18.51-23.84-25.18-8.63-5.94-18.6-9.15-28.37-12.67-17.42-6.29-35.39-10.57-53.86-10.93-17.49-.34-34.73 1.88-49.2 13.57-5.2 4.19-9.38 9.09-12.55 14.89-1 1.84-2.17 3.53-3.34 5.25-1.59 2.33-3.52 3.77-6.31 3.21-2.62-.52-3.86-2.65-4.41-5.1-.85-3.82-1.11-7.63.62-11.34 8.83-18.93 23.04-32.04 42.94-38.34 10.04-3.18 20.52-4.85 26.72-4.36Zm-268.09-71.35c22.72-.49 42.43 4.95 59.91 17.61 8.67 6.28 14.93 14.82 21.07 23.42 4.92 6.89 10.01 13.64 15.05 20.43 3.84 5.17 5.95 11.64 7.24 18.05.85 4.2-4.72 7.52-9.12 5.75-5.57-2.25-8.58-7.24-11.98-11.68-6.41-8.36-12.49-16.98-18.73-25.47-9.2-12.51-22.3-19.04-36.74-22.9-27.75-7.43-54.35-2.66-80.19 8.61-13.79 6.02-25.73 14.7-36.47 25.14-1.59 1.55-3.25 3.26-5.82 2.38-2.63-.9-3.9-2.96-4.62-5.58-2.68-9.69 3.39-15.41 9.6-20.85 15.29-13.4 32.63-23.29 52.18-29 12.99-3.8 26.19-6.61 38.61-5.9Z" class="cls-67"/><path d="M933.34 774.54c2.42-.1 2.5-2.17 3.09-3.76 2.3-6.19 3.75-12.68 6.66-18.66.77 0 1.54.19 2.07.7 3.85 3.69 7.85 3.29 12.7 1.7 4.82-1.58 10.02-.54 14.46 2.34 2.45 1.59 4.76 2.34 7.41.57.88-.59 2.09-1.06 2.96-.51 3.4 2.15 7.66.81 11.05 2.96 1.63 1.03 3.36.54 5.15.05 3.17-.88 4.33.05 3.71 3.24-.56 2.91-.35 5.13 2.26 7.03 2.63 1.91 4.87 1.42 7.37-.12 2.49-1.54 5.22-2.06 8.12-1.05 1.89.66 3.74.55 5.62-.32 6.84-3.13 8.24-2.78 13.68 3.1 6.48 5.11 12.95 10.23 19.43 15.33 1.98 1.56 3.5.26 5.2-.76 3.3-1.97 6.72-4.27 10.23-.27-.14 5.62-.16 5.65-5.91 4.7-1.21-.2-2.97-.43-3.17.72-.7 4-4.05 3.77-6.62 4.36-5.98 1.37-10.27 5.61-15.28 8.57-4.48 2.66-.03 3.54 1.47 4.9-20.36-3.04-40.6-6.63-60.38-12.53-18.01-5.36-34.42-14.34-51.28-22.31Z" class="cls-94"/><path d="M924.49 1133.03c-.23 25.55-1.62 44.92-5.5 64.06-3.96 19.49-8.04 39.02-16.87 57-5.05 10.28-12.88 18.84-19.75 27.97-3.65 4.85-7.88 9.31-10.44 14.95-1.45 3.19-4.16 4.91-7.59 4.18-3.53-.75-4.14-4.03-4.28-7.01-.33-7.03 4.3-11.82 8.25-16.77 7.5-9.41 14.73-19.01 21.77-28.78 5.74-7.96 8.05-17.19 10.77-26.23 3.74-12.48 6.68-25.21 8.63-38.12 1.02-6.74 1.65-13.54 2.32-20.33 1.03-10.38 1.26-20.81.81-31.21-.57-12.96-1.74-25.88-3.09-38.79-.65-6.25-2.63-12.58-.56-18.99.89-2.77 2.21-5.11 5.33-5.2 3.19-.09 4.25 2.6 4.72 5.08 1.03 5.37 2.07 10.79 2.48 16.23 1.21 15.98 3.38 31.92 3.02 41.95Zm15.09 234.42c-13.01-.45-25.43-3.51-37.67-7.86-16.89-6-32.87-13.76-48-23.32-3.64-2.3-7.1-4.86-10.23-7.85-3.37-3.23-4.14-7.08-2.79-11.42 1.93-6.24 5.36-7.28 10.53-3.32 15.36 11.77 32.58 20.02 50.56 26.87 11.14 4.24 22.47 7.77 34.39 8.59 6.96.48 13.93-.1 20.13-4.06 2.45-1.56 3.49-3.96 4.34-6.53.37-1.12.61-2.29.94-3.43.93-3.2 2.66-6.42 6.24-5.77 3.59.65 4.81 4.18 4.57 7.74-.95 14.14-7.44 25.66-23.72 29.43-3.07.71-6.14 1.05-9.29.92Z" style="strokeWidth:0;fill:#b19863"/><path d="M685.74 764.81c1.45-2.67 3.02-3.58 5.89-1.38 2.65 2.03 6.13 2.91 8.32 5.68-1.42.05-2.33.37-2.75 2.12-5.92 24.58-13.22 48.81-18.7 73.5-.09.43-.03.89-.05 1.33-2.96.94-2.66-1.93-3.2-3.15-5.04-11.39-9.73-22.94-14.83-34.3-1.54-3.43-1.97-7.53-5.27-10.07 9.3-9.92 18.62-19.84 27.91-29.78 1.09-1.17 2.51-2.15 2.67-3.96Z" class="cls-48"/><path d="M705.39 1356.36c-.37 4.72 2.04 9.23 2.4 14.11.14 1.95-.2 3.56-1.24 5.02-1.74 2.45-4.12 2.33-4.97-.53-3.88-13.18-5.35-26.35 2.33-38.82 5.03-8.17 13.02-11.59 22.09-13.47 5.84-1.21 11.51-.16 17.23.16 5.61.31 8.74 4.04 7.57 8.64-.69 2.72-2 4.67-5.41 3.29-8.2-3.32-16.6-2.18-24.71-.09-8.37 2.15-15.68 9.93-15.28 21.71Z" class="cls-67"/><path d="M1067.51 1370.85c4.83-6.08 11.32-6.19 17.15-6.65 11.78-.93 19.61 4.81 22.65 16.55 2.93 11.29-.13 21.91-5.81 31.77-1.46 2.53-3.41 1.82-4.62-.67-1.38-2.84-.27-5.45.79-8.07 1.94-4.81 3.89-9.62 3.65-14.96-.26-5.68-2.93-9.74-7.95-12.47-7.89-4.28-16.47-5.34-25.86-5.51Z" style="strokeWidth:0;fill:#b59d67"/><path d="M1155.86 1201.98c-3.09-.12-4.45-1.84-5.47-3.9-1.03-2.08-.12-4.07.7-5.91.46-1.02 2.02-1.36 2.57-.24 1.89 3.85 4.79 2.57 7.09 1.18 9.13-5.5 18.13-11.24 24.47-20.17.98-1.38 2.16-2.85 3.94-1.8 1.66.98 1.37 2.68.6 4.34-2.78 6.01-7.78 9.92-12.75 13.94-5.77 4.67-11.35 9.57-18.66 11.76-.99.3-1.88.94-2.49.79Zm-469.35-122.8c.11-.67.27-2.14.61-3.57.26-1.1.4-2.56 2.12-2.24 1.44.27 1.75 1.45 1.74 2.71-.04 5.44 1.29 10.34 4.34 15.03 2.44 3.74 5.68 6.37 9.19 8.72 2.25 1.51 3.38 3.2 1.92 5.37-1.54 2.29-3.64 2.37-6.02.37-8.02-6.74-13.59-14.69-13.9-26.4Z" style="strokeWidth:0;fill:#b59c66"/><path d="M765.65 1333.38c-2.33-.89-2.46-2.14-1.85-3.84 1.53.75 1.98 1.88 1.85 3.84" style="strokeWidth:0;fill:#d2bb85"/><path d="M1046.66 809.42c2.72.37 5.64-1.04 8.16.96-2.73-.24-5.57.43-8.16-.96" class="cls-94"/><path d="M881.47 757.56c.4-2.39-1.05-4.99.84-7.21-.46 2.38.93 4.98-.84 7.21" class="cls-90"/><path d="M470.71 916.87c1.29-12.06 5.24-23.69 9.36-35.33 5.88-16.6 18.71-26.96 32.47-36.19 6.14-4.12 14.17-4.17 21.46-5.46 9.79-1.74 19.66-3 29.52-4.36 4.31-.59 8.56-.32 12.78 1.03 11.19 3.56 22.4 7.07 33.67 10.37 10.68 3.13 17.23 11.2 23.66 19.38 1.89 2.41 3.11 5.44 4.24 8.34 1.95 5.04 3.59 10.19-.12 15.26-.43.59-.67 1.33-.96 2.01-3.79 8.79-4.93 9.57-13.87 5.72-14.53-6.26-29.61-5.57-44.79-4.56-2.08.14-4.18.54-6.23.33-5.81-.6-11.38.61-16.5 2.93-15.36 6.95-30.16 14.53-39.33 30-4.9 8.27-11.73 15.34-17 23.47-1.74 2.69-1.93 6.92-7.15 6.52-5.46-.41-9.02-3.05-12.24-7.07-7.56-9.46-7.67-20.86-8.98-32.39Z" class="cls-29"/><path d="M238.69 911.34c15.29-8.2 31.09-15.28 47.23-21.63 3.39 2.6 6.92.16 10.22-.11 9.95-.82 19.8-.82 29.75.11 15.66 1.46 30.09 6.55 43.85 13.87 3.27 1.74 6.47 3.65 9.58 5.68 5.11 3.34 6.97 10.02 4.53 15.65-1.94 4.48-4.7 5.38-8.78 2.55-14.83-10.3-31.42-16.11-49.11-18.58-20.72-2.89-40.8.12-60.01 8.51-16.71 7.3-30.85 17.85-40.48 33.59-7.65 12.49-12.72 26.16-16.86 40.17-.47 1.59.37 2.44 1.14 3.57 3.21 4.69 2.7 11.63-1.06 15.71-4.31 4.7-10.6 2.98-12.82-3.29-1.95-5.5-1.03-11.03.17-16.27 4.95-21.6 13.06-41.99 25.55-60.39 4.59-6.76 10.62-12.34 17.11-17.35.84-.65 2.16-1.21-.03-1.77Zm251.06-91.32c10.64-3.16 21.27-6.36 31.92-9.47 13.8-4.03 27.61-8 41.42-12 3.11 1.95 6.78 2.02 10.18 2.56 14.01 2.21 26.52 8.53 39.33 13.96 5.79 2.45 7.05 13.56 2.52 17.94-2.31 2.24-4.53 1.37-6.94.25-10.12-4.68-20.4-8.9-31.24-11.71-21.78-5.63-42.93-4.33-63.31 5.51-12.67 6.11-22.99 15.24-31.7 26.09-11.77 14.65-19.93 31.24-25.08 49.32-.69 2.41-1.58 4.83-2.79 7.02-1.99 3.62-5.26 3.79-7.88.56-2.87-3.52-2.34-7.6-1.3-11.5 6.08-22.81 15.94-43.75 30.91-62.15 4.05-4.97 8.29-9.7 13.41-13.62.42-.33 3.89-1.22.56-2.77Z" style="strokeWidth:0;fill:#8b8074"/><path d="M419.23 929.21c-6.73.48-8.51 2.09-8.94 8.07-2.87-1.96-3.19-4.01-.36-6.34 2.67-2.2 4.21-5.3 6.09-8.3 1.82 1.93 3.36 3.83 3.21 6.57" style="strokeWidth:0;fill:#918679"/><path d="M645.47 774.56c-8.03-18.83-15.56-37.87-24.15-56.45 12.2 9.2 25.92 16.1 38.11 25.3 4.39 3.31 9.92 4.76 13.86 8.76-8.39 8.56-18.72 14.71-27.82 22.4Z" class="cls-48"/><path d="M962.83 569.69c-2.08-8.64-4.16-17.28-6.24-25.91 1.35.91 2.76 1.74 4.03 2.74 2.39 1.88 4.97 2.45 7.3.35 4.29-3.87 7.97-1.35 11.65.82 1.76 1.04 3.32 2.48 4.85 3.88 4.43 4.07 9.63 3.35 14.22 1.3 4.26-1.91 7.7-1.73 11.02 1.02 3.55 2.94 7.88 4.68 11.21 7.99 2.61 2.6 5.53 2.22 8.83.3 24.63-14.42 46.89-32.17 69.71-49.13 6.3-4.68 12.19-9.9 18.91-14.01 4.52 5.28 6.07 12.19 9.82 17.9 5.06 11.33 10.13 22.66 15.19 33.99 1.19 3.28 2.37 6.55 3.56 9.83-10.46 7.77-21.07 15.35-31.3 23.43-3.46 2.73-7.58 4.71-10.2 8.6-1.93 2.87-5.91 2.34-8.62 4.25-4.23 2.99-8.77 5.55-13.14 8.35-2.93 1.88-5.31 1.94-8.44-.32-3.9-2.82-8.33-4.93-12.26-7.83-2.45-1.8-4.64.48-6.35 1.79-3.4 2.59-6.14 1.85-9.19-.48-3.13-2.38-5.99-5-10.59-4.94-2.84.04-5.11-2.78-7.13-4.91-2.15-2.25-3.96-2.38-6.56-.57-4.73 3.29-6.59 3.02-10.98-.82-4.09-3.57-9.2-3.38-13.88-2.87-3.74.41-6.3-.29-9.42-2.28-8.13-5.18-15.75-11.64-26-12.48Z" style="strokeWidth:0;fill:#87af65"/><path d="M953.81 712.75c.08-5.5 2.05-10.68 2.71-16.08 1.01-8.3 1.82-16.65 4.55-24.63.47-1.37.54-2.92 1.68-4.02-.46 2.69 1.66 3.63 3.35 4.7 6.64 4.2 12.87 8.96 19 13.83 2.65 2.11 5.07 2.17 7.63.26 3.65-2.72 6.52-1.63 9.98.9 5.18 3.78 10.49 7.59 16.97 9.09.84.19 2.06.52 2.33 1.14 2.38 5.37 5.46 3.26 9.09 1.39 3.29-1.69 6.75-1.25 10.07 1.02 3.18 2.18 6.55 4.79 10.82 1.96.51-.34 1.75-.36 2.12 0 4.97 4.93 10.45 2 15.77 1.11.88-.15 1.91-.72 2.55-.08 5.28 5.22 13.57 5.93 18.18 12.13-3.68 3.63-7.93 3.59-12.24 1.59-2.75-1.28-4.86-.46-6.99 1.13q-7.64 5.7-14.6-.35c-4.5-3.91-9.08-2.34-14.47 2.9-3.56 3.46-8.2 6.38-13.48 7.21-5.07.79-7.76-2.81-9.48-6.53-1.37-2.95-3.71-4.59-5.93-6.3-2.11-1.62-4.5-.17-6.49 1.34-5.55 4.22-5.59 4.25-11.19.32-2.56-1.8-4.69-1.17-6.82.65-3.28 2.8-6.06 3.73-9.83-.07-3.53-3.56-8.76-2.11-13.63 2.57-1.78 2.31-3.92 1.71-5.78.38-2.66-1.91-6.57-3-5.86-7.57Z" style="strokeWidth:0;fill:#7aa257"/><path d="M953.81 712.75c2.26 5.14 7.14 8.16 11.64 7.19 1.67-.12 3.46-.09 4.68 1.05 4.09 3.83 9.29 6.03 14.31 7.36 5.64 1.49 11.33 4.86 17.57 2.78 1.88-.63 3.42-.09 4.48 1.04 2.04 2.15 5.1 3.15 6.52 5.96.52 1.02 1.47 1.72 2.55.96 3.55-2.48 6.2-.5 8.68 1.74 2.66 2.4 5.16 3.13 8.27.67 1.7-1.34 3.9-1.61 5.79-.05 3.24 2.68 6.91 4.26 10.97 5.39 2.37.66 4.26.9 6.27-.48 3.28-2.25 6.08-1.8 9.2.79 4.02 3.35 9.2 3.71 14.23 4.1-.25 1.84.7 3.12 1.99 4.23 1.26 1.08 1.6 2.74.14 3.29-4.75 1.79-6.83 6.13-9.86 9.55-3.64 4.11-7.58 4.8-12.04.92-4.1-3.57-7.61-3.77-11.74-.36-2.2 1.82-5.14 2.17-7.83 2.94-.43-.09-1.01-.03-1.28-.29-4.09-3.79-8.24-5.53-13.11-1.12-1.11 1-2.89.75-4.28.08-3.51-1.71-6.74-.94-9.49 1.41-3.22 2.75-5.43.5-7.85-1.11-2.47-1.64-3.71-3.71-2.42-6.79.41-.99 1.47-2.23.31-3.28-1.21-1.08-2.1.29-3.13.72-.79.33-2.07.8-2.52.44-3.61-2.91-8.7-.59-12.23-3.57-1.49-1.26-2.68-.5-3.96.47-2.3 1.75-4.38 1.55-6.86-.16-5.37-3.71-11.27-4.92-17.49-2.03-5.6 2.6-8.82-1.18-12.25-4.45 3.57-13.13 7.14-26.25 10.72-39.38Z" style="strokeWidth:0;fill:#769f52"/><path d="M824.09 632.26c1.52.01 3.05.03 4.57.04.53.62.47 1.27.09 1.94-.72 7.72-3.6 14.94-5.2 22.46-.67 3.16-3.12 1.91-5.01 1.32-2.1-.65-2.45-1.74-1.61-4.03 2.62-7.16 4.81-14.48 7.17-21.73Z" style="strokeWidth:0;fill:#736b54"/><path d="M831.31 612.5c-.33 3.38-.75 6.73-3.7 9.03.74-3.21 1.86-6.27 3.7-9.03m42.96-64.3c1.88-2.98 4.41-4.77 8.1-4.42-2.7 1.47-5.4 2.95-8.1 4.42m-25.9 32.3c-.3-2.38 1.27-3.86 2.63-5.43.26 2.36-1.51 3.74-2.63 5.43m-5.37-7.22c1.72 2.35.79 4.34-.86 6.23.29-2.08.57-4.15.86-6.23m1.74-10.79c-.43 2.38 1.07 5.04-1.03 7.18.68-2.35-.6-4.98 1.03-7.18m-13.36 65.4c-.13-2 .04-3.92 1.66-5.38.09 1.99-.47 3.78-1.66 5.38m-2.62 6.35-.09-1.94c.56-1.18 1.45-2.06 2.6-2.66-.13 1.92-1.61 3.1-2.51 4.6m8.9-23.3c-.15-2.04 0-3.99 1.7-5.46 0 1.99-.56 3.81-1.7 5.46m-3.66-5.56c.29 2.14-.76 3.53-2.53 4.52.06-1.95 1.5-3.12 2.53-4.52m10.8-49.98c1.3 1.76 1.28 3.53.04 5.31-.78-1.77-.14-3.54-.04-5.31m-9.03 43.68c.16 1.79-.3 3.35-1.67 4.57-.13-1.77.42-3.3 1.67-4.57m4.57 4.72c-.16-1.77.31-3.31 1.63-4.55.17 1.78-.41 3.27-1.63 4.55m21.4-45.69c.63-1.26 1.48-2.28 2.91-2.67-.41 1.49-1.22 2.56-2.91 2.67m-9.82 14.26c-.08-1.49.14-2.84 1.69-3.54-.04 1.43-.49 2.67-1.69 3.54m-25.05 52.72c.1 1.58-.1 3.01-1.88 3.61.35-1.35.83-2.63 1.88-3.61" style="strokeWidth:0;fill:#736647"/></svg>