<svg width="1445" height="1067" viewBox="0 0 1445 1067" fill="none" xmlns="http://www.w3.org/2000/svg">
<path d="M404.025 623.634C403.253 623.337 402.261 622.143 401.819 620.981C401.26 619.51 398.935 617.918 394.175 615.746C390.412 614.03 386.711 612.728 385.951 612.853C383.694 613.223 382.35 611.851 382.35 609.179C382.35 606.737 380.505 604.706 373.029 598.914C370.079 596.629 368.241 591.35 368.192 585.019C368.156 580.389 368.388 579.797 371.223 577.306C372.912 575.822 376.206 573.518 378.543 572.185C380.881 570.851 384.086 568.81 385.666 567.649C387.936 565.98 388.902 565.731 390.267 566.462C391.216 566.971 392.637 567.387 393.423 567.387C395.803 567.387 399.209 563.278 399.209 560.408C399.209 558.065 399.86 557.451 405.374 554.595C408.765 552.839 412.786 551.402 414.309 551.402C417.024 551.402 424.188 547.313 426.494 544.448C427.104 543.69 427.603 541.49 427.603 539.56C427.603 534.383 422.02 528.283 411.523 521.993C406.946 519.25 395.416 512.292 385.899 506.529C351.478 485.687 272.274 444.126 212.666 415.628C183.39 401.63 153.768 386.89 152.367 385.621C150.682 384.095 150.135 378.715 151.574 377.825C152.526 377.236 162.556 380.721 172.056 384.94C175.716 386.566 186.297 391.069 195.569 394.946C246.524 416.252 255.049 419.962 288.294 435.297C326.829 453.071 399.672 490.975 406.788 496.955C409.208 498.988 415.753 503.678 421.333 507.377C428.947 512.423 432.228 514.102 434.48 514.102C438.494 514.102 440.647 515.305 445.097 520.037C447.154 522.224 449.15 523.847 449.533 523.644C449.916 523.44 455.893 519.979 462.815 515.952L475.401 508.63L485.988 491.606C500.932 467.574 512.525 447.788 521.395 431.173C534.248 407.097 535.152 406.028 538.274 411.195C539.594 413.381 539.53 414.024 537.255 421.408C533.205 434.554 522.794 463.702 517.535 476.615C514.808 483.312 511.2 492.188 509.517 496.34C507.835 500.492 506.252 504.362 506 504.942C505.747 505.521 507.16 507.017 509.138 508.267C516.628 512.999 517.378 521.091 511.571 534.503C509.799 538.596 508.346 542.774 508.343 543.787C508.333 546.888 505.461 550.245 497.193 556.822C486.964 564.959 486.865 565.091 488.377 568.588C489.042 570.126 489.802 572.083 490.066 572.938C490.331 573.793 491.344 574.492 492.317 574.492C494.509 574.492 498.588 580.257 498.589 583.357C498.589 584.587 499.823 588.191 501.33 591.366C504.414 597.861 520.344 633.133 531.411 657.973C535.438 667.009 542.24 682.195 546.528 691.72C550.815 701.245 555.998 712.835 558.045 717.475C560.093 722.115 562.915 728.509 564.317 731.684C570.338 745.319 579.951 768.061 586.874 785.052C590.973 795.111 599.191 814.694 605.137 828.569C621.398 866.518 627.249 880.957 627.249 883.136C627.249 887.092 622.569 888.318 621.364 884.678C620.647 882.512 608.721 856.567 595.943 829.374C590.091 816.919 574.523 785.547 561.348 759.659C548.173 733.771 535.001 707.795 532.077 701.933C529.153 696.072 524.278 686.88 521.243 681.507C507.699 657.525 489.378 622.859 487.119 616.94C485.759 613.376 483.368 606.593 481.806 601.867C478.217 591.01 477.506 590.357 472.344 593.18C470.185 594.36 468.386 595.533 468.346 595.788C468.305 596.042 468.107 597.05 467.907 598.026C467.706 599.003 467.24 601.791 466.871 604.222C466.142 609.035 466.459 608.778 450.599 617.413L445.985 619.925L470.938 999H395.905C395.905 999 405.271 624.112 404.025 623.634ZM475.047 583.693C475.56 580.27 475.371 579.279 473.935 577.841C472.221 576.126 472.174 576.127 468.538 577.984C466.521 579.014 464.87 580.41 464.87 581.087C464.87 582.21 472.306 587.813 473.795 587.813C474.144 587.813 474.707 585.959 475.047 583.693Z" fill="#001D21"/>
<path d="M787.048 557C786.44 557 786.312 556.872 786.312 556.488V555.976C786.312 555.56 786.504 555.4 786.984 555.4H787.176C788.52 555.4 789.128 554.824 789.128 553.32V538.28C789.128 536.776 788.52 536.2 787.176 536.2H786.984C786.504 536.2 786.312 536.04 786.312 535.624V535.112C786.312 534.728 786.44 534.6 787.048 534.6H797.8C803.304 534.6 806.312 535.944 806.312 539.816C806.312 542.312 805 544.136 802.184 544.84C805.448 545.256 807.4 547.112 807.4 550.344C807.4 555.048 803.848 557 797.768 557H787.048ZM796.776 546.088L794.632 546.12V552.456C794.632 554.632 795.24 555.432 797.096 555.432H797.896C800.392 555.432 801.608 553.352 801.608 550.504C801.608 547.304 800.008 546.056 796.776 546.088ZM794.632 536.84V544.552L797.032 544.52C799.688 544.488 800.648 542.536 800.648 540.424C800.648 537.832 799.432 536.168 797 536.168H795.336C794.824 536.168 794.632 536.36 794.632 536.84Z" fill="#001D21"/>
<path d="M812.006 537.096C812.006 536.456 811.814 536.136 811.238 536.072L810.118 535.944C809.83 535.912 809.734 535.816 809.734 535.528V535.112C809.734 534.824 809.83 534.664 810.086 534.6L816.518 532.744C816.71 532.68 816.806 532.68 816.966 532.776L817.19 532.904C817.318 532.968 817.35 533.064 817.35 533.256V553.352C817.35 554.632 817.638 555.304 818.502 555.432L818.918 555.496C819.334 555.56 819.43 555.656 819.43 556.008V556.488C819.43 556.904 819.302 557 818.854 557H810.47C810.022 557 809.926 556.872 809.926 556.488V556.04C809.926 555.688 810.086 555.56 810.406 555.496L810.758 555.432C811.718 555.272 812.006 554.664 812.006 553.352V537.096Z" fill="#001D21"/>
<path d="M825.758 538.408C824.222 538.408 822.974 537.288 822.974 535.72C822.974 534.088 824.222 532.968 825.758 532.968C827.358 532.968 828.478 534.088 828.478 535.72C828.478 537.32 827.358 538.408 825.758 538.408ZM823.326 544.392C823.326 543.752 823.134 543.432 822.558 543.368L821.534 543.24C821.246 543.208 821.15 543.112 821.15 542.824V542.408C821.15 542.12 821.246 541.96 821.502 541.896L827.838 540.04C828.03 539.976 828.126 539.976 828.286 540.072L828.51 540.2C828.638 540.264 828.67 540.328 828.67 540.552V553.352C828.67 554.632 828.958 555.304 829.822 555.432L830.238 555.496C830.654 555.56 830.75 555.656 830.75 556.008V556.488C830.75 556.904 830.622 557 830.174 557H821.79C821.342 557 821.246 556.872 821.246 556.488V556.04C821.246 555.688 821.406 555.56 821.726 555.496L822.078 555.432C823.038 555.272 823.326 554.664 823.326 553.352V544.392Z" fill="#001D21"/>
<path d="M842.263 544.392C842.263 543.752 842.071 543.432 841.495 543.368L840.471 543.24C840.183 543.208 840.087 543.112 840.087 542.824V542.408C840.087 542.12 840.183 541.96 840.439 541.896L846.679 540.04C846.871 539.976 846.967 539.976 847.127 540.072L847.351 540.2C847.479 540.264 847.511 540.328 847.511 540.552V543.208C848.823 541.384 850.711 540.008 852.919 540.008C855.191 540.008 856.759 541.128 857.559 543.24C858.839 541.608 860.727 540.008 863.095 540.008C866.039 540.008 867.959 541.864 867.959 545V553.352C867.959 554.6 868.183 555.304 869.079 555.432L869.303 555.464C869.783 555.528 870.039 555.592 870.039 555.976V556.424C870.039 556.84 869.847 557 869.367 557H861.463C860.951 557 860.855 556.872 860.855 556.488V556.04C860.855 555.624 861.047 555.528 861.399 555.464L861.591 555.432C862.455 555.272 862.615 554.6 862.615 553.352V545.672C862.615 544.104 861.847 543.336 860.567 543.336C859.543 543.336 858.583 543.912 857.783 544.584V553.352C857.783 554.632 857.847 555.336 858.583 555.432L858.807 555.464C859.159 555.528 859.415 555.592 859.415 555.976V556.424C859.415 556.84 859.255 557 858.871 557H851.415C850.903 557 850.807 556.872 850.807 556.488V556.04C850.807 555.624 850.999 555.528 851.351 555.464L851.543 555.432C852.375 555.304 852.439 554.664 852.439 553.352V545.672C852.439 544.104 851.639 543.336 850.359 543.336C849.271 543.336 848.375 543.88 847.607 544.552V553.352C847.607 554.632 847.767 555.336 848.535 555.432L848.759 555.464C849.111 555.528 849.367 555.592 849.367 555.976V556.424C849.367 556.84 849.207 557 848.823 557H840.919C840.311 557 840.183 556.872 840.183 556.488V556.04C840.183 555.624 840.375 555.528 840.855 555.464L841.047 555.432C842.039 555.272 842.263 554.664 842.263 553.352V544.392Z" fill="#001D21"/>
<path d="M882.304 553.992C884 553.992 885.183 553.256 885.951 552.04C886.111 551.784 886.239 551.688 886.495 551.816L887.071 552.072C887.327 552.2 887.295 552.392 887.167 552.744C886.143 555.272 883.776 557.32 880 557.32C875.712 557.32 871.807 554.44 871.807 548.808C871.807 543.016 875.744 540.008 880.352 540.008C884.256 540.008 887.615 542.536 887.583 546.792C887.583 547.336 887.296 547.688 886.88 547.688H877.44C877.472 551.656 879.456 553.992 882.304 553.992ZM880.031 541.576C878.655 541.576 877.695 543.304 877.471 546.248H880.959C881.631 546.248 881.888 545.64 881.888 544.968C881.888 543.208 881.439 541.576 880.031 541.576Z" fill="#001D21"/>
<path d="M906.895 553.736C906.895 554.216 906.927 554.344 907.311 554.504L908.527 554.984C908.847 555.112 908.911 555.24 908.911 555.592V555.752C908.911 556.104 908.847 556.232 908.463 556.296L902.511 557.256C902.319 557.288 902.223 557.256 902.063 557.16L901.903 557.064C901.775 556.968 901.743 556.904 901.743 556.712V554.76C900.911 555.912 898.831 557.32 896.719 557.32C892.655 557.32 889.839 553.896 889.839 549.032C889.839 542.984 893.551 540.008 898.415 540.008C899.567 540.008 900.623 540.264 901.551 540.712V537.192C901.551 536.552 901.359 536.2 900.783 536.168L899.247 536.04C898.959 536.008 898.831 535.912 898.831 535.624V535.112C898.831 534.824 898.927 534.664 899.183 534.6L906.063 532.744C906.255 532.68 906.351 532.68 906.511 532.776L906.735 532.904C906.863 532.968 906.895 533.032 906.895 533.256V553.736ZM899.151 554.568C900.271 554.568 901.263 553.864 901.551 553.16V547.112C901.551 543.784 900.719 541.672 898.895 541.672C896.239 541.672 895.535 544.936 895.535 548.296C895.535 551.624 896.719 554.568 899.151 554.568Z" fill="#001D21"/>
<path d="M925.632 543.656V552.968C925.632 554.504 926.528 555.656 928.032 555.656C930.656 555.656 931.488 552.296 931.488 549C931.488 546.056 930.656 542.984 927.968 542.984C927.2 542.984 926.304 543.24 925.632 543.656ZM920.288 544.392C920.288 543.752 920.096 543.432 919.52 543.368L918.496 543.24C918.208 543.208 918.112 543.112 918.112 542.824V542.408C918.112 542.12 918.208 541.96 918.464 541.896L924.704 540.04C924.896 539.976 924.992 539.976 925.152 540.072L925.376 540.2C925.504 540.264 925.536 540.328 925.536 540.552V542.248C926.944 540.936 928.672 540.008 930.528 540.008C934.816 540.008 937.248 543.272 937.248 547.784C937.248 553.448 933.248 557.32 928.608 557.32C927.488 557.32 926.432 557.128 925.632 556.84V562.248C925.632 563.528 925.824 564.136 927.072 564.296L927.84 564.392C928.256 564.456 928.352 564.552 928.352 564.904V565.384C928.352 565.8 928.224 565.896 927.776 565.896H918.752C918.304 565.896 918.208 565.768 918.208 565.384V564.936C918.208 564.584 918.368 564.456 918.688 564.392L919.04 564.328C920 564.168 920.288 563.56 920.288 562.248V544.392Z" fill="#001D21"/>
<path d="M943.687 557.352C941.479 557.352 939.879 555.848 939.879 553.672C939.879 550.792 942.407 549.64 944.903 548.648C946.215 548.136 947.527 547.656 948.391 547.24L948.423 544.744C948.423 542.792 947.687 541.768 945.991 541.768C945.127 541.768 944.551 542.12 944.551 543.112C944.551 543.4 944.583 544.104 944.583 544.68C944.583 546.344 943.591 547.208 941.927 547.208C940.551 547.208 939.751 546.408 939.751 545.128C939.751 542.408 944.231 539.944 948.327 539.944C951.687 539.944 953.543 541.448 953.511 544.36L953.415 552.808C953.415 553.832 953.703 554.248 954.279 554.248C954.855 554.248 955.271 553.64 955.623 552.776C955.719 552.552 955.847 552.488 956.103 552.552L956.519 552.68C956.743 552.744 956.807 552.872 956.743 553.128C956.135 555.624 954.599 557.32 952.007 557.32C950.023 557.32 948.903 556.168 948.647 554.6C947.367 556.36 945.799 557.352 943.687 557.352ZM947.111 538.664C945.415 538.664 944.039 537.256 944.039 535.528C944.039 533.8 945.415 532.424 947.111 532.424C948.839 532.424 950.247 533.8 950.247 535.528C950.247 537.256 948.839 538.664 947.111 538.664ZM946.695 554.248C947.303 554.248 947.879 553.992 948.359 553.512L948.391 548.616L946.759 549.384C945.639 549.96 944.871 550.888 944.871 552.232C944.871 553.448 945.607 554.248 946.695 554.248ZM947.111 537.16C948.007 537.16 948.679 536.488 948.679 535.528C948.679 534.632 948.007 533.928 947.111 533.928C946.247 533.928 945.607 534.632 945.607 535.528C945.607 536.488 946.247 537.16 947.111 537.16Z" fill="#001D21"/>
<path d="M975.286 557H966.133C965.685 557 965.589 556.872 965.589 556.488V556.04C965.589 555.688 965.75 555.56 966.07 555.496L966.422 555.432C967.382 555.272 967.669 554.664 967.669 553.352V544.392C967.669 543.752 967.477 543.432 966.901 543.368L965.878 543.24C965.59 543.208 965.494 543.112 965.494 542.824V542.408C965.494 542.12 965.59 541.96 965.846 541.896L972.086 540.04C972.278 539.976 972.374 539.976 972.534 540.072L972.758 540.2C972.886 540.264 972.917 540.328 972.917 540.552V543.464C974.517 541.256 975.894 540.008 977.75 540.008C979.382 540.008 980.149 541.128 980.149 542.536C980.149 543.944 979.446 544.936 978.198 544.936C977.334 544.936 976.821 544.552 976.341 544.04C976.021 543.72 975.67 543.4 975.19 543.4C974.486 543.4 973.653 544.04 973.141 544.584V553.352C973.141 554.632 973.333 555.24 974.581 555.4L975.349 555.496C975.765 555.56 975.862 555.656 975.862 556.008V556.488C975.862 556.904 975.734 557 975.286 557Z" fill="#001D21"/>
<path d="M991.804 553.992C993.5 553.992 994.683 553.256 995.451 552.04C995.611 551.784 995.739 551.688 995.995 551.816L996.571 552.072C996.827 552.2 996.795 552.392 996.667 552.744C995.643 555.272 993.276 557.32 989.5 557.32C985.212 557.32 981.307 554.44 981.307 548.808C981.307 543.016 985.244 540.008 989.852 540.008C993.756 540.008 997.115 542.536 997.083 546.792C997.083 547.336 996.796 547.688 996.38 547.688H986.94C986.972 551.656 988.956 553.992 991.804 553.992ZM989.531 541.576C988.155 541.576 987.195 543.304 986.971 546.248H990.459C991.131 546.248 991.388 545.64 991.388 544.968C991.388 543.208 990.939 541.576 989.531 541.576Z" fill="#001D21"/>
<path d="M1003.88 538.408C1002.35 538.408 1001.1 537.288 1001.1 535.72C1001.1 534.088 1002.35 532.968 1003.88 532.968C1005.48 532.968 1006.6 534.088 1006.6 535.72C1006.6 537.32 1005.48 538.408 1003.88 538.408ZM1001.45 544.392C1001.45 543.752 1001.26 543.432 1000.68 543.368L999.659 543.24C999.371 543.208 999.275 543.112 999.275 542.824V542.408C999.275 542.12 999.371 541.96 999.627 541.896L1005.96 540.04C1006.15 539.976 1006.25 539.976 1006.41 540.072L1006.63 540.2C1006.76 540.264 1006.79 540.328 1006.79 540.552V553.352C1006.79 554.632 1007.08 555.304 1007.95 555.432L1008.36 555.496C1008.78 555.56 1008.87 555.656 1008.87 556.008V556.488C1008.87 556.904 1008.75 557 1008.3 557H999.915C999.467 557 999.371 556.872 999.371 556.488V556.04C999.371 555.688 999.531 555.56 999.851 555.496L1000.2 555.432C1001.16 555.272 1001.45 554.664 1001.45 553.352V544.392Z" fill="#001D21"/>
<path d="M1011.58 556.456C1011.29 556.328 1011.2 556.2 1011.2 555.848L1011.1 552.04C1011.1 551.72 1011.2 551.592 1011.45 551.56L1011.9 551.528C1012.16 551.496 1012.25 551.592 1012.35 551.816C1013.63 554.408 1014.56 555.624 1016.73 555.624C1018.36 555.624 1019.36 554.952 1019.36 553.672C1019.36 552.2 1018.33 551.592 1016.25 550.824C1012.48 549.416 1011.2 548.2 1011.2 545.192C1011.2 541.736 1013.95 540.008 1017.69 540.008C1019.36 540.008 1020.86 540.296 1021.95 540.648C1022.24 540.744 1022.33 540.84 1022.36 541.16L1022.59 544.68C1022.62 544.936 1022.52 545.032 1022.27 545.064L1021.88 545.128C1021.56 545.192 1021.44 545.096 1021.31 544.808C1020.35 542.792 1019.26 541.704 1017.56 541.704C1016.16 541.704 1015.36 542.28 1015.36 543.368C1015.36 544.712 1016.28 545.128 1018.52 545.992C1022.08 547.336 1023.36 548.808 1023.36 551.464C1023.36 555.048 1020.57 557.32 1016.64 557.32C1014.36 557.32 1012.7 556.904 1011.58 556.456Z" fill="#001D21"/>
<path d="M1036.18 553.992C1037.87 553.992 1039.06 553.256 1039.83 552.04C1039.99 551.784 1040.11 551.688 1040.37 551.816L1040.95 552.072C1041.2 552.2 1041.17 552.392 1041.04 552.744C1040.02 555.272 1037.65 557.32 1033.87 557.32C1029.59 557.32 1025.68 554.44 1025.68 548.808C1025.68 543.016 1029.62 540.008 1034.23 540.008C1038.13 540.008 1041.49 542.536 1041.46 546.792C1041.46 547.336 1041.17 547.688 1040.75 547.688H1031.31C1031.35 551.656 1033.33 553.992 1036.18 553.992ZM1033.91 541.576C1032.53 541.576 1031.57 543.304 1031.35 546.248H1034.83C1035.51 546.248 1035.76 545.64 1035.76 544.968C1035.76 543.208 1035.31 541.576 1033.91 541.576Z" fill="#001D21"/>
<path d="M1044.42 557C1043.97 557 1043.75 556.904 1043.75 556.52V556.04C1043.75 555.656 1043.91 555.56 1044.23 555.496L1044.64 555.432C1045.6 555.272 1045.83 554.664 1045.83 553.352V544.392C1045.83 543.752 1045.63 543.432 1045.06 543.368L1044.03 543.24C1043.75 543.208 1043.65 543.112 1043.65 542.824V542.408C1043.65 542.12 1043.75 541.96 1044 541.896L1050.24 540.04C1050.43 539.976 1050.53 539.976 1050.69 540.072L1050.91 540.2C1051.04 540.264 1051.07 540.328 1051.07 540.552V543.24C1052.26 541.544 1054.53 540.008 1056.71 540.008C1059.62 540.008 1061.54 541.896 1061.54 544.904V553.352C1061.54 554.632 1061.83 555.304 1062.69 555.432L1063.11 555.496C1063.52 555.56 1063.62 555.656 1063.62 556.008V556.488C1063.62 556.904 1063.49 557 1063.04 557H1054.98C1054.53 557 1054.43 556.872 1054.43 556.488V556.04C1054.43 555.688 1054.59 555.56 1054.91 555.496L1055.11 555.464C1056.07 555.304 1056.19 554.664 1056.19 553.352V545.672C1056.19 544.072 1055.36 543.336 1054.05 543.336C1052.96 543.336 1051.97 543.88 1051.17 544.584V553.352C1051.17 554.632 1051.27 555.272 1052.1 555.432L1052.45 555.496C1052.8 555.56 1052.93 555.656 1052.93 556.008V556.424C1052.93 556.84 1052.77 557 1052.32 557H1044.42Z" fill="#001D21"/>
<path d="M1079.89 538.568V540.328H1083.41C1083.7 540.328 1083.76 540.456 1083.7 540.744L1083.28 542.568C1083.22 542.888 1083.09 543.016 1082.74 543.016H1079.89V553.352C1079.89 554.664 1080.18 555.272 1081.14 555.432L1081.49 555.496C1081.81 555.56 1081.97 555.688 1081.97 556.04V556.488C1081.97 556.872 1081.87 557 1081.43 557H1073.07C1072.63 557 1072.53 556.872 1072.53 556.488V556.04C1072.53 555.688 1072.69 555.56 1073.01 555.496L1073.36 555.432C1074.32 555.272 1074.61 554.664 1074.61 553.352V543.016H1072.63C1072.34 543.016 1072.24 542.888 1072.34 542.568L1072.82 540.776C1072.91 540.424 1073.01 540.328 1073.33 540.328H1074.61V539.656C1074.61 536.04 1077.11 532.68 1082.07 532.68C1084.37 532.68 1085.91 533.832 1085.91 535.624C1085.91 536.904 1085.11 537.672 1083.99 537.672C1082.93 537.672 1082.26 537.064 1082.07 535.56C1081.94 534.728 1081.75 534.376 1081.39 534.376C1080.43 534.376 1079.89 535.784 1079.89 538.568Z" fill="#001D21"/>
<path d="M1093.61 557.32C1088.62 557.32 1084.78 554.536 1084.78 548.552C1084.78 543.304 1088.94 540.008 1093.83 540.008C1099.21 540.008 1102.6 543.464 1102.6 548.552C1102.6 553.8 1099.18 557.32 1093.61 557.32ZM1094.02 555.656C1096.62 555.656 1096.9 552.136 1096.9 549.672C1096.9 546.024 1096.33 541.672 1093.61 541.672C1091.18 541.672 1090.47 545.096 1090.47 547.624C1090.47 551.368 1091.3 555.656 1094.02 555.656Z" fill="#001D21"/>
<path d="M1114.57 557H1105.41C1104.97 557 1104.87 556.872 1104.87 556.488V556.04C1104.87 555.688 1105.03 555.56 1105.35 555.496L1105.7 555.432C1106.66 555.272 1106.95 554.664 1106.95 553.352V544.392C1106.95 543.752 1106.76 543.432 1106.18 543.368L1105.16 543.24C1104.87 543.208 1104.77 543.112 1104.77 542.824V542.408C1104.77 542.12 1104.87 541.96 1105.13 541.896L1111.37 540.04C1111.56 539.976 1111.65 539.976 1111.81 540.072L1112.04 540.2C1112.17 540.264 1112.2 540.328 1112.2 540.552V543.464C1113.8 541.256 1115.17 540.008 1117.03 540.008C1118.66 540.008 1119.43 541.128 1119.43 542.536C1119.43 543.944 1118.73 544.936 1117.48 544.936C1116.61 544.936 1116.1 544.552 1115.62 544.04C1115.3 543.72 1114.95 543.4 1114.47 543.4C1113.77 543.4 1112.93 544.04 1112.42 544.584V553.352C1112.42 554.632 1112.61 555.24 1113.86 555.4L1114.63 555.496C1115.05 555.56 1115.14 555.656 1115.14 556.008V556.488C1115.14 556.904 1115.01 557 1114.57 557Z" fill="#001D21"/>
<path d="M1132 557.352C1129.79 557.352 1128.19 555.848 1128.19 553.672C1128.19 550.792 1130.72 549.64 1133.22 548.648C1134.53 548.136 1135.84 547.656 1136.7 547.24L1136.74 544.744C1136.74 542.792 1136 541.768 1134.3 541.768C1133.44 541.768 1132.86 542.12 1132.86 543.112C1132.86 543.4 1132.9 544.104 1132.9 544.68C1132.9 546.344 1131.9 547.208 1130.24 547.208C1128.86 547.208 1128.06 546.408 1128.06 545.128C1128.06 542.408 1132.54 539.944 1136.64 539.944C1140 539.944 1141.86 541.448 1141.82 544.36L1141.73 552.808C1141.73 553.832 1142.02 554.248 1142.59 554.248C1143.17 554.248 1143.58 553.64 1143.94 552.776C1144.03 552.552 1144.16 552.488 1144.42 552.552L1144.83 552.68C1145.06 552.744 1145.12 552.872 1145.06 553.128C1144.45 555.624 1142.91 557.32 1140.32 557.32C1138.34 557.32 1137.22 556.168 1136.96 554.6C1135.68 556.36 1134.11 557.352 1132 557.352ZM1135.42 538.664C1133.73 538.664 1132.35 537.256 1132.35 535.528C1132.35 533.8 1133.73 532.424 1135.42 532.424C1137.15 532.424 1138.56 533.8 1138.56 535.528C1138.56 537.256 1137.15 538.664 1135.42 538.664ZM1135.01 554.248C1135.62 554.248 1136.19 553.992 1136.67 553.512L1136.7 548.616L1135.07 549.384C1133.95 549.96 1133.18 550.888 1133.18 552.232C1133.18 553.448 1133.92 554.248 1135.01 554.248ZM1135.42 537.16C1136.32 537.16 1136.99 536.488 1136.99 535.528C1136.99 534.632 1136.32 533.928 1135.42 533.928C1134.56 533.928 1133.92 534.632 1133.92 535.528C1133.92 536.488 1134.56 537.16 1135.42 537.16Z" fill="#001D21"/>
<path d="M1153.29 562.024C1153.29 560.072 1155.09 559.016 1157.1 558.632C1155.47 558.28 1154.19 556.872 1154.19 555.176C1154.19 552.904 1155.76 551.752 1157.39 550.984C1155.44 550.024 1154.41 548.328 1154.41 546.056C1154.41 542.088 1157.77 540.008 1162.32 540.008C1164.24 540.008 1165.93 540.488 1167.21 541.416C1168.4 540.36 1169.55 539.72 1170.96 539.72C1172.37 539.72 1173.17 540.488 1173.17 541.736C1173.17 542.664 1172.56 543.336 1171.66 543.336C1170.93 543.336 1170.48 543.016 1170.13 542.504C1169.81 542.024 1169.55 541.8 1169.17 541.8C1168.78 541.8 1168.53 541.928 1168.14 542.248C1168.94 543.176 1169.42 544.392 1169.42 545.864C1169.42 549.64 1166.32 551.912 1161.93 551.912C1160.72 551.912 1159.63 551.784 1158.7 551.528C1158.19 551.848 1157.84 552.392 1157.84 552.968C1157.84 554.088 1158.73 554.408 1160.05 554.408H1165.42C1169.58 554.408 1171.73 555.912 1171.73 559.464C1171.73 563.944 1167.73 566.216 1161.45 566.216C1157.36 566.216 1153.29 565.32 1153.29 562.024ZM1167.92 561.288C1167.92 559.752 1166.86 559.112 1164.69 559.112H1160.21C1158.25 559.112 1157.04 560.04 1157.04 561.512C1157.04 563.56 1158.93 564.648 1162 564.648C1165.39 564.648 1167.92 563.4 1167.92 561.288ZM1164.27 546.312C1164.27 543.752 1163.69 541.672 1161.97 541.672C1160.21 541.672 1159.6 543.72 1159.6 545.704C1159.6 548.04 1160.21 550.248 1162.06 550.248C1163.85 550.248 1164.3 548.2 1164.27 546.312Z" fill="#001D21"/>
<path d="M1178 538.408C1176.47 538.408 1175.22 537.288 1175.22 535.72C1175.22 534.088 1176.47 532.968 1178 532.968C1179.6 532.968 1180.72 534.088 1180.72 535.72C1180.72 537.32 1179.6 538.408 1178 538.408ZM1175.64 544.392C1175.64 543.752 1175.44 543.432 1174.87 543.368L1173.84 543.24C1173.56 543.208 1173.46 543.112 1173.46 542.824V542.408C1173.46 542.12 1173.56 541.96 1173.81 541.896L1180.15 540.04C1180.34 539.976 1180.44 539.976 1180.6 540.072L1180.82 540.2C1180.95 540.264 1180.98 540.328 1180.98 540.552V557.224C1180.98 562.632 1177.27 566.216 1172.28 566.216C1170.45 566.216 1168.6 565.256 1168.6 563.528C1168.6 562.312 1169.43 561.416 1170.77 561.416C1171.76 561.416 1172.4 562.056 1172.85 562.92C1173.27 563.72 1173.59 564.296 1174.13 564.296C1175.09 564.296 1175.64 563.016 1175.64 561.16V544.392Z" fill="#001D21"/>
<path d="M1200.4 541.032L1199.6 542.024C1201.36 543.528 1202.35 545.8 1202.35 548.552C1202.35 553.8 1198.93 557.32 1193.36 557.32C1191.34 557.32 1189.52 556.872 1188.05 555.944L1186.93 557.352C1186.7 557.64 1186.54 557.672 1186.25 557.448L1185.9 557.16C1185.61 556.904 1185.58 556.744 1185.81 556.456L1186.93 555.08C1185.42 553.64 1184.53 551.464 1184.53 548.552C1184.53 543.304 1188.69 540.008 1193.58 540.008C1195.44 540.008 1197.07 540.424 1198.38 541.192L1199.28 540.104C1199.53 539.784 1199.69 539.784 1199.95 539.976L1200.4 540.328C1200.69 540.552 1200.65 540.712 1200.4 541.032ZM1193.77 555.656C1196.37 555.656 1196.75 552.136 1196.75 549.672C1196.75 548.456 1196.65 547.176 1196.46 545.992L1190.86 552.872C1191.44 554.504 1192.37 555.656 1193.77 555.656ZM1190.16 547.624C1190.16 548.808 1190.22 550.024 1190.45 551.144L1196.05 544.232C1195.53 542.728 1194.7 541.672 1193.36 541.672C1190.93 541.672 1190.16 545.096 1190.16 547.624Z" fill="#001D21"/>
<path d="M1214.32 557H1205.16C1204.72 557 1204.62 556.872 1204.62 556.488V556.04C1204.62 555.688 1204.78 555.56 1205.1 555.496L1205.45 555.432C1206.41 555.272 1206.7 554.664 1206.7 553.352V544.392C1206.7 543.752 1206.51 543.432 1205.93 543.368L1204.91 543.24C1204.62 543.208 1204.52 543.112 1204.52 542.824V542.408C1204.52 542.12 1204.62 541.96 1204.88 541.896L1211.12 540.04C1211.31 539.976 1211.4 539.976 1211.56 540.072L1211.79 540.2C1211.92 540.264 1211.95 540.328 1211.95 540.552V543.464C1213.55 541.256 1214.92 540.008 1216.78 540.008C1218.41 540.008 1219.18 541.128 1219.18 542.536C1219.18 543.944 1218.48 544.936 1217.23 544.936C1216.36 544.936 1215.85 544.552 1215.37 544.04C1215.05 543.72 1214.7 543.4 1214.22 543.4C1213.52 543.4 1212.68 544.04 1212.17 544.584V553.352C1212.17 554.632 1212.36 555.24 1213.61 555.4L1214.38 555.496C1214.8 555.56 1214.89 555.656 1214.89 556.008V556.488C1214.89 556.904 1214.76 557 1214.32 557Z" fill="#001D21"/>
<path d="M1230.83 553.992C1232.53 553.992 1233.71 553.256 1234.48 552.04C1234.64 551.784 1234.77 551.688 1235.03 551.816L1235.6 552.072C1235.86 552.2 1235.83 552.392 1235.7 552.744C1234.67 555.272 1232.31 557.32 1228.53 557.32C1224.24 557.32 1220.34 554.44 1220.34 548.808C1220.34 543.016 1224.27 540.008 1228.88 540.008C1232.79 540.008 1236.15 542.536 1236.11 546.792C1236.11 547.336 1235.83 547.688 1235.41 547.688H1225.97C1226 551.656 1227.99 553.992 1230.83 553.992ZM1228.56 541.576C1227.19 541.576 1226.23 543.304 1226 546.248H1229.49C1230.16 546.248 1230.42 545.64 1230.42 544.968C1230.42 543.208 1229.97 541.576 1228.56 541.576Z" fill="#001D21"/>
<path d="M804.648 594.584L790.76 578.264V587.768C790.76 591.928 791.496 593.176 793.608 593.368L793.96 593.4C794.408 593.432 794.568 593.528 794.568 593.944V594.552C794.568 594.872 794.44 595 794.088 595H786.024C785.64 595 785.448 594.904 785.448 594.52V593.944C785.448 593.56 785.64 593.432 785.992 593.4L786.376 593.368C788.296 593.208 788.936 591.928 788.936 587.768V577.208C788.936 575.032 787.592 574.2 786.216 574.2H786.152C785.672 574.2 785.48 574.04 785.48 573.624V573.144C785.48 572.76 785.576 572.6 786.184 572.6H792.392C793.192 572.6 793.544 572.792 793.992 573.304L805.704 587.032V578.968C805.704 575.576 804.84 574.36 803.272 574.232L802.888 574.2C802.376 574.168 802.184 574.04 802.184 573.656V573.144C802.184 572.728 802.376 572.6 802.76 572.6H810.248C810.728 572.6 810.856 572.728 810.856 573.112V573.656C810.856 574.04 810.76 574.136 810.248 574.2L809.928 574.232C808.232 574.392 807.528 575.576 807.528 579.032V594.392C807.528 594.808 807.4 595 806.92 595H805.48C805.096 595 804.904 594.872 804.648 594.584Z" fill="#001D21"/>
<path d="M820.827 595.32C815.835 595.32 811.995 592.536 811.995 586.552C811.995 581.304 816.155 578.008 821.051 578.008C826.427 578.008 829.819 581.464 829.819 586.552C829.819 591.8 826.395 595.32 820.827 595.32ZM821.243 593.656C823.835 593.656 824.123 590.136 824.123 587.672C824.123 584.024 823.547 579.672 820.827 579.672C818.395 579.672 817.691 583.096 817.691 585.624C817.691 589.368 818.523 593.656 821.243 593.656Z" fill="#001D21"/>
<path d="M841.786 595H832.633C832.185 595 832.089 594.872 832.089 594.488V594.04C832.089 593.688 832.25 593.56 832.57 593.496L832.922 593.432C833.882 593.272 834.169 592.664 834.169 591.352V582.392C834.169 581.752 833.977 581.432 833.401 581.368L832.378 581.24C832.09 581.208 831.994 581.112 831.994 580.824V580.408C831.994 580.12 832.09 579.96 832.346 579.896L838.586 578.04C838.778 577.976 838.874 577.976 839.034 578.072L839.258 578.2C839.386 578.264 839.417 578.328 839.417 578.552V581.464C841.017 579.256 842.394 578.008 844.25 578.008C845.882 578.008 846.649 579.128 846.649 580.536C846.649 581.944 845.946 582.936 844.698 582.936C843.834 582.936 843.321 582.552 842.841 582.04C842.521 581.72 842.17 581.4 841.69 581.4C840.986 581.4 840.153 582.04 839.641 582.584V591.352C839.641 592.632 839.833 593.24 841.081 593.4L841.849 593.496C842.265 593.56 842.362 593.656 842.362 594.008V594.488C842.362 594.904 842.234 595 841.786 595Z" fill="#001D21"/>
<path d="M847.388 600.024C847.388 598.072 849.18 597.016 851.196 596.632C849.564 596.28 848.284 594.872 848.284 593.176C848.284 590.904 849.852 589.752 851.484 588.984C849.532 588.024 848.508 586.328 848.508 584.056C848.508 580.088 851.868 578.008 856.412 578.008C858.332 578.008 860.028 578.488 861.308 579.416C862.492 578.36 863.644 577.72 865.052 577.72C866.46 577.72 867.26 578.488 867.26 579.736C867.26 580.664 866.652 581.336 865.756 581.336C865.02 581.336 864.572 581.016 864.22 580.504C863.9 580.024 863.644 579.8 863.26 579.8C862.876 579.8 862.62 579.928 862.236 580.248C863.036 581.176 863.516 582.392 863.516 583.864C863.516 587.64 860.412 589.912 856.028 589.912C854.812 589.912 853.724 589.784 852.796 589.528C852.284 589.848 851.932 590.392 851.932 590.968C851.932 592.088 852.828 592.408 854.14 592.408H859.516C863.676 592.408 865.82 593.912 865.82 597.464C865.82 601.944 861.82 604.216 855.548 604.216C851.452 604.216 847.388 603.32 847.388 600.024ZM862.012 599.288C862.012 597.752 860.956 597.112 858.78 597.112H854.3C852.348 597.112 851.132 598.04 851.132 599.512C851.132 601.56 853.02 602.648 856.092 602.648C859.484 602.648 862.012 601.4 862.012 599.288ZM858.364 584.312C858.364 581.752 857.788 579.672 856.06 579.672C854.3 579.672 853.692 581.72 853.692 583.704C853.692 586.04 854.3 588.248 856.156 588.248C857.948 588.248 858.396 586.2 858.364 584.312Z" fill="#001D21"/>
<path d="M878.085 591.992C879.781 591.992 880.965 591.256 881.733 590.04C881.893 589.784 882.021 589.688 882.277 589.816L882.853 590.072C883.109 590.2 883.077 590.392 882.949 590.744C881.925 593.272 879.557 595.32 875.781 595.32C871.493 595.32 867.589 592.44 867.589 586.808C867.589 581.016 871.525 578.008 876.133 578.008C880.037 578.008 883.397 580.536 883.365 584.792C883.365 585.336 883.077 585.688 882.661 585.688H873.221C873.253 589.656 875.237 591.992 878.085 591.992ZM875.813 579.576C874.437 579.576 873.477 581.304 873.253 584.248H876.741C877.413 584.248 877.669 583.64 877.669 582.968C877.669 581.208 877.221 579.576 875.813 579.576Z" fill="#001D21"/>
<path d="M895.388 582.392C895.388 581.752 895.196 581.432 894.62 581.368L893.596 581.24C893.308 581.208 893.212 581.112 893.212 580.824V580.408C893.212 580.12 893.308 579.96 893.564 579.896L899.804 578.04C899.996 577.976 900.092 577.976 900.252 578.072L900.476 578.2C900.604 578.264 900.636 578.328 900.636 578.552V581.208C901.948 579.384 903.836 578.008 906.044 578.008C908.316 578.008 909.884 579.128 910.684 581.24C911.964 579.608 913.852 578.008 916.22 578.008C919.164 578.008 921.084 579.864 921.084 583V591.352C921.084 592.6 921.308 593.304 922.204 593.432L922.428 593.464C922.908 593.528 923.164 593.592 923.164 593.976V594.424C923.164 594.84 922.972 595 922.492 595H914.588C914.076 595 913.98 594.872 913.98 594.488V594.04C913.98 593.624 914.172 593.528 914.524 593.464L914.716 593.432C915.58 593.272 915.74 592.6 915.74 591.352V583.672C915.74 582.104 914.972 581.336 913.692 581.336C912.668 581.336 911.708 581.912 910.908 582.584V591.352C910.908 592.632 910.972 593.336 911.708 593.432L911.932 593.464C912.284 593.528 912.54 593.592 912.54 593.976V594.424C912.54 594.84 912.38 595 911.996 595H904.54C904.028 595 903.932 594.872 903.932 594.488V594.04C903.932 593.624 904.124 593.528 904.476 593.464L904.668 593.432C905.5 593.304 905.564 592.664 905.564 591.352V583.672C905.564 582.104 904.764 581.336 903.484 581.336C902.396 581.336 901.5 581.88 900.732 582.552V591.352C900.732 592.632 900.892 593.336 901.66 593.432L901.884 593.464C902.236 593.528 902.492 593.592 902.492 593.976V594.424C902.492 594.84 902.332 595 901.948 595H894.044C893.436 595 893.308 594.872 893.308 594.488V594.04C893.308 593.624 893.5 593.528 893.98 593.464L894.172 593.432C895.164 593.272 895.388 592.664 895.388 591.352V582.392Z" fill="#001D21"/>
<path d="M935.429 591.992C937.125 591.992 938.308 591.256 939.076 590.04C939.236 589.784 939.364 589.688 939.62 589.816L940.196 590.072C940.452 590.2 940.42 590.392 940.292 590.744C939.268 593.272 936.901 595.32 933.125 595.32C928.837 595.32 924.932 592.44 924.932 586.808C924.932 581.016 928.869 578.008 933.477 578.008C937.381 578.008 940.74 580.536 940.708 584.792C940.708 585.336 940.421 585.688 940.005 585.688H930.565C930.597 589.656 932.581 591.992 935.429 591.992ZM933.156 579.576C931.78 579.576 930.82 581.304 930.596 584.248H934.084C934.756 584.248 935.013 583.64 935.013 582.968C935.013 581.208 934.564 579.576 933.156 579.576Z" fill="#001D21"/>
<path d="M952.692 595H943.54C943.092 595 942.996 594.872 942.996 594.488V594.04C942.996 593.688 943.156 593.56 943.476 593.496L943.828 593.432C944.788 593.272 945.076 592.664 945.076 591.352V582.392C945.076 581.752 944.884 581.432 944.308 581.368L943.284 581.24C942.996 581.208 942.9 581.112 942.9 580.824V580.408C942.9 580.12 942.996 579.96 943.252 579.896L949.492 578.04C949.684 577.976 949.78 577.976 949.94 578.072L950.164 578.2C950.292 578.264 950.324 578.328 950.324 578.552V581.464C951.924 579.256 953.3 578.008 955.156 578.008C956.788 578.008 957.556 579.128 957.556 580.536C957.556 581.944 956.852 582.936 955.604 582.936C954.74 582.936 954.228 582.552 953.748 582.04C953.428 581.72 953.076 581.4 952.596 581.4C951.892 581.4 951.06 582.04 950.548 582.584V591.352C950.548 592.632 950.74 593.24 951.988 593.4L952.756 593.496C953.172 593.56 953.268 593.656 953.268 594.008V594.488C953.268 594.904 953.14 595 952.692 595Z" fill="#001D21"/>
<path d="M967.245 575.096C967.245 574.456 967.053 574.136 966.477 574.072L965.357 573.944C965.069 573.912 964.972 573.784 964.972 573.496V573.08C964.972 572.792 965.069 572.664 965.325 572.6L971.756 570.744C971.948 570.68 972.045 570.68 972.205 570.776L972.429 570.904C972.557 570.968 972.589 571.032 972.589 571.256V580.152C973.805 579.032 975.565 578.008 977.549 578.008C982.093 578.008 984.205 581.624 984.205 585.848C984.205 591.352 980.301 595.32 975.469 595.32C973.517 595.32 971.725 594.68 970.253 593.464L968.589 594.936C968.397 595.096 968.269 595.16 967.981 595.16H967.628C967.372 595.16 967.245 595.032 967.245 594.744V575.096ZM972.589 591.128C972.589 592.6 973.708 593.656 975.052 593.656C978.028 593.656 978.445 589.528 978.445 586.68C978.445 584.184 977.645 580.984 974.989 580.984C974.157 580.984 973.229 581.272 972.589 581.656V591.128Z" fill="#001D21"/>
<path d="M995.136 578.008C996.96 578.008 998.209 578.616 998.977 579.512C1000.38 578.488 1002.11 578.008 1003.81 578.008C1007.71 578.008 1010.72 580.696 1010.72 584.792C1010.72 585.336 1010.43 585.688 1010.02 585.688H1000.58C1000.61 589.656 1002.66 591.992 1005.5 591.992C1007.2 591.992 1008.38 591.256 1009.15 590.04C1009.31 589.784 1009.44 589.688 1009.7 589.816L1010.27 590.072C1010.53 590.2 1010.5 590.392 1010.37 590.744C1009.34 593.272 1007.04 595.32 1003.46 595.32C1000.19 595.32 998.048 594.04 996.8 592.056C995.232 594.168 993.056 595.416 990.656 595.416C988 595.416 986.688 593.816 986.688 591.64C986.688 588.664 989.441 587.608 991.937 586.712C993.281 586.232 994.529 585.752 995.393 585.304V583.256C995.393 581.144 994.689 579.768 992.929 579.768C992.065 579.768 991.489 580.12 991.489 581.112C991.489 581.4 991.521 582.104 991.521 582.68C991.521 584.344 990.529 585.208 988.865 585.208C987.489 585.208 986.688 584.408 986.688 583.128C986.688 580.408 991.04 578.008 995.136 578.008ZM1003.17 579.48C1001.79 579.48 1000.83 581.304 1000.61 584.248H1004.1C1004.77 584.248 1005.02 583.64 1005.02 582.968C1005.02 581.208 1004.58 579.48 1003.17 579.48ZM993.568 592.28C994.528 592.28 995.488 591.8 996.256 591C995.68 589.72 995.393 588.248 995.393 586.68L993.792 587.448C992.672 588.024 991.904 589.048 991.904 590.392C991.904 591.384 992.48 592.28 993.568 592.28Z" fill="#001D21"/>
<path d="M1022.69 595H1013.54C1013.09 595 1013 594.872 1013 594.488V594.04C1013 593.688 1013.16 593.56 1013.48 593.496L1013.83 593.432C1014.79 593.272 1015.08 592.664 1015.08 591.352V582.392C1015.08 581.752 1014.88 581.432 1014.31 581.368L1013.28 581.24C1013 581.208 1012.9 581.112 1012.9 580.824V580.408C1012.9 580.12 1013 579.96 1013.25 579.896L1019.49 578.04C1019.68 577.976 1019.78 577.976 1019.94 578.072L1020.16 578.2C1020.29 578.264 1020.32 578.328 1020.32 578.552V581.464C1021.92 579.256 1023.3 578.008 1025.16 578.008C1026.79 578.008 1027.56 579.128 1027.56 580.536C1027.56 581.944 1026.85 582.936 1025.6 582.936C1024.74 582.936 1024.23 582.552 1023.75 582.04C1023.43 581.72 1023.08 581.4 1022.6 581.4C1021.89 581.4 1021.06 582.04 1020.55 582.584V591.352C1020.55 592.632 1020.74 593.24 1021.99 593.4L1022.76 593.496C1023.17 593.56 1023.27 593.656 1023.27 594.008V594.488C1023.27 594.904 1023.14 595 1022.69 595Z" fill="#001D21"/>
<path d="M1039.21 591.992C1040.91 591.992 1042.09 591.256 1042.86 590.04C1043.02 589.784 1043.15 589.688 1043.4 589.816L1043.98 590.072C1044.23 590.2 1044.2 590.392 1044.07 590.744C1043.05 593.272 1040.68 595.32 1036.91 595.32C1032.62 595.32 1028.71 592.44 1028.71 586.808C1028.71 581.016 1032.65 578.008 1037.26 578.008C1041.16 578.008 1044.52 580.536 1044.49 584.792C1044.49 585.336 1044.2 585.688 1043.79 585.688H1034.35C1034.38 589.656 1036.36 591.992 1039.21 591.992ZM1036.94 579.576C1035.56 579.576 1034.6 581.304 1034.38 584.248H1037.87C1038.54 584.248 1038.79 583.64 1038.79 582.968C1038.79 581.208 1038.35 579.576 1036.94 579.576Z" fill="#001D21"/>
<path d="M1048.38 575.096C1048.38 574.456 1048.19 574.136 1047.61 574.072L1046.49 573.944C1046.2 573.912 1046.11 573.816 1046.11 573.528V573.112C1046.11 572.824 1046.2 572.664 1046.46 572.6L1052.89 570.744C1053.08 570.68 1053.18 570.68 1053.34 570.776L1053.56 570.904C1053.69 570.968 1053.72 571.032 1053.72 571.256V585.592H1054.68L1058.36 582.2C1058.88 581.72 1059.1 581.272 1059.1 580.888C1059.1 580.344 1058.62 579.96 1057.88 579.896L1057.53 579.864C1057.05 579.832 1056.86 579.736 1056.86 579.352V578.904C1056.86 578.488 1057.05 578.328 1057.53 578.328H1064.57C1065.18 578.328 1065.31 578.456 1065.31 578.84V579.288C1065.31 579.672 1065.18 579.768 1064.67 579.864C1063.45 580.12 1062.24 580.92 1060.25 582.616L1058.59 584.056L1063.42 591.352C1063.96 592.152 1064.67 593.336 1065.6 593.464C1066.08 593.528 1066.27 593.624 1066.27 594.04V594.488C1066.27 594.872 1066.14 595 1065.53 595H1057.76C1057.28 595 1057.08 594.84 1057.08 594.424V593.976C1057.08 593.624 1057.31 593.496 1057.6 593.464L1057.82 593.432C1058.68 593.304 1058.27 592.344 1057.56 591.352L1054.94 587.256H1053.72V591.352C1053.72 592.504 1053.82 593.336 1054.59 593.432L1054.81 593.464C1055.16 593.528 1055.42 593.592 1055.42 593.976V594.424C1055.42 594.84 1055.26 595 1054.88 595H1047.04C1046.43 595 1046.3 594.872 1046.3 594.488V594.04C1046.3 593.624 1046.49 593.528 1046.97 593.464L1047.16 593.432C1048.16 593.272 1048.38 592.664 1048.38 591.352V575.096Z" fill="#001D21"/>
<path d="M1077.44 595H1068.29C1067.84 595 1067.75 594.872 1067.75 594.488V594.04C1067.75 593.688 1067.91 593.56 1068.23 593.496L1068.58 593.432C1069.54 593.272 1069.83 592.664 1069.83 591.352V582.392C1069.83 581.752 1069.63 581.432 1069.06 581.368L1068.03 581.24C1067.75 581.208 1067.65 581.112 1067.65 580.824V580.408C1067.65 580.12 1067.75 579.96 1068 579.896L1074.24 578.04C1074.43 577.976 1074.53 577.976 1074.69 578.072L1074.91 578.2C1075.04 578.264 1075.07 578.328 1075.07 578.552V581.464C1076.67 579.256 1078.05 578.008 1079.91 578.008C1081.54 578.008 1082.31 579.128 1082.31 580.536C1082.31 581.944 1081.6 582.936 1080.35 582.936C1079.49 582.936 1078.98 582.552 1078.5 582.04C1078.18 581.72 1077.83 581.4 1077.35 581.4C1076.64 581.4 1075.81 582.04 1075.3 582.584V591.352C1075.3 592.632 1075.49 593.24 1076.74 593.4L1077.51 593.496C1077.92 593.56 1078.02 593.656 1078.02 594.008V594.488C1078.02 594.904 1077.89 595 1077.44 595Z" fill="#001D21"/>
<path d="M1087.87 595.352C1085.67 595.352 1084.07 593.848 1084.07 591.672C1084.07 588.792 1086.59 587.64 1089.09 586.648C1090.4 586.136 1091.71 585.656 1092.58 585.24L1092.61 582.744C1092.61 580.792 1091.87 579.768 1090.18 579.768C1089.31 579.768 1088.74 580.12 1088.74 581.112C1088.74 581.4 1088.77 582.104 1088.77 582.68C1088.77 584.344 1087.78 585.208 1086.11 585.208C1084.74 585.208 1083.94 584.408 1083.94 583.128C1083.94 580.408 1088.42 577.944 1092.51 577.944C1095.87 577.944 1097.73 579.448 1097.7 582.36L1097.6 590.808C1097.6 591.832 1097.89 592.248 1098.47 592.248C1099.04 592.248 1099.46 591.64 1099.81 590.776C1099.91 590.552 1100.03 590.488 1100.29 590.552L1100.71 590.68C1100.93 590.744 1100.99 590.872 1100.93 591.128C1100.32 593.624 1098.79 595.32 1096.19 595.32C1094.21 595.32 1093.09 594.168 1092.83 592.6C1091.55 594.36 1089.99 595.352 1087.87 595.352ZM1090.88 592.248C1091.49 592.248 1092.07 591.992 1092.55 591.512L1092.58 586.616L1090.95 587.384C1089.83 587.96 1089.06 588.888 1089.06 590.232C1089.06 591.448 1089.79 592.248 1090.88 592.248Z" fill="#001D21"/>
<path d="M1109.11 576.568V578.328H1112.63C1112.92 578.328 1112.98 578.456 1112.92 578.744L1112.5 580.568C1112.44 580.888 1112.31 581.016 1111.96 581.016H1109.11V591.352C1109.11 592.664 1109.4 593.272 1110.36 593.432L1110.71 593.496C1111.03 593.56 1111.19 593.688 1111.19 594.04V594.488C1111.19 594.872 1111.09 595 1110.64 595H1102.29C1101.84 595 1101.75 594.872 1101.75 594.488V594.04C1101.75 593.688 1101.91 593.56 1102.23 593.496L1102.58 593.432C1103.54 593.272 1103.83 592.664 1103.83 591.352V581.016H1101.84C1101.56 581.016 1101.46 580.888 1101.56 580.568L1102.04 578.776C1102.13 578.424 1102.23 578.328 1102.55 578.328H1103.83V577.656C1103.83 574.04 1106.32 570.68 1111.28 570.68C1113.59 570.68 1115.12 571.832 1115.12 573.624C1115.12 574.904 1114.32 575.672 1113.2 575.672C1112.15 575.672 1111.48 575.064 1111.28 573.56C1111.16 572.728 1110.96 572.376 1110.61 572.376C1109.65 572.376 1109.11 573.784 1109.11 576.568Z" fill="#001D21"/>
<path d="M1124.91 581.208H1121.16V589.848C1121.16 591.416 1121.74 592.216 1122.95 592.216C1123.63 592.216 1124.3 592.024 1124.94 591.64C1125.19 591.48 1125.35 591.48 1125.55 591.736L1125.8 592.056C1125.99 592.28 1125.99 592.472 1125.77 592.728C1124.52 594.136 1122.8 595.256 1120.17 595.256C1117.64 595.256 1115.88 593.944 1115.88 590.392V581.208H1114.12C1113.84 581.208 1113.68 581.08 1113.68 580.76V580.376C1113.68 580.024 1113.74 579.896 1114.03 579.736C1115.82 578.68 1118.35 576.12 1119.63 574.552C1119.85 574.264 1120.01 574.168 1120.3 574.168H1120.81C1121.07 574.168 1121.16 574.296 1121.16 574.584V578.328H1125.68C1125.96 578.328 1126.03 578.456 1125.96 578.744L1125.45 580.792C1125.36 581.144 1125.26 581.208 1124.91 581.208Z" fill="#001D21"/>
<path d="M1132.23 576.408C1130.69 576.408 1129.44 575.288 1129.44 573.72C1129.44 572.088 1130.69 570.968 1132.23 570.968C1133.83 570.968 1134.95 572.088 1134.95 573.72C1134.95 575.32 1133.83 576.408 1132.23 576.408ZM1129.79 582.392C1129.79 581.752 1129.6 581.432 1129.03 581.368L1128 581.24C1127.71 581.208 1127.62 581.112 1127.62 580.824V580.408C1127.62 580.12 1127.71 579.96 1127.97 579.896L1134.31 578.04C1134.5 577.976 1134.59 577.976 1134.75 578.072L1134.98 578.2C1135.11 578.264 1135.14 578.328 1135.14 578.552V591.352C1135.14 592.632 1135.43 593.304 1136.29 593.432L1136.71 593.496C1137.12 593.56 1137.22 593.656 1137.22 594.008V594.488C1137.22 594.904 1137.09 595 1136.64 595H1128.26C1127.81 595 1127.71 594.872 1127.71 594.488V594.04C1127.71 593.688 1127.87 593.56 1128.19 593.496L1128.55 593.432C1129.51 593.272 1129.79 592.664 1129.79 591.352V582.392Z" fill="#001D21"/>
<path d="M1138.39 600.024C1138.39 598.072 1140.18 597.016 1142.2 596.632C1140.56 596.28 1139.28 594.872 1139.28 593.176C1139.28 590.904 1140.85 589.752 1142.48 588.984C1140.53 588.024 1139.51 586.328 1139.51 584.056C1139.51 580.088 1142.87 578.008 1147.41 578.008C1149.33 578.008 1151.03 578.488 1152.31 579.416C1153.49 578.36 1154.64 577.72 1156.05 577.72C1157.46 577.72 1158.26 578.488 1158.26 579.736C1158.26 580.664 1157.65 581.336 1156.76 581.336C1156.02 581.336 1155.57 581.016 1155.22 580.504C1154.9 580.024 1154.64 579.8 1154.26 579.8C1153.88 579.8 1153.62 579.928 1153.24 580.248C1154.04 581.176 1154.52 582.392 1154.52 583.864C1154.52 587.64 1151.41 589.912 1147.03 589.912C1145.81 589.912 1144.72 589.784 1143.8 589.528C1143.28 589.848 1142.93 590.392 1142.93 590.968C1142.93 592.088 1143.83 592.408 1145.14 592.408H1150.52C1154.68 592.408 1156.82 593.912 1156.82 597.464C1156.82 601.944 1152.82 604.216 1146.55 604.216C1142.45 604.216 1138.39 603.32 1138.39 600.024ZM1153.01 599.288C1153.01 597.752 1151.96 597.112 1149.78 597.112H1145.3C1143.35 597.112 1142.13 598.04 1142.13 599.512C1142.13 601.56 1144.02 602.648 1147.09 602.648C1150.48 602.648 1153.01 601.4 1153.01 599.288ZM1149.36 584.312C1149.36 581.752 1148.79 579.672 1147.06 579.672C1145.3 579.672 1144.69 581.72 1144.69 583.704C1144.69 586.04 1145.3 588.248 1147.16 588.248C1148.95 588.248 1149.4 586.2 1149.36 584.312Z" fill="#001D21"/>
<path d="M1441 0H0V263H1441V0Z" fill="white"/>
<path d="M0 197.551L60.0417 205.848C120.083 214.145 240.167 230.74 360.25 230.107C480.333 229.396 600.417 211.538 720.5 198.578C840.583 185.698 960.667 177.796 1080.75 178.823C1200.83 179.929 1320.92 189.886 1380.96 194.943L1441 199.922L1441 0H1380.96C1320.92 0 1200.83 0 1080.75 0C960.667 0 840.583 0 720.5 0C600.417 0 480.333 0 360.25 0C240.167 0 120.083 0 60.0417 0H0V197.551Z" fill="#9DDBAD"/>
<path d="M0 153.197L60.0417 142.349C120.083 131.5 240.167 109.802 360.25 106.646C480.333 103.425 600.417 118.81 720.5 119.665C840.583 120.52 960.667 106.975 1080.75 97.6387C1200.83 88.3022 1320.92 83.3052 1380.96 80.741L1441 78.2425L1441 0H1380.96C1320.92 0 1200.83 0 1080.75 0C960.667 0 840.583 0 720.5 0C600.417 0 480.333 0 360.25 0C240.167 0 120.083 0 60.0417 0H0V153.197Z" fill="#3A766C"/>
<path d="M0 84.8175L60.0417 80.0835C120.083 75.4152 240.167 65.9472 360.25 58.649C480.333 51.285 600.417 46.025 720.5 46.8797C840.583 47.8002 960.667 54.7697 1080.75 62.1337C1200.83 69.4977 1320.92 77.1247 1380.96 81.004L1441 84.8175L1441 0H1380.96C1320.92 0 1200.83 0 1080.75 0C960.667 0 840.583 0 720.5 0C600.417 0 480.333 0 360.25 0C240.167 0 120.083 0 60.0417 0H0V84.8175Z" fill="#001D21"/>
<path d="M1 809.38L31.0833 811.486C61.1667 813.514 121.333 817.726 181.5 814.684C241.667 811.72 301.833 801.58 362 802.75C422.167 803.92 482.333 816.4 542.5 817.336C602.667 818.194 662.833 807.586 723 799.864C783.167 792.22 843.333 787.54 903.5 784.654C963.667 781.846 1023.83 780.754 1084 790.426C1144.17 800.02 1204.33 820.3 1264.5 823.576C1324.67 826.774 1384.83 813.046 1414.92 806.104L1445 799.24V1066.78H1414.92C1384.83 1066.78 1324.67 1066.78 1264.5 1066.78C1204.33 1066.78 1144.17 1066.78 1084 1066.78C1023.83 1066.78 963.667 1066.78 903.5 1066.78C843.333 1066.78 783.167 1066.78 723 1066.78C662.833 1066.78 602.667 1066.78 542.5 1066.78C482.333 1066.78 422.167 1066.78 362 1066.78C301.833 1066.78 241.667 1066.78 181.5 1066.78C121.333 1066.78 61.1667 1066.78 31.0833 1066.78H1V809.38Z" fill="#9DDBAD"/>
<path d="M1 884.26L31.0833 886.054C61.1667 887.926 121.333 891.514 181.5 888.394C241.667 885.274 301.833 875.446 362 868.426C422.167 861.406 482.333 857.194 542.5 859.924C602.667 862.654 662.833 872.326 723 871.78C783.167 871.234 843.333 860.626 903.5 856.18C963.667 851.734 1023.83 853.606 1084 859.456C1144.17 865.306 1204.33 875.134 1264.5 875.056C1324.67 874.9 1384.83 864.76 1414.92 859.69L1445 854.62V1066.78H1414.92C1384.83 1066.78 1324.67 1066.78 1264.5 1066.78C1204.33 1066.78 1144.17 1066.78 1084 1066.78C1023.83 1066.78 963.667 1066.78 903.5 1066.78C843.333 1066.78 783.167 1066.78 723 1066.78C662.833 1066.78 602.667 1066.78 542.5 1066.78C482.333 1066.78 422.167 1066.78 362 1066.78C301.833 1066.78 241.667 1066.78 181.5 1066.78C121.333 1066.78 61.1667 1066.78 31.0833 1066.78H1V884.26Z" fill="#579783"/>
<path d="M1 912.34L31.0833 914.134C61.1667 916.006 121.333 919.594 181.5 920.764C241.667 921.934 301.833 920.686 362 918.58C422.167 916.474 482.333 913.666 542.5 913.744C602.667 913.9 662.833 917.02 723 922.714C783.167 928.486 843.333 936.754 903.5 941.824C963.667 946.894 1023.83 948.766 1084 947.206C1144.17 945.646 1204.33 940.654 1264.5 941.824C1324.67 942.994 1384.83 950.326 1414.92 953.914L1445 957.58V1066.78H1414.92C1384.83 1066.78 1324.67 1066.78 1264.5 1066.78C1204.33 1066.78 1144.17 1066.78 1084 1066.78C1023.83 1066.78 963.667 1066.78 903.5 1066.78C843.333 1066.78 783.167 1066.78 723 1066.78C662.833 1066.78 602.667 1066.78 542.5 1066.78C482.333 1066.78 422.167 1066.78 362 1066.78C301.833 1066.78 241.667 1066.78 181.5 1066.78C121.333 1066.78 61.1667 1066.78 31.0833 1066.78H1V912.34Z" fill="#225654"/>
<path d="M1 998.14L31.0833 998.296C61.1667 998.374 121.333 998.686 181.5 1001.26C241.667 1003.83 301.833 1008.83 362 1011.95C422.167 1015.07 482.333 1016.31 542.5 1008.67C602.667 1001.03 662.833 984.334 723 980.98C783.167 977.626 843.333 987.454 903.5 992.914C963.667 998.374 1023.83 999.466 1084 995.254C1144.17 991.12 1204.33 981.76 1264.5 977.47C1324.67 973.18 1384.83 973.96 1414.92 974.35L1445 974.74V1066.78H1414.92C1384.83 1066.78 1324.67 1066.78 1264.5 1066.78C1204.33 1066.78 1144.17 1066.78 1084 1066.78C1023.83 1066.78 963.667 1066.78 903.5 1066.78C843.333 1066.78 783.167 1066.78 723 1066.78C662.833 1066.78 602.667 1066.78 542.5 1066.78C482.333 1066.78 422.167 1066.78 362 1066.78C301.833 1066.78 241.667 1066.78 181.5 1066.78C121.333 1066.78 61.1667 1066.78 31.0833 1066.78H1V998.14Z" fill="#001D21"/>
</svg>
