<svg xmlns="http://www.w3.org/2000/svg" width="1445" height="1067" fill="none" viewBox="0 0 1445 1067"><path fill="#001D21" d="M404.025 623.634c-.772-.297-1.764-1.491-2.206-2.653-.559-1.471-2.884-3.063-7.644-5.235-3.763-1.716-7.464-3.018-8.224-2.893-2.257.37-3.601-1.002-3.601-3.674 0-2.442-1.845-4.473-9.321-10.265-2.95-2.285-4.788-7.564-4.837-13.895-.036-4.63.196-5.222 3.031-7.713 1.689-1.484 4.983-3.788 7.32-5.121s5.543-3.375 7.123-4.536c2.27-1.669 3.236-1.918 4.601-1.187.949.509 2.37.925 3.156.925 2.38 0 5.786-4.109 5.786-6.979 0-2.343.651-2.957 6.165-5.813 3.391-1.756 7.412-3.193 8.935-3.193 2.715 0 9.879-4.089 12.185-6.954.61-.758 1.109-2.958 1.109-4.888 0-5.177-5.583-11.277-16.08-17.567a8816 8816 0 0 1-25.624-15.464c-34.421-20.842-113.625-62.403-173.233-90.901-29.276-13.998-58.898-28.738-60.299-30.007-1.685-1.526-2.232-6.906-.793-7.796.952-.589 10.982 2.896 20.482 7.115 3.66 1.626 14.241 6.129 23.513 10.006 50.955 21.306 59.48 25.016 92.725 40.351 38.535 17.774 111.378 55.678 118.494 61.658 2.42 2.033 8.965 6.723 14.545 10.422 7.614 5.046 10.895 6.725 13.147 6.725 4.014 0 6.167 1.203 10.617 5.935 2.057 2.187 4.053 3.81 4.436 3.607.383-.204 6.36-3.665 13.282-7.692l12.586-7.322 10.587-17.024c14.944-24.032 26.537-43.818 35.407-60.433 12.853-24.076 13.757-25.145 16.879-19.978 1.32 2.186 1.256 2.829-1.019 10.213-4.05 13.146-14.461 42.294-19.72 55.207-2.727 6.697-6.335 15.573-8.018 19.725-1.682 4.152-3.265 8.022-3.517 8.602-.253.579 1.16 2.075 3.138 3.325 7.49 4.732 8.24 12.824 2.433 26.236-1.772 4.093-3.225 8.271-3.228 9.284-.01 3.101-2.882 6.458-11.15 13.035-10.229 8.137-10.328 8.269-8.816 11.766.665 1.538 1.425 3.495 1.689 4.35.265.855 1.278 1.554 2.251 1.554 2.192 0 6.271 5.765 6.272 8.865 0 1.23 1.234 4.834 2.741 8.009 3.084 6.495 19.014 41.767 30.081 66.607 4.027 9.036 10.829 24.222 15.117 33.747 4.287 9.525 9.47 21.115 11.517 25.755l6.272 14.209c6.021 13.635 15.634 36.377 22.557 53.368 4.099 10.059 12.317 29.642 18.263 43.517 16.261 37.949 22.112 52.388 22.112 54.567 0 3.956-4.68 5.182-5.885 1.542-.717-2.166-12.643-28.111-25.421-55.304-5.852-12.455-21.42-43.827-34.595-69.715s-26.347-51.864-29.271-57.726c-2.924-5.861-7.799-15.053-10.834-20.426-13.544-23.982-31.865-58.648-34.124-64.567-1.36-3.564-3.751-10.347-5.313-15.073-3.589-10.857-4.3-11.51-9.462-8.687-2.159 1.18-3.958 2.353-3.998 2.608a96 96 0 0 1-.439 2.238c-.201.977-.667 3.765-1.036 6.196-.729 4.813-.412 4.556-16.272 13.191l-4.614 2.512L470.938 999h-75.033s9.366-374.888 8.12-375.366m71.022-39.941c.513-3.423.324-4.414-1.112-5.852-1.714-1.715-1.761-1.714-5.397.143-2.017 1.03-3.668 2.426-3.668 3.103 0 1.123 7.436 6.726 8.925 6.726.349 0 .912-1.854 1.252-4.12M787.048 557c-.608 0-.736-.128-.736-.512v-.512c0-.416.192-.576.672-.576h.192c1.344 0 1.952-.576 1.952-2.08v-15.04c0-1.504-.608-2.08-1.952-2.08h-.192c-.48 0-.672-.16-.672-.576v-.512c0-.384.128-.512.736-.512H797.8c5.504 0 8.512 1.344 8.512 5.216 0 2.496-1.312 4.32-4.128 5.024 3.264.416 5.216 2.272 5.216 5.504 0 4.704-3.552 6.656-9.632 6.656zm9.728-10.912-2.144.032v6.336c0 2.176.608 2.976 2.464 2.976h.8c2.496 0 3.712-2.08 3.712-4.928 0-3.2-1.6-4.448-4.832-4.416m-2.144-9.248v7.712l2.4-.032c2.656-.032 3.616-1.984 3.616-4.096 0-2.592-1.216-4.256-3.648-4.256h-1.664c-.512 0-.704.192-.704.672m17.374.256c0-.64-.192-.96-.768-1.024l-1.12-.128c-.288-.032-.384-.128-.384-.416v-.416c0-.288.096-.448.352-.512l6.432-1.856c.192-.064.288-.064.448.032l.224.128c.128.064.16.16.16.352v20.096c0 1.28.288 1.952 1.152 2.08l.416.064c.416.064.512.16.512.512v.48c0 .416-.128.512-.576.512h-8.384c-.448 0-.544-.128-.544-.512v-.448c0-.352.16-.48.48-.544l.352-.064c.96-.16 1.248-.768 1.248-2.08zm13.752 1.312c-1.536 0-2.784-1.12-2.784-2.688 0-1.632 1.248-2.752 2.784-2.752 1.6 0 2.72 1.12 2.72 2.752 0 1.6-1.12 2.688-2.72 2.688m-2.432 5.984c0-.64-.192-.96-.768-1.024l-1.024-.128c-.288-.032-.384-.128-.384-.416v-.416c0-.288.096-.448.352-.512l6.336-1.856c.192-.064.288-.064.448.032l.224.128c.128.064.16.128.16.352v12.8c0 1.28.288 1.952 1.152 2.08l.416.064c.416.064.512.16.512.512v.48c0 .416-.128.512-.576.512h-8.384c-.448 0-.544-.128-.544-.512v-.448c0-.352.16-.48.48-.544l.352-.064c.96-.16 1.248-.768 1.248-2.08zm18.937 0c0-.64-.192-.96-.768-1.024l-1.024-.128c-.288-.032-.384-.128-.384-.416v-.416c0-.288.096-.448.352-.512l6.24-1.856c.192-.064.288-.064.448.032l.224.128c.128.064.16.128.16.352v2.656c1.312-1.824 3.2-3.2 5.408-3.2 2.272 0 3.84 1.12 4.64 3.232 1.28-1.632 3.168-3.232 5.536-3.232 2.944 0 4.864 1.856 4.864 4.992v8.352c0 1.248.224 1.952 1.12 2.08l.224.032c.48.064.736.128.736.512v.448c0 .416-.192.576-.672.576h-7.904c-.512 0-.608-.128-.608-.512v-.448c0-.416.192-.512.544-.576l.192-.032c.864-.16 1.024-.832 1.024-2.08v-7.68c0-1.568-.768-2.336-2.048-2.336-1.024 0-1.984.576-2.784 1.248v8.768c0 1.28.064 1.984.8 2.08l.224.032c.352.064.608.128.608.512v.448c0 .416-.16.576-.544.576h-7.456c-.512 0-.608-.128-.608-.512v-.448c0-.416.192-.512.544-.576l.192-.032c.832-.128.896-.768.896-2.08v-7.68c0-1.568-.8-2.336-2.08-2.336-1.088 0-1.984.544-2.752 1.216v8.8c0 1.28.16 1.984.928 2.08l.224.032c.352.064.608.128.608.512v.448c0 .416-.16.576-.544.576h-7.904c-.608 0-.736-.128-.736-.512v-.448c0-.416.192-.512.672-.576l.192-.032c.992-.16 1.216-.768 1.216-2.08zm40.041 9.6c1.696 0 2.879-.736 3.647-1.952.16-.256.288-.352.544-.224l.576.256c.256.128.224.32.096.672-1.024 2.528-3.391 4.576-7.167 4.576-4.288 0-8.193-2.88-8.193-8.512 0-5.792 3.937-8.8 8.545-8.8 3.904 0 7.263 2.528 7.231 6.784 0 .544-.287.896-.703.896h-9.44c.032 3.968 2.016 6.304 4.864 6.304m-2.273-12.416c-1.376 0-2.336 1.728-2.56 4.672h3.488c.672 0 .929-.608.929-1.28 0-1.76-.449-3.392-1.857-3.392m26.864 12.16c0 .48.032.608.416.768l1.216.48c.32.128.384.256.384.608v.16c0 .352-.064.48-.448.544l-5.952.96c-.192.032-.288 0-.448-.096l-.16-.096c-.128-.096-.16-.16-.16-.352v-1.952c-.832 1.152-2.912 2.56-5.024 2.56-4.064 0-6.88-3.424-6.88-8.288 0-6.048 3.712-9.024 8.576-9.024 1.152 0 2.208.256 3.136.704v-3.52c0-.64-.192-.992-.768-1.024l-1.536-.128c-.288-.032-.416-.128-.416-.416v-.512c0-.288.096-.448.352-.512l6.88-1.856c.192-.064.288-.064.448.032l.224.128c.128.064.16.128.16.352zm-7.744.832c1.12 0 2.112-.704 2.4-1.408v-6.048c0-3.328-.832-5.44-2.656-5.44-2.656 0-3.36 3.264-3.36 6.624 0 3.328 1.184 6.272 3.616 6.272m26.481-10.912v9.312c0 1.536.896 2.688 2.4 2.688 2.624 0 3.456-3.36 3.456-6.656 0-2.944-.832-6.016-3.52-6.016a4.7 4.7 0 0 0-2.336.672m-5.344.736c0-.64-.192-.96-.768-1.024l-1.024-.128c-.288-.032-.384-.128-.384-.416v-.416c0-.288.096-.448.352-.512l6.24-1.856c.192-.064.288-.064.448.032l.224.128c.128.064.16.128.16.352v1.696c1.408-1.312 3.136-2.24 4.992-2.24 4.288 0 6.72 3.264 6.72 7.776 0 5.664-4 9.536-8.64 9.536-1.12 0-2.176-.192-2.976-.48v5.408c0 1.28.192 1.888 1.44 2.048l.768.096c.416.064.512.16.512.512v.48c0 .416-.128.512-.576.512h-9.024c-.448 0-.544-.128-.544-.512v-.448c0-.352.16-.48.48-.544l.352-.064c.96-.16 1.248-.768 1.248-2.08zm23.399 12.96c-2.208 0-3.808-1.504-3.808-3.68 0-2.88 2.528-4.032 5.024-5.024 1.312-.512 2.624-.992 3.488-1.408l.032-2.496c0-1.952-.736-2.976-2.432-2.976-.864 0-1.44.352-1.44 1.344 0 .288.032.992.032 1.568 0 1.664-.992 2.528-2.656 2.528-1.376 0-2.176-.8-2.176-2.08 0-2.72 4.48-5.184 8.576-5.184 3.36 0 5.216 1.504 5.184 4.416l-.096 8.448c0 1.024.288 1.44.864 1.44s.992-.608 1.344-1.472c.096-.224.224-.288.48-.224l.416.128c.224.064.288.192.224.448-.608 2.496-2.144 4.192-4.736 4.192-1.984 0-3.104-1.152-3.36-2.72-1.28 1.76-2.848 2.752-4.96 2.752m3.424-18.688c-1.696 0-3.072-1.408-3.072-3.136s1.376-3.104 3.072-3.104c1.728 0 3.136 1.376 3.136 3.104a3.14 3.14 0 0 1-3.136 3.136m-.416 15.584c.608 0 1.184-.256 1.664-.736l.032-4.896-1.632.768c-1.12.576-1.888 1.504-1.888 2.848 0 1.216.736 2.016 1.824 2.016m.416-17.088c.896 0 1.568-.672 1.568-1.632 0-.896-.672-1.6-1.568-1.6-.864 0-1.504.704-1.504 1.6 0 .96.64 1.632 1.504 1.632M975.286 557h-9.153c-.448 0-.544-.128-.544-.512v-.448c0-.352.161-.48.481-.544l.352-.064c.96-.16 1.247-.768 1.247-2.08v-8.96c0-.64-.192-.96-.768-1.024l-1.023-.128c-.288-.032-.384-.128-.384-.416v-.416c0-.288.096-.448.352-.512l6.24-1.856c.192-.064.288-.064.448.032l.224.128c.128.064.159.128.159.352v2.912c1.6-2.208 2.977-3.456 4.833-3.456 1.632 0 2.399 1.12 2.399 2.528s-.703 2.4-1.951 2.4c-.864 0-1.377-.384-1.857-.896-.32-.32-.671-.64-1.151-.64-.704 0-1.537.64-2.049 1.184v8.768c0 1.28.192 1.888 1.44 2.048l.768.096c.416.064.513.16.513.512v.48c0 .416-.128.512-.576.512m16.518-3.008c1.696 0 2.879-.736 3.647-1.952.16-.256.288-.352.544-.224l.576.256c.256.128.224.32.096.672-1.024 2.528-3.391 4.576-7.167 4.576-4.288 0-8.193-2.88-8.193-8.512 0-5.792 3.937-8.8 8.545-8.8 3.904 0 7.263 2.528 7.231 6.784 0 .544-.287.896-.703.896h-9.44c.032 3.968 2.016 6.304 4.864 6.304m-2.273-12.416c-1.376 0-2.336 1.728-2.56 4.672h3.488c.672 0 .929-.608.929-1.28 0-1.76-.449-3.392-1.857-3.392m14.349-3.168c-1.53 0-2.78-1.12-2.78-2.688 0-1.632 1.25-2.752 2.78-2.752 1.6 0 2.72 1.12 2.72 2.752 0 1.6-1.12 2.688-2.72 2.688m-2.43 5.984c0-.64-.19-.96-.77-1.024l-1.021-.128c-.288-.032-.384-.128-.384-.416v-.416c0-.288.096-.448.352-.512l6.333-1.856c.19-.064.29-.064.45.032l.22.128c.13.064.16.128.16.352v12.8c0 1.28.29 1.952 1.16 2.08l.41.064c.42.064.51.16.51.512v.48c0 .416-.12.512-.57.512h-8.385c-.448 0-.544-.128-.544-.512v-.448c0-.352.16-.48.48-.544l.349-.064c.96-.16 1.25-.768 1.25-2.08zm10.13 12.064c-.29-.128-.38-.256-.38-.608l-.1-3.808c0-.32.1-.448.35-.48l.45-.032c.26-.032.35.064.45.288 1.28 2.592 2.21 3.808 4.38 3.808 1.63 0 2.63-.672 2.63-1.952 0-1.472-1.03-2.08-3.11-2.848-3.77-1.408-5.05-2.624-5.05-5.632 0-3.456 2.75-5.184 6.49-5.184 1.67 0 3.17.288 4.26.64.29.096.38.192.41.512l.23 3.52c.03.256-.07.352-.32.384l-.39.064c-.32.064-.44-.032-.57-.32-.96-2.016-2.05-3.104-3.75-3.104-1.4 0-2.2.576-2.2 1.664 0 1.344.92 1.76 3.16 2.624 3.56 1.344 4.84 2.816 4.84 5.472 0 3.584-2.79 5.856-6.72 5.856-2.28 0-3.94-.416-5.06-.864m24.6-2.464c1.69 0 2.88-.736 3.65-1.952.16-.256.28-.352.54-.224l.58.256c.25.128.22.32.09.672-1.02 2.528-3.39 4.576-7.17 4.576-4.28 0-8.19-2.88-8.19-8.512 0-5.792 3.94-8.8 8.55-8.8 3.9 0 7.26 2.528 7.23 6.784 0 .544-.29.896-.71.896h-9.44c.04 3.968 2.02 6.304 4.87 6.304m-2.27-12.416c-1.38 0-2.34 1.728-2.56 4.672h3.48c.68 0 .93-.608.93-1.28 0-1.76-.45-3.392-1.85-3.392M1044.42 557c-.45 0-.67-.096-.67-.48v-.48c0-.384.16-.48.48-.544l.41-.064c.96-.16 1.19-.768 1.19-2.08v-8.96c0-.64-.2-.96-.77-1.024l-1.03-.128c-.28-.032-.38-.128-.38-.416v-.416c0-.288.1-.448.35-.512l6.24-1.856c.19-.064.29-.064.45.032l.22.128c.13.064.16.128.16.352v2.688c1.19-1.696 3.46-3.232 5.64-3.232 2.91 0 4.83 1.888 4.83 4.896v8.448c0 1.28.29 1.952 1.15 2.08l.42.064c.41.064.51.16.51.512v.48c0 .416-.13.512-.58.512h-8.06c-.45 0-.55-.128-.55-.512v-.448c0-.352.16-.48.48-.544l.2-.032c.96-.16 1.08-.8 1.08-2.112v-7.68c0-1.6-.83-2.336-2.14-2.336-1.09 0-2.08.544-2.88 1.248v8.768c0 1.28.1 1.92.93 2.08l.35.064c.35.064.48.16.48.512v.416c0 .416-.16.576-.61.576zm35.47-18.432v1.76h3.52c.29 0 .35.128.29.416l-.42 1.824c-.06.32-.19.448-.54.448h-2.85v10.336c0 1.312.29 1.92 1.25 2.08l.35.064c.32.064.48.192.48.544v.448c0 .384-.1.512-.54.512h-8.36c-.44 0-.54-.128-.54-.512v-.448c0-.352.16-.48.48-.544l.35-.064c.96-.16 1.25-.768 1.25-2.08v-10.336h-1.98c-.29 0-.39-.128-.29-.448l.48-1.792c.09-.352.19-.448.51-.448h1.28v-.672c0-3.616 2.5-6.976 7.46-6.976 2.3 0 3.84 1.152 3.84 2.944 0 1.28-.8 2.048-1.92 2.048-1.06 0-1.73-.608-1.92-2.112-.13-.832-.32-1.184-.68-1.184-.96 0-1.5 1.408-1.5 4.192m13.72 18.752c-4.99 0-8.83-2.784-8.83-8.768 0-5.248 4.16-8.544 9.05-8.544 5.38 0 8.77 3.456 8.77 8.544 0 5.248-3.42 8.768-8.99 8.768m.41-1.664c2.6 0 2.88-3.52 2.88-5.984 0-3.648-.57-8-3.29-8-2.43 0-3.14 3.424-3.14 5.952 0 3.744.83 8.032 3.55 8.032m20.55 1.344h-9.16c-.44 0-.54-.128-.54-.512v-.448c0-.352.16-.48.48-.544l.35-.064c.96-.16 1.25-.768 1.25-2.08v-8.96c0-.64-.19-.96-.77-1.024l-1.02-.128c-.29-.032-.39-.128-.39-.416v-.416c0-.288.1-.448.36-.512l6.24-1.856c.19-.064.28-.064.44.032l.23.128c.13.064.16.128.16.352v2.912c1.6-2.208 2.97-3.456 4.83-3.456 1.63 0 2.4 1.12 2.4 2.528s-.7 2.4-1.95 2.4c-.87 0-1.38-.384-1.86-.896-.32-.32-.67-.64-1.15-.64-.7 0-1.54.64-2.05 1.184v8.768c0 1.28.19 1.888 1.44 2.048l.77.096c.42.064.51.16.51.512v.48c0 .416-.13.512-.57.512m17.43.352c-2.21 0-3.81-1.504-3.81-3.68 0-2.88 2.53-4.032 5.03-5.024 1.31-.512 2.62-.992 3.48-1.408l.04-2.496c0-1.952-.74-2.976-2.44-2.976-.86 0-1.44.352-1.44 1.344 0 .288.04.992.04 1.568 0 1.664-1 2.528-2.66 2.528-1.38 0-2.18-.8-2.18-2.08 0-2.72 4.48-5.184 8.58-5.184 3.36 0 5.22 1.504 5.18 4.416l-.09 8.448c0 1.024.29 1.44.86 1.44.58 0 .99-.608 1.35-1.472.09-.224.22-.288.48-.224l.41.128c.23.064.29.192.23.448-.61 2.496-2.15 4.192-4.74 4.192-1.98 0-3.1-1.152-3.36-2.72-1.28 1.76-2.85 2.752-4.96 2.752m3.42-18.688c-1.69 0-3.07-1.408-3.07-3.136s1.38-3.104 3.07-3.104c1.73 0 3.14 1.376 3.14 3.104a3.143 3.143 0 0 1-3.14 3.136m-.41 15.584c.61 0 1.18-.256 1.66-.736l.03-4.896-1.63.768c-1.12.576-1.89 1.504-1.89 2.848 0 1.216.74 2.016 1.83 2.016m.41-17.088c.9 0 1.57-.672 1.57-1.632 0-.896-.67-1.6-1.57-1.6-.86 0-1.5.704-1.5 1.6 0 .96.64 1.632 1.5 1.632m17.87 24.864c0-1.952 1.8-3.008 3.81-3.392-1.63-.352-2.91-1.76-2.91-3.456 0-2.272 1.57-3.424 3.2-4.192-1.95-.96-2.98-2.656-2.98-4.928 0-3.968 3.36-6.048 7.91-6.048 1.92 0 3.61.48 4.89 1.408 1.19-1.056 2.34-1.696 3.75-1.696s2.21.768 2.21 2.016c0 .928-.61 1.6-1.51 1.6-.73 0-1.18-.32-1.53-.832-.32-.48-.58-.704-.96-.704-.39 0-.64.128-1.03.448.8.928 1.28 2.144 1.28 3.616 0 3.776-3.1 6.048-7.49 6.048-1.21 0-2.3-.128-3.23-.384-.51.32-.86.864-.86 1.44 0 1.12.89 1.44 2.21 1.44h5.37c4.16 0 6.31 1.504 6.31 5.056 0 4.48-4 6.752-10.28 6.752-4.09 0-8.16-.896-8.16-4.192m14.63-.736c0-1.536-1.06-2.176-3.23-2.176h-4.48c-1.96 0-3.17.928-3.17 2.4 0 2.048 1.89 3.136 4.96 3.136 3.39 0 5.92-1.248 5.92-3.36m-3.65-14.976c0-2.56-.58-4.64-2.3-4.64-1.76 0-2.37 2.048-2.37 4.032 0 2.336.61 4.544 2.46 4.544 1.79 0 2.24-2.048 2.21-3.936"/><path fill="#001D21" d="M1178 538.408c-1.53 0-2.78-1.12-2.78-2.688 0-1.632 1.25-2.752 2.78-2.752 1.6 0 2.72 1.12 2.72 2.752 0 1.6-1.12 2.688-2.72 2.688m-2.36 5.984c0-.64-.2-.96-.77-1.024l-1.03-.128c-.28-.032-.38-.128-.38-.416v-.416c0-.288.1-.448.35-.512l6.34-1.856c.19-.064.29-.064.45.032l.22.128c.13.064.16.128.16.352v16.672c0 5.408-3.71 8.992-8.7 8.992-1.83 0-3.68-.96-3.68-2.688 0-1.216.83-2.112 2.17-2.112.99 0 1.63.64 2.08 1.504.42.8.74 1.376 1.28 1.376.96 0 1.51-1.28 1.51-3.136zm24.76-3.36-.8.992c1.76 1.504 2.75 3.776 2.75 6.528 0 5.248-3.42 8.768-8.99 8.768-2.02 0-3.84-.448-5.31-1.376l-1.12 1.408c-.23.288-.39.32-.68.096l-.35-.288c-.29-.256-.32-.416-.09-.704l1.12-1.376c-1.51-1.44-2.4-3.616-2.4-6.528 0-5.248 4.16-8.544 9.05-8.544 1.86 0 3.49.416 4.8 1.184l.9-1.088c.25-.32.41-.32.67-.128l.45.352c.29.224.25.384 0 .704m-6.63 14.624c2.6 0 2.98-3.52 2.98-5.984 0-1.216-.1-2.496-.29-3.68l-5.6 6.88c.58 1.632 1.51 2.784 2.91 2.784m-3.61-8.032c0 1.184.06 2.4.29 3.52l5.6-6.912c-.52-1.504-1.35-2.56-2.69-2.56-2.43 0-3.2 3.424-3.2 5.952m24.16 9.376h-9.16c-.44 0-.54-.128-.54-.512v-.448c0-.352.16-.48.48-.544l.35-.064c.96-.16 1.25-.768 1.25-2.08v-8.96c0-.64-.19-.96-.77-1.024l-1.02-.128c-.29-.032-.39-.128-.39-.416v-.416c0-.288.1-.448.36-.512l6.24-1.856c.19-.064.28-.064.44.032l.23.128c.13.064.16.128.16.352v2.912c1.6-2.208 2.97-3.456 4.83-3.456 1.63 0 2.4 1.12 2.4 2.528s-.7 2.4-1.95 2.4c-.87 0-1.38-.384-1.86-.896-.32-.32-.67-.64-1.15-.64-.7 0-1.54.64-2.05 1.184v8.768c0 1.28.19 1.888 1.44 2.048l.77.096c.42.064.51.16.51.512v.48c0 .416-.13.512-.57.512m16.51-3.008c1.7 0 2.88-.736 3.65-1.952.16-.256.29-.352.55-.224l.57.256c.26.128.23.32.1.672-1.03 2.528-3.39 4.576-7.17 4.576-4.29 0-8.19-2.88-8.19-8.512 0-5.792 3.93-8.8 8.54-8.8 3.91 0 7.27 2.528 7.23 6.784 0 .544-.28.896-.7.896h-9.44c.03 3.968 2.02 6.304 4.86 6.304m-2.27-12.416c-1.37 0-2.33 1.728-2.56 4.672h3.49c.67 0 .93-.608.93-1.28 0-1.76-.45-3.392-1.86-3.392m-423.912 53.008-13.888-16.32v9.504c0 4.16.736 5.408 2.848 5.6l.352.032c.448.032.608.128.608.544v.608c0 .32-.128.448-.48.448h-8.064c-.384 0-.576-.096-.576-.48v-.576c0-.384.192-.512.544-.544l.384-.032c1.92-.16 2.56-1.44 2.56-5.6v-10.56c0-2.176-1.344-3.008-2.72-3.008h-.064c-.48 0-.672-.16-.672-.576v-.48c0-.384.096-.544.704-.544h6.208c.8 0 1.152.192 1.6.704l11.712 13.728v-8.064c0-3.392-.864-4.608-2.432-4.736l-.384-.032c-.512-.032-.704-.16-.704-.544v-.512c0-.416.192-.544.576-.544h7.488c.48 0 .608.128.608.512v.544c0 .384-.096.48-.608.544l-.32.032c-1.696.16-2.4 1.344-2.4 4.8v15.36c0 .416-.128.608-.608.608h-1.44c-.384 0-.576-.128-.832-.416m16.179.736c-4.992 0-8.832-2.784-8.832-8.768 0-5.248 4.16-8.544 9.056-8.544 5.376 0 8.768 3.456 8.768 8.544 0 5.248-3.424 8.768-8.992 8.768m.416-1.664c2.592 0 2.88-3.52 2.88-5.984 0-3.648-.576-8-3.296-8-2.432 0-3.136 3.424-3.136 5.952 0 3.744.832 8.032 3.552 8.032M841.786 595h-9.153c-.448 0-.544-.128-.544-.512v-.448c0-.352.161-.48.481-.544l.352-.064c.96-.16 1.247-.768 1.247-2.08v-8.96c0-.64-.192-.96-.768-1.024l-1.023-.128c-.288-.032-.384-.128-.384-.416v-.416c0-.288.096-.448.352-.512l6.24-1.856c.192-.064.288-.064.448.032l.224.128c.128.064.159.128.159.352v2.912c1.6-2.208 2.977-3.456 4.833-3.456 1.632 0 2.399 1.12 2.399 2.528s-.703 2.4-1.951 2.4c-.864 0-1.377-.384-1.857-.896-.32-.32-.671-.64-1.151-.64-.704 0-1.537.64-2.049 1.184v8.768c0 1.28.192 1.888 1.44 2.048l.768.096c.416.064.513.16.513.512v.48c0 .416-.128.512-.576.512m5.602 5.024c0-1.952 1.792-3.008 3.808-3.392-1.632-.352-2.912-1.76-2.912-3.456 0-2.272 1.568-3.424 3.2-4.192-1.952-.96-2.976-2.656-2.976-4.928 0-3.968 3.36-6.048 7.904-6.048 1.92 0 3.616.48 4.896 1.408 1.184-1.056 2.336-1.696 3.744-1.696s2.208.768 2.208 2.016c0 .928-.608 1.6-1.504 1.6-.736 0-1.184-.32-1.536-.832-.32-.48-.576-.704-.96-.704s-.64.128-1.024.448c.8.928 1.28 2.144 1.28 3.616 0 3.776-3.104 6.048-7.488 6.048-1.216 0-2.304-.128-3.232-.384-.512.32-.864.864-.864 1.44 0 1.12.896 1.44 2.208 1.44h5.376c4.16 0 6.304 1.504 6.304 5.056 0 4.48-4 6.752-10.272 6.752-4.096 0-8.16-.896-8.16-4.192m14.624-.736c0-1.536-1.056-2.176-3.232-2.176h-4.48c-1.952 0-3.168.928-3.168 2.4 0 2.048 1.888 3.136 4.96 3.136 3.392 0 5.92-1.248 5.92-3.36m-3.648-14.976c0-2.56-.576-4.64-2.304-4.64-1.76 0-2.368 2.048-2.368 4.032 0 2.336.608 4.544 2.464 4.544 1.792 0 2.24-2.048 2.208-3.936m19.721 7.68c1.696 0 2.88-.736 3.648-1.952.16-.256.288-.352.544-.224l.576.256c.256.128.224.32.096.672-1.024 2.528-3.392 4.576-7.168 4.576-4.288 0-8.192-2.88-8.192-8.512 0-5.792 3.936-8.8 8.544-8.8 3.904 0 7.264 2.528 7.232 6.784 0 .544-.288.896-.704.896h-9.44c.032 3.968 2.016 6.304 4.864 6.304m-2.272-12.416c-1.376 0-2.336 1.728-2.56 4.672h3.488c.672 0 .928-.608.928-1.28 0-1.76-.448-3.392-1.856-3.392m19.575 2.816c0-.64-.192-.96-.768-1.024l-1.024-.128c-.288-.032-.384-.128-.384-.416v-.416c0-.288.096-.448.352-.512l6.24-1.856c.192-.064.288-.064.448.032l.224.128c.128.064.16.128.16.352v2.656c1.312-1.824 3.2-3.2 5.408-3.2 2.272 0 3.84 1.12 4.64 3.232 1.28-1.632 3.168-3.232 5.536-3.232 2.944 0 4.864 1.856 4.864 4.992v8.352c0 1.248.224 1.952 1.12 2.08l.224.032c.48.064.736.128.736.512v.448c0 .416-.192.576-.672.576h-7.904c-.512 0-.608-.128-.608-.512v-.448c0-.416.192-.512.544-.576l.192-.032c.864-.16 1.024-.832 1.024-2.08v-7.68c0-1.568-.768-2.336-2.048-2.336-1.024 0-1.984.576-2.784 1.248v8.768c0 1.28.064 1.984.8 2.08l.224.032c.352.064.608.128.608.512v.448c0 .416-.16.576-.544.576h-7.456c-.512 0-.608-.128-.608-.512v-.448c0-.416.192-.512.544-.576l.192-.032c.832-.128.896-.768.896-2.08v-7.68c0-1.568-.8-2.336-2.08-2.336-1.088 0-1.984.544-2.752 1.216v8.8c0 1.28.16 1.984.928 2.08l.224.032c.352.064.608.128.608.512v.448c0 .416-.16.576-.544.576h-7.904c-.608 0-.736-.128-.736-.512v-.448c0-.416.192-.512.672-.576l.192-.032c.992-.16 1.216-.768 1.216-2.08zm40.041 9.6c1.696 0 2.879-.736 3.647-1.952.16-.256.288-.352.544-.224l.576.256c.256.128.224.32.096.672-1.024 2.528-3.391 4.576-7.167 4.576-4.288 0-8.193-2.88-8.193-8.512 0-5.792 3.937-8.8 8.545-8.8 3.904 0 7.263 2.528 7.231 6.784 0 .544-.287.896-.703.896h-9.44c.032 3.968 2.016 6.304 4.864 6.304m-2.273-12.416c-1.376 0-2.336 1.728-2.56 4.672h3.488c.672 0 .929-.608.929-1.28 0-1.76-.449-3.392-1.857-3.392M952.692 595h-9.152c-.448 0-.544-.128-.544-.512v-.448c0-.352.16-.48.48-.544l.352-.064c.96-.16 1.248-.768 1.248-2.08v-8.96c0-.64-.192-.96-.768-1.024l-1.024-.128c-.288-.032-.384-.128-.384-.416v-.416c0-.288.096-.448.352-.512l6.24-1.856c.192-.064.288-.064.448.032l.224.128c.128.064.16.128.16.352v2.912c1.6-2.208 2.976-3.456 4.832-3.456 1.632 0 2.4 1.12 2.4 2.528s-.704 2.4-1.952 2.4c-.864 0-1.376-.384-1.856-.896-.32-.32-.672-.64-1.152-.64-.704 0-1.536.64-2.048 1.184v8.768c0 1.28.192 1.888 1.44 2.048l.768.096c.416.064.512.16.512.512v.48c0 .416-.128.512-.576.512m14.553-19.904c0-.64-.192-.96-.768-1.024l-1.12-.128c-.288-.032-.385-.16-.385-.448v-.416c0-.288.097-.416.353-.48l6.431-1.856c.192-.064.289-.064.449.032l.224.128c.128.064.16.128.16.352v8.896c1.216-1.12 2.976-2.144 4.96-2.144 4.544 0 6.656 3.616 6.656 7.84 0 5.504-3.904 9.472-8.736 9.472-1.952 0-3.744-.64-5.216-1.856l-1.664 1.472c-.192.16-.32.224-.608.224h-.353c-.256 0-.383-.128-.383-.416zm5.344 16.032c0 1.472 1.119 2.528 2.463 2.528 2.976 0 3.393-4.128 3.393-6.976 0-2.496-.8-5.696-3.456-5.696-.832 0-1.76.288-2.4.672zm22.547-13.12c1.824 0 3.073.608 3.841 1.504 1.403-1.024 3.133-1.504 4.833-1.504 3.9 0 6.91 2.688 6.91 6.784 0 .544-.29.896-.7.896h-9.44c.03 3.968 2.08 6.304 4.92 6.304 1.7 0 2.88-.736 3.65-1.952.16-.256.29-.352.55-.224l.57.256c.26.128.23.32.1.672-1.03 2.528-3.33 4.576-6.91 4.576-3.27 0-5.412-1.28-6.66-3.264-1.568 2.112-3.744 3.36-6.144 3.36-2.656 0-3.968-1.6-3.968-3.776 0-2.976 2.753-4.032 5.249-4.928 1.344-.48 2.592-.96 3.456-1.408v-2.048c0-2.112-.704-3.488-2.464-3.488-.864 0-1.44.352-1.44 1.344 0 .288.032.992.032 1.568 0 1.664-.992 2.528-2.656 2.528-1.376 0-2.177-.8-2.177-2.08 0-2.72 4.352-5.12 8.448-5.12m8.034 1.472c-1.38 0-2.34 1.824-2.56 4.768h3.49c.67 0 .92-.608.92-1.28 0-1.76-.44-3.488-1.85-3.488m-9.602 12.8c.96 0 1.92-.48 2.688-1.28-.576-1.28-.863-2.752-.863-4.32l-1.601.768c-1.12.576-1.888 1.6-1.888 2.944 0 .992.576 1.888 1.664 1.888m29.122 2.72h-9.15c-.45 0-.54-.128-.54-.512v-.448c0-.352.16-.48.48-.544l.35-.064c.96-.16 1.25-.768 1.25-2.08v-8.96c0-.64-.2-.96-.77-1.024l-1.03-.128c-.28-.032-.38-.128-.38-.416v-.416c0-.288.1-.448.35-.512l6.24-1.856c.19-.064.29-.064.45.032l.22.128c.13.064.16.128.16.352v2.912c1.6-2.208 2.98-3.456 4.84-3.456 1.63 0 2.4 1.12 2.4 2.528s-.71 2.4-1.96 2.4c-.86 0-1.37-.384-1.85-.896-.32-.32-.67-.64-1.15-.64-.71 0-1.54.64-2.05 1.184v8.768c0 1.28.19 1.888 1.44 2.048l.77.096c.41.064.51.16.51.512v.48c0 .416-.13.512-.58.512m16.52-3.008c1.7 0 2.88-.736 3.65-1.952.16-.256.29-.352.54-.224l.58.256c.25.128.22.32.09.672-1.02 2.528-3.39 4.576-7.16 4.576-4.29 0-8.2-2.88-8.2-8.512 0-5.792 3.94-8.8 8.55-8.8 3.9 0 7.26 2.528 7.23 6.784 0 .544-.29.896-.7.896h-9.44c.03 3.968 2.01 6.304 4.86 6.304m-2.27-12.416c-1.38 0-2.34 1.728-2.56 4.672h3.49c.67 0 .92-.608.92-1.28 0-1.76-.44-3.392-1.85-3.392m11.44-4.48c0-.64-.19-.96-.77-1.024l-1.12-.128c-.29-.032-.38-.128-.38-.416v-.416c0-.288.09-.448.35-.512l6.43-1.856c.19-.064.29-.064.45.032l.22.128c.13.064.16.128.16.352v14.336h.96l3.68-3.392c.52-.48.74-.928.74-1.312 0-.544-.48-.928-1.22-.992l-.35-.032c-.48-.032-.67-.128-.67-.512v-.448c0-.416.19-.576.67-.576h7.04c.61 0 .74.128.74.512v.448c0 .384-.13.48-.64.576-1.22.256-2.43 1.056-4.42 2.752l-1.66 1.44 4.83 7.296c.54.8 1.25 1.984 2.18 2.112.48.064.67.16.67.576v.448c0 .384-.13.512-.74.512h-7.77c-.48 0-.68-.16-.68-.576v-.448c0-.352.23-.48.52-.512l.22-.032c.86-.128.45-1.088-.26-2.08l-2.62-4.096h-1.22v4.096c0 1.152.1 1.984.87 2.08l.22.032c.35.064.61.128.61.512v.448c0 .416-.16.576-.54.576h-7.84c-.61 0-.74-.128-.74-.512v-.448c0-.416.19-.512.67-.576l.19-.032c1-.16 1.22-.768 1.22-2.08zM1077.44 595h-9.15c-.45 0-.54-.128-.54-.512v-.448c0-.352.16-.48.48-.544l.35-.064c.96-.16 1.25-.768 1.25-2.08v-8.96c0-.64-.2-.96-.77-1.024l-1.03-.128c-.28-.032-.38-.128-.38-.416v-.416c0-.288.1-.448.35-.512l6.24-1.856c.19-.064.29-.064.45.032l.22.128c.13.064.16.128.16.352v2.912c1.6-2.208 2.98-3.456 4.84-3.456 1.63 0 2.4 1.12 2.4 2.528s-.71 2.4-1.96 2.4c-.86 0-1.37-.384-1.85-.896-.32-.32-.67-.64-1.15-.64-.71 0-1.54.64-2.05 1.184v8.768c0 1.28.19 1.888 1.44 2.048l.77.096c.41.064.51.16.51.512v.48c0 .416-.13.512-.58.512m10.43.352c-2.2 0-3.8-1.504-3.8-3.68 0-2.88 2.52-4.032 5.02-5.024 1.31-.512 2.62-.992 3.49-1.408l.03-2.496c0-1.952-.74-2.976-2.43-2.976-.87 0-1.44.352-1.44 1.344 0 .288.03.992.03 1.568 0 1.664-.99 2.528-2.66 2.528-1.37 0-2.17-.8-2.17-2.08 0-2.72 4.48-5.184 8.57-5.184 3.36 0 5.22 1.504 5.19 4.416l-.1 8.448c0 1.024.29 1.44.87 1.44.57 0 .99-.608 1.34-1.472.1-.224.22-.288.48-.224l.42.128c.22.064.28.192.22.448-.61 2.496-2.14 4.192-4.74 4.192-1.98 0-3.1-1.152-3.36-2.72-1.28 1.76-2.84 2.752-4.96 2.752m3.01-3.104c.61 0 1.19-.256 1.67-.736l.03-4.896-1.63.768c-1.12.576-1.89 1.504-1.89 2.848 0 1.216.73 2.016 1.82 2.016m18.23-15.68v1.76h3.52c.29 0 .35.128.29.416l-.42 1.824c-.06.32-.19.448-.54.448h-2.85v10.336c0 1.312.29 1.92 1.25 2.08l.35.064c.32.064.48.192.48.544v.448c0 .384-.1.512-.55.512h-8.35c-.45 0-.54-.128-.54-.512v-.448c0-.352.16-.48.48-.544l.35-.064c.96-.16 1.25-.768 1.25-2.08v-10.336h-1.99c-.28 0-.38-.128-.28-.448l.48-1.792c.09-.352.19-.448.51-.448h1.28v-.672c0-3.616 2.49-6.976 7.45-6.976 2.31 0 3.84 1.152 3.84 2.944 0 1.28-.8 2.048-1.92 2.048-1.05 0-1.72-.608-1.92-2.112-.12-.832-.32-1.184-.67-1.184-.96 0-1.5 1.408-1.5 4.192"/><path fill="#001D21" d="M1124.91 581.208h-3.75v8.64c0 1.568.58 2.368 1.79 2.368.68 0 1.35-.192 1.99-.576.25-.16.41-.16.61.096l.25.32c.19.224.19.416-.03.672-1.25 1.408-2.97 2.528-5.6 2.528-2.53 0-4.29-1.312-4.29-4.864v-9.184h-1.76c-.28 0-.44-.128-.44-.448v-.384c0-.352.06-.48.35-.64 1.79-1.056 4.32-3.616 5.6-5.184.22-.288.38-.384.67-.384h.51c.26 0 .35.128.35.416v3.744h4.52c.28 0 .35.128.28.416l-.51 2.048c-.09.352-.19.416-.54.416m7.32-4.8c-1.54 0-2.79-1.12-2.79-2.688 0-1.632 1.25-2.752 2.79-2.752 1.6 0 2.72 1.12 2.72 2.752 0 1.6-1.12 2.688-2.72 2.688m-2.44 5.984c0-.64-.19-.96-.76-1.024l-1.03-.128c-.29-.032-.38-.128-.38-.416v-.416c0-.288.09-.448.35-.512l6.34-1.856c.19-.064.28-.064.44.032l.23.128c.13.064.16.128.16.352v12.8c0 1.28.29 1.952 1.15 2.08l.42.064c.41.064.51.16.51.512v.48c0 .416-.13.512-.58.512h-8.38c-.45 0-.55-.128-.55-.512v-.448c0-.352.16-.48.48-.544l.36-.064c.96-.16 1.24-.768 1.24-2.08zm8.6 17.632c0-1.952 1.79-3.008 3.81-3.392-1.64-.352-2.92-1.76-2.92-3.456 0-2.272 1.57-3.424 3.2-4.192-1.95-.96-2.97-2.656-2.97-4.928 0-3.968 3.36-6.048 7.9-6.048 1.92 0 3.62.48 4.9 1.408 1.18-1.056 2.33-1.696 3.74-1.696s2.21.768 2.21 2.016c0 .928-.61 1.6-1.5 1.6-.74 0-1.19-.32-1.54-.832-.32-.48-.58-.704-.96-.704s-.64.128-1.02.448c.8.928 1.28 2.144 1.28 3.616 0 3.776-3.11 6.048-7.49 6.048-1.22 0-2.31-.128-3.23-.384-.52.32-.87.864-.87 1.44 0 1.12.9 1.44 2.21 1.44h5.38c4.16 0 6.3 1.504 6.3 5.056 0 4.48-4 6.752-10.27 6.752-4.1 0-8.16-.896-8.16-4.192m14.62-.736c0-1.536-1.05-2.176-3.23-2.176h-4.48c-1.95 0-3.17.928-3.17 2.4 0 2.048 1.89 3.136 4.96 3.136 3.39 0 5.92-1.248 5.92-3.36m-3.65-14.976c0-2.56-.57-4.64-2.3-4.64-1.76 0-2.37 2.048-2.37 4.032 0 2.336.61 4.544 2.47 4.544 1.79 0 2.24-2.048 2.2-3.936"/><path fill="#fff" d="M1441 0H0v263h1441z"/><path fill="#9DDBAD" d="m0 197.551 60.042 8.297c60.041 8.297 180.125 24.892 300.208 24.259 120.083-.711 240.167-18.569 360.25-31.529 120.083-12.88 240.167-20.782 360.25-19.755 120.08 1.106 240.17 11.063 300.21 16.12l60.04 4.979V0H0z"/><path fill="#3A766C" d="m0 153.197 60.042-10.848c60.041-10.849 180.125-32.547 300.208-35.703 120.083-3.221 240.167 12.164 360.25 13.019s240.167-12.69 360.25-22.026c120.08-9.337 240.17-14.334 300.21-16.898l60.04-2.498V0H0z"/><path fill="#001D21" d="m0 84.818 60.042-4.734c60.041-4.669 180.125-14.137 300.208-21.435 120.083-7.364 240.167-12.624 360.25-11.77 120.083.921 240.167 7.89 360.25 15.255 120.08 7.364 240.17 14.99 300.21 18.87l60.04 3.813V0H0z"/><path fill="#9DDBAD" d="m1 809.38 30.083 2.106c30.084 2.028 90.25 6.24 150.417 3.198 60.167-2.964 120.333-13.104 180.5-11.934s120.333 13.65 180.5 14.586c60.167.858 120.333-9.75 180.5-17.472 60.167-7.644 120.333-12.324 180.5-15.21 60.167-2.808 120.33-3.9 180.5 5.772 60.17 9.594 120.33 29.874 180.5 33.15 60.17 3.198 120.33-10.53 150.42-17.472l30.08-6.864v267.54H1z"/><path fill="#579783" d="m1 884.26 30.083 1.794c30.084 1.872 90.25 5.46 150.417 2.34s120.333-12.948 180.5-19.968 120.333-11.232 180.5-8.502S662.833 872.326 723 871.78s120.333-11.154 180.5-15.6 120.33-2.574 180.5 3.276 120.33 15.678 180.5 15.6c60.17-.156 120.33-10.296 150.42-15.366l30.08-5.07v212.16H1z"/><path fill="#225654" d="m1 912.34 30.083 1.794c30.084 1.872 90.25 5.46 150.417 6.63s120.333-.078 180.5-2.184 120.333-4.914 180.5-4.836c60.167.156 120.333 3.276 180.5 8.97 60.167 5.772 120.333 14.04 180.5 19.11s120.33 6.942 180.5 5.382 120.33-6.552 180.5-5.382 120.33 8.502 150.42 12.09l30.08 3.666v109.2H1z"/><path fill="#001D21" d="m1 998.14 30.083.156c30.084.078 90.25.39 150.417 2.964 60.167 2.57 120.333 7.57 180.5 10.69s120.333 4.36 180.5-3.28 120.333-24.336 180.5-27.69 120.333 6.474 180.5 11.934 120.33 6.552 180.5 2.34c60.17-4.134 120.33-13.494 180.5-17.784s120.33-3.51 150.42-3.12l30.08.39v92.04H1z"/></svg>