<svg xmlns="http://www.w3.org/2000/svg" width="1086" height="70" fill="none" viewBox="0 0 1086 70"><g clipPath="url(#a)"><path fill="#225654" d="M0 0h1086v70H0z"/><path fill="#225654" d="m0-13.125 22.625.966C45.25-11.152 90.5-9.221 135.75-8.591s90.5-.042 135.75-1.175 90.5-2.645 135.75-2.603c45.25.084 90.5 1.763 135.75 4.828C588.25-4.435 633.5.015 678.75 2.744s90.5 3.737 135.75 2.897S905 2.115 950.25 2.744c45.25.63 80.63 11.731 103.25 13.662l32.5 5.469V70H0z"/><path fill="#003A42" d="m0 35.274 22.625.079c22.625.04 67.875.197 113.125 1.5s90.5 3.827 135.75 5.406 90.5 2.21 135.75-1.658S497.75 28.29 543 26.592s90.5 3.276 135.75 6.038 90.5 3.315 135.75 1.184c45.25-2.092 90.5-6.827 135.75-8.997s90.5-1.776 113.13-1.579l22.62.198V70H0z"/></g><defs><clipPath id="a"><path fill="#fff" d="M0 0h1086v70H0z"/></clipPath></defs></svg>