<svg xmlns="http://www.w3.org/2000/svg" width="1086" height="53" fill="none" viewBox="0 0 1086 53"><path fill="#225654" d="M1086 53H0V0h1086z"/><path fill="#225654" d="m1086 62.938-22.62-.732c-22.63-.763-67.88-2.225-113.13-2.702s-90.5.032-135.75.89c-45.25.859-90.5 2.003-135.75 1.971-45.25-.063-90.5-1.335-135.75-3.655-45.25-2.352-90.5-5.722-135.75-7.788s-90.5-2.829-135.75-2.193-90.5 2.67-135.75 2.193S55.125 42.04 32.5 40.578L0 36.438V0h1086z"/><path fill="#003A42" d="m1086 26.293-22.62-.06c-22.63-.03-67.88-.15-113.13-1.135-45.25-.986-90.5-2.899-135.75-4.094S724 19.331 678.75 22.26 588.25 31.581 543 32.866s-90.5-2.48-135.75-4.571c-45.25-2.092-90.5-2.51-135.75-.897-45.25 1.584-90.5 5.17-135.75 6.812-45.25 1.644-90.5 1.345-113.125 1.196L0 35.256V0h1086z"/></svg>