<svg xmlns="http://www.w3.org/2000/svg" width="1086" height="58" fill="none" viewBox="0 0 1086 58"><path fill="#579783" d="M1086 58H0V0h1086z"/><path fill="#579783" d="m1086 68.875-22.62-.8c-22.63-.835-67.88-2.435-113.13-2.957s-90.5.035-135.75.974c-45.25.94-90.5 2.192-135.75 2.157-45.25-.07-90.5-1.461-135.75-4-45.25-2.575-90.5-6.262-135.75-8.523-45.25-2.26-90.5-3.096-135.75-2.4s-90.5 2.922-135.75 2.4-80.625-9.72-103.25-11.32L0 39.875V0h1086z"/><path fill="#003A42" d="m1086 28.773-22.62-.065c-22.63-.033-67.88-.164-113.13-1.243s-90.5-3.171-135.75-4.48c-45.25-1.307-90.5-1.83-135.75 1.374S588.25 34.56 543 35.966s-90.5-2.714-135.75-5.002c-45.25-2.289-90.5-2.747-135.75-.981-45.25 1.733-90.5 5.656-135.75 7.455-45.25 1.798-90.5 1.471-113.125 1.307L0 38.583V0h1086z"/></svg>