<svg xmlns="http://www.w3.org/2000/svg" height="fit" fill="none" viewBox="0 0 1086 46"><g clip-path="url(#a)"><path fill="#225654" d="M1086 46H0V0h1086z"/><path fill="#225654" d="m1086 54.625-22.62-.635c-22.63-.662-67.88-1.93-113.13-2.345-45.25-.413-90.5.028-135.75.773s-90.5 1.738-135.75 1.71c-45.25-.055-90.5-1.158-135.75-3.172-45.25-2.042-90.5-4.966-135.75-6.76s-90.5-2.455-135.75-1.903-90.5 2.317-135.75 1.904-80.625-7.71-103.25-8.978L0 31.625V0h1086z"/><path fill="#579783" d="m1086 22.82-22.62-.052c-22.63-.026-67.88-.13-113.13-.985-45.25-.856-90.5-2.516-135.75-3.553s-90.5-1.452-135.75 1.09c-45.25 2.54-90.5 8.09-135.75 9.205s-90.5-2.152-135.75-3.967c-45.25-1.816-90.5-2.179-135.75-.779-45.25 1.375-90.5 4.487-135.75 5.913s-90.5 1.167-113.125 1.037L0 30.6V0h1086z"/></g><defs><clipPath id="a"><path fill="#fff" d="M1086 46H0V0h1086z"/></clipPath></defs></svg>