<svg xmlns="http://www.w3.org/2000/svg" width="16" height="16" fill="none" viewBox="0 0 16 16"><path fill="#E2E8F0" d="M7.623 6.718a.557.557 0 0 0 .753 0c.675-.633 2.052-1.947 2.396-2.45.494-.727.986-1.327.986-2.373S10.866 0 9.764 0C8.993 0 8.332.42 8 1.027A2 2 0 0 0 6.235 0C5.133 0 4.24.848 4.24 1.895c0 1.046.493 1.646.987 2.372.344.504 1.72 1.818 2.396 2.45m-.363.532c-.838-.423-2.57-1.279-3.18-1.44-.877-.23-1.628-.497-2.68-.185C.35 5.936-.237 6.998.091 7.997c.23.699.85 1.172 1.56 1.292-.512.482-.736 1.206-.506 1.905.329.998 1.448 1.553 2.5 1.242 1.052-.312 1.508-.938 2.09-1.603.405-.461 1.315-2.1 1.75-2.902a.495.495 0 0 0-.226-.682m7.34-1.624c-1.052-.313-1.802-.046-2.68.185-.61.16-2.342 1.016-3.18 1.44a.5.5 0 0 0-.224.682c.434.801 1.344 2.442 1.749 2.902.583.665 1.04 1.291 2.091 1.603s2.172-.244 2.5-1.243c.23-.699.006-1.422-.506-1.904.71-.12 1.33-.594 1.56-1.292.327-1-.258-2.061-1.31-2.373m-4.67 10.199q.332-.491.666-.989a.42.42 0 0 0-.042-.53C8.965 12.67 8.456 8.713 8.456 8.713a.45.45 0 0 0-.412-.397.45.45 0 0 0-.5.392s-.051.495-.06 1.223c-.004.323-.14 4.015 1.815 5.95.18.18.49.152.63-.057"/></svg>