<?xml version="1.0" encoding="UTF-8" standalone="no"?>
<svg xmlns="http://www.w3.org/2000/svg" width="577.02" height="719.52" version="1.0">
<title>Windmill</title>
<path style="fill:black;stroke:none" d="M 305.44304,296.85392 C 304.57351,296.52025 303.45479,295.17602 302.957,293.86674 C 302.3272,292.21023 299.70708,290.41764 294.34204,287.97272 C 290.1016,286.04029 285.93086,284.57416 285.07372,284.71466 C 282.53031,285.13155 281.01528,283.58708 281.01528,280.57737 C 281.01528,277.82838 278.93645,275.54115 270.51095,269.02002 C 267.18584,266.44646 265.11459,260.50204 265.05917,253.37361 C 265.01865,248.16067 265.28092,247.49397 268.47554,244.68905 C 270.37869,243.01807 274.09119,240.4228 276.72554,238.92179 C 279.3599,237.42078 282.97233,235.12258 284.75318,233.81469 C 287.31123,231.936 288.39975,231.65541 289.93744,232.47836 C 291.00793,233.05127 292.60884,233.52002 293.49499,233.52002 C 296.17656,233.52002 300.01528,228.89327 300.01528,225.66122 C 300.01528,223.02295 300.74891,222.33185 306.96356,219.11576 C 310.78512,217.1381 315.31654,215.52002 317.03339,215.52002 C 320.09331,215.52002 328.16618,210.91665 330.76528,207.68971 C 331.45278,206.83614 332.01528,204.35979 332.01528,202.1867 C 332.01528,196.35638 325.72291,189.48785 313.89327,182.40534 C 308.73537,179.31726 295.74028,171.48196 285.01528,164.99356 C 246.22289,141.52496 156.96125,94.726703 89.783516,62.637096 C 56.788789,46.876102 23.405416,30.278073 21.826669,28.849328 C 19.927875,27.130942 19.311194,21.073201 20.933018,20.070859 C 22.005566,19.407988 33.309285,23.331767 44.01528,28.083239 C 48.14028,29.913972 60.06528,34.983827 70.51528,39.349583 C 127.94037,63.34039 137.54858,67.517921 175.01528,84.784882 C 218.44351,104.79928 300.53748,147.47954 308.55681,154.21247 C 311.28397,156.50216 318.66072,161.78305 324.94959,165.94778 C 333.5302,171.63019 337.22781,173.52002 339.76533,173.52002 C 344.28929,173.52002 346.71524,174.87495 351.73068,180.20283 C 354.04914,182.66573 356.29914,184.49343 356.73068,184.2644 C 357.16221,184.03536 363.89801,180.13794 371.69913,175.60346 L 385.88298,167.35895 L 397.81437,148.18948 C 414.65673,121.12984 427.72187,98.849959 437.71858,80.141128 C 452.20374,53.032177 453.22193,51.828064 456.74017,57.646171 C 458.22824,60.106991 458.15597,60.830988 455.59221,69.146171 C 451.02839,83.948282 439.29431,116.76969 433.36816,131.30908 C 430.2945,138.8501 426.22835,148.84502 424.33229,153.52002 C 422.43622,158.19502 420.65221,162.55351 420.36783,163.20555 C 420.08345,163.8576 421.67497,165.54265 423.90453,166.95011 C 432.34578,172.27883 433.19151,181.38974 426.6468,196.49215 C 424.64947,201.10116 423.01231,205.80544 423.00869,206.9461 C 422.9976,210.43712 419.76116,214.21734 410.44256,221.62359 C 398.91469,230.78571 398.80324,230.93433 400.50724,234.87231 C 401.25636,236.60355 402.113,238.80752 402.41089,239.77002 C 402.70878,240.73252 403.85041,241.52002 404.94784,241.52002 C 407.4181,241.52002 412.01498,248.01198 412.01607,251.50215 C 412.0165,252.88698 413.4067,256.94502 415.1054,260.52002 C 418.58066,267.83391 436.53311,307.55033 449.00658,335.52002 C 453.54427,345.69502 461.21035,362.79502 466.04233,373.52002 C 470.87431,384.24502 476.7156,397.29502 479.02299,402.52002 C 481.33037,407.74502 484.51105,414.94502 486.09117,418.52002 C 492.87691,433.87271 503.70981,459.48027 511.51265,478.61307 C 516.13175,489.93925 525.39354,511.98925 532.0944,527.61307 C 550.4213,570.34434 557.01528,586.60199 557.01528,589.05623 C 557.01528,593.51066 551.74079,594.89151 550.38245,590.7927 C 549.57404,588.35329 536.1338,559.13878 521.7337,528.52002 C 515.13769,514.49502 497.59269,479.17002 482.74481,450.02002 C 467.89692,420.87002 453.05239,391.62002 449.75695,385.02002 C 446.46152,378.42002 440.96722,368.07002 437.54739,362.02002 C 422.28296,335.01576 401.63485,295.98129 399.08939,289.31663 C 397.55664,285.30349 394.86201,277.66611 393.10133,272.34466 C 389.05645,260.11953 388.25518,259.38447 382.43777,262.56236 C 380.0054,263.8911 377.97778,265.21265 377.93195,265.49913 C 377.88611,265.78562 377.66347,266.92002 377.43719,268.02002 C 377.2109,269.12002 376.6859,272.25943 376.27052,274.9965 C 375.44806,280.41591 375.80558,280.12635 357.9319,289.84904 L 352.73119,292.67805 L 380.85295,719.52002 L 340.96778,719.52002 L 296.29138,719.52002 C 296.29138,719.52002 306.84703,297.39269 305.44304,296.85392 z M 385.484,251.88006 C 386.0619,248.02636 385.84961,246.90991 384.23123,245.29153 C 382.29981,243.36011 382.2463,243.36152 378.14897,245.45181 C 375.87544,246.61168 374.01528,248.18412 374.01528,248.94611 C 374.01528,250.21005 382.39471,256.52002 384.07318,256.52002 C 384.46644,256.52002 385.1013,254.43204 385.484,251.88006 z " />
</svg>
