<svg xmlns="http://www.w3.org/2000/svg" width="577.02" height="719.52" version="1.0"><path d="M305.443 296.854c-.87-.334-1.988-1.678-2.486-2.987-.63-1.657-3.25-3.45-8.615-5.894-4.24-1.933-8.411-3.399-9.268-3.258-2.544.417-4.059-1.128-4.059-4.138 0-2.749-2.079-5.036-10.504-11.557-3.325-2.574-5.396-8.518-5.452-15.646-.04-5.213.222-5.88 3.417-8.685 1.903-1.67 5.615-4.266 8.25-5.767s6.246-3.8 8.027-5.107c2.558-1.879 3.647-2.16 5.184-1.337 1.07.573 2.672 1.042 3.558 1.042 2.682 0 6.52-4.627 6.52-7.859 0-2.638.734-3.33 6.949-6.545 3.821-1.978 8.353-3.596 10.07-3.596 3.06 0 11.132-4.603 13.731-7.83.688-.854 1.25-3.33 1.25-5.503 0-5.83-6.292-12.7-18.122-19.782a9920 9920 0 0 1-28.878-17.411C246.223 141.525 156.961 94.727 89.784 62.637 56.789 46.877 23.405 30.278 21.827 28.85c-1.9-1.718-2.516-7.776-.894-8.778 1.073-.663 12.376 3.26 23.082 8.012 4.125 1.831 16.05 6.9 26.5 11.267 57.425 23.99 67.034 28.168 104.5 45.435 43.429 20.014 125.522 62.695 133.542 69.427 2.727 2.29 10.104 7.571 16.393 11.736 8.58 5.682 12.278 7.572 14.815 7.572 4.524 0 6.95 1.355 11.966 6.683 2.318 2.463 4.568 4.29 5 4.061.431-.229 7.167-4.126 14.968-8.66l14.184-8.245 11.931-19.17c16.843-27.06 29.908-49.339 39.905-68.048 14.485-27.109 15.503-28.313 19.021-22.495 1.488 2.461 1.416 3.185-1.148 11.5-4.564 14.802-16.298 47.624-22.224 62.163-3.073 7.541-7.14 17.536-9.036 22.211s-3.68 9.034-3.964 9.686c-.285.652 1.307 2.337 3.537 3.744 8.44 5.329 9.287 14.44 2.742 29.542-1.998 4.61-3.635 9.313-3.638 10.454-.011 3.491-3.248 7.271-12.566 14.678-11.528 9.162-11.64 9.31-9.936 13.248.75 1.732 1.606 3.936 1.904 4.898.298.963 1.44 1.75 2.537 1.75 2.47 0 7.067 6.492 7.068 9.982 0 1.385 1.39 5.443 3.09 9.018 3.475 7.314 21.427 47.03 33.9 75a13274 13274 0 0 0 17.036 38c4.832 10.725 10.674 23.775 12.981 29s5.488 12.425 7.068 16c6.786 15.353 17.619 40.96 25.422 60.093 4.619 11.326 13.88 33.376 20.581 49 18.327 42.731 24.921 58.989 24.921 61.443 0 4.455-5.274 5.836-6.633 1.737-.808-2.44-14.248-31.654-28.648-62.273-6.596-14.025-24.141-49.35-38.99-78.5-14.847-29.15-29.692-58.4-32.987-65s-8.79-16.95-12.21-23c-15.264-27.004-35.912-66.039-38.458-72.703-1.532-4.014-4.227-11.65-5.988-16.972-4.045-12.225-4.846-12.96-10.663-9.783-2.433 1.33-4.46 2.65-4.506 2.937s-.269 1.421-.495 2.521-.751 4.24-1.166 6.977c-.823 5.419-.465 5.13-18.34 14.852l-5.2 2.829 28.122 426.842H296.29s10.556-422.127 9.152-422.666m80.041-44.974c.578-3.854.366-4.97-1.253-6.588-1.931-1.932-1.985-1.93-6.082.16-2.274 1.16-4.134 2.732-4.134 3.494 0 1.264 8.38 7.574 10.058 7.574.393 0 1.028-2.088 1.411-4.64" style="fill:#000;stroke:none"/></svg>