<svg xmlns="http://www.w3.org/2000/svg" width="1440" height="382" fill="none" viewBox="0 0 1440 382"><g clip-path="url(#a)"><path fill="#fff" d="M1440 0H0v413h1440z"/><path fill="#9DDBAD" d="m0 141.246 30 2.23c30 2.148 90 6.608 150 3.387 60-3.139 120-13.877 180-12.638s120 14.455 180 15.446c60 .909 120-10.325 180-18.502 60-8.095 120-13.051 180-16.107 60-2.974 120-4.13 180 6.112 60 10.16 120 31.636 180 35.105 60 3.387 120-11.151 150-18.502l30-7.269v283.318H0z"/><path fill="#579783" d="m0 220.542 30 1.9c30 1.982 90 5.782 150 2.478s120-13.712 180-21.146 120-11.894 180-9.003 120 13.133 180 12.555 120-11.812 180-16.52 120-2.726 180 3.469 120 16.603 180 16.52c60-.165 120-10.903 150-16.272l30-5.369v224.672H0z"/><path fill="#225654" d="m0 250.278 30 1.9c30 1.982 90 5.782 150 7.021s120-.083 180-2.313 120-5.204 180-5.121c60 .165 120 3.469 180 9.499 60 6.112 120 14.868 180 20.237s120 7.351 180 5.699 120-6.938 180-5.699 120 9.003 150 12.803l30 3.882v115.64H0z"/><path fill="#001D21" d="m0 341.138 30 .165c30 .083 90 .413 150 3.139s120 8.012 180 11.316 120 4.626 180-3.469 120-25.771 180-29.323 120 6.856 180 12.638 120 6.938 180 2.478c60-4.378 120-14.29 180-18.833s120-3.717 150-3.304l30 .413v97.468H0z"/></g><defs><clipPath id="a"><path fill="#fff" d="M0 0h1440v382H0z"/></clipPath></defs></svg>