<svg xmlns="http://www.w3.org/2000/svg" xml:space="preserve" viewBox="0 0 1042.9 455"><path d="M640.3 151.9c6-14.4-.9-30.9-15.3-36.9s-30.9.9-36.9 15.3l-71.6 172.8c-6 14.4.9 30.9 15.3 36.9s30.9-.9 36.9-15.3zm92.2 0c-6-14.4.9-30.9 15.3-36.9s30.9.9 36.9 15.3l71.6 172.8c6 14.4-.9 30.9-15.3 36.9s-30.9-.9-36.9-15.3zm143.2-21.6c6-14.4 22.5-21.2 36.9-15.3s21.2 22.5 15.3 36.9l-24 57.9c-6 14.4-22.5 21.2-36.9 15.3-14.4-6-21.2-22.5-15.3-36.9zM687.8 245.2c-6-14.4-22.5-21.2-36.9-15.3-14.4 6-21.2 22.5-15.3 36.9l24 57.9c6 14.4 22.5 21.2 36.9 15.3 14.4-6 21.2-22.5 15.3-36.9zm-574.9-74.1c0-16.7 12.1-30.3 28.1-30.3 8.4 0 15.4 4.3 18.6 9V142h12.8v58.2h-12.8v-7.8c-3.3 4.7-10.2 9-18.6 9-16 0-28.1-13.6-28.1-30.3m47.8 0c0-10.5-7.1-18.6-17.4-18.6s-17.4 8.2-17.4 18.6c0 10.5 7.1 18.6 17.4 18.6s17.4-8.1 17.4-18.6m21.3 18 9.4-6.8c2.3 5.1 8 8 14 8 4.5 0 8.4-2.1 8.4-6.2 0-3.4-2-5.2-9-7.5l-5.1-1.4c-10.2-2.8-15.4-9.1-15.3-17.8 0-10.2 9.2-16.7 20.8-16.7 8.9 0 15.6 3.4 19.7 9.9l-8.9 6.8c-2.7-3.6-6.3-5.9-11.1-5.9-3.8 0-7.8 1.9-7.8 5.5 0 2.8 1.3 5.1 7 6.9l5.9 1.7c10.2 3.1 16.3 8 16.3 17.7 0 11.2-9.1 18.1-21.1 18.1-10.1 0-19-3.9-23.2-12.3m55.1 35.5V142h12.8v7.8c3.3-4.7 10.4-9 18.7-9 16 0 28.1 13.6 28.1 30.3s-12.1 30.3-28.1 30.3c-8.4 0-15.5-4.3-18.7-9v32.1h-12.8zm46.6-53.5c0-10.5-7.1-18.6-17.4-18.6-10.4 0-17.5 8.2-17.5 18.6 0 10.5 7.1 18.6 17.5 18.6 10.3.1 17.4-8.1 17.4-18.6m23.8-58.2h12.8v87.3h-12.8zm23.4 58.2c0-16.7 12.1-30.3 28.1-30.3 8.4 0 15.4 4.3 18.6 9V142h12.8v58.2h-12.8v-7.8c-3.3 4.7-10.2 9-18.6 9-16 0-28.1-13.6-28.1-30.3m47.8 0c0-10.5-7.1-18.6-17.4-18.6-10.2 0-17.4 8.2-17.4 18.6 0 10.5 7.1 18.6 17.4 18.6 10.3.1 17.4-8.1 17.4-18.6m26.1-29.1h12.8v7.9c3.6-5.9 10.1-9.1 17.7-9.1 13.5 0 22.2 9.5 22.2 24.3v35.1h-12.8v-33c0-9.3-4.7-14.8-12.1-14.8-8.5 0-15 6.5-15 19.1v28.6h-12.8zM112.9 269h14.2l17.7 40.9 17.8-40.9H177l-26.4 58.2h-11.3zm68.7-21.3c0-4.7 4-8.5 8.6-8.5 4.8 0 8.5 3.8 8.5 8.5 0 4.8-3.7 8.6-8.5 8.6-4.6 0-8.6-3.9-8.6-8.6m2.3 21.3h12.8v58.2h-12.8zm23.1 29.1c0-16.7 12.1-30.3 28.1-30.3 8.4 0 15.4 4.3 18.6 9V269h12.8v58.2h-12.8v-7.8c-3.3 4.7-10.2 9-18.6 9-16 0-28.1-13.7-28.1-30.3m47.8 0c0-10.5-7.1-18.6-17.4-18.6s-17.4 8.2-17.4 18.6c0 10.5 7.1 18.6 17.4 18.6s17.4-8.1 17.4-18.6m38.9 1v28.1h-12.8v-87.3h12.8v51.2l22.2-22.1h16.2l-26 26 31.8 32.3h-16.4z"/></svg>