<svg id="Layer_1" data-name="Layer 1" xmlns="http://www.w3.org/2000/svg" viewBox="0 0 98 42" class="the-header__logo-media" xmlns:xlink="http://www.w3.org/1999/xlink"><defs></defs> <rect y="16" width="98" height="2" class="cls-1" style="fill: rgb(63, 156, 53);"></rect> <rect y="20" width="98" height="4" class="cls-2" style="fill: rgb(0, 53, 145);"></rect> <rect width="98" height="12" class="cls-3" style="fill: rgb(153, 217, 240);"></rect> <path d="M59.14,30.02a8.4035,8.4035,0,0,0-3.4516-.6482H48.8525V42h6.8359a8.4,8.4,0,0,0,3.4516-.6483,4.7833,4.7833,0,0,0,2.2225-1.953,6.33,6.33,0,0,0,.7745-3.2749v-.8755a6.33,6.33,0,0,0-.7745-3.2749A4.7862,4.7862,0,0,0,59.14,30.02Zm.9261,6.0361a3.9171,3.9171,0,0,1-1.0945,3.0476,4.7177,4.7177,0,0,1-3.2664.9934H50.9571V31.2747h4.7481a4.8018,4.8018,0,0,1,3.2664.9681,3.9044,3.9044,0,0,1,1.0945,3.0728Z" class="cls-4" style="fill: rgb(15, 33, 74);"></path> <polygon points="77.947 39.24 68.181 29.372 67.02 29.372 66.127 29.372 66.127 42 68.181 42 68.181 32.144 77.947 42 80.018 42 80.018 29.372 77.947 29.372 77.947 39.24" class="cls-4" style="fill: rgb(15, 33, 74);"></polygon> <polygon points="95.761 29.372 90.928 39.24 86.096 29.372 83.722 29.372 90.053 42 91.686 42 98 29.372 95.761 29.372" class="cls-4" style="fill: rgb(15, 33, 74);"></polygon></svg>