<svg version="1.1" id="Layer_1" xmlns="http://www.w3.org/2000/svg" xmlns:xlink="http://www.w3.org/1999/xlink" x="0px" y="0px" viewBox="0 0 590.2 233.4" style="enable-background:new 0 0 590.2 233.4;" xml:space="preserve">
 <style type="text/css">
  .st0{fill:#FF1243;}
 </style>
 <g>
  <path class="st0" d="M516.5,164.3l12.3,7.1c0.7,0.4,1.2,1.2,1.2,2.1l0,14.2c0,1.2-1.3,2-2.3,1.4l-12.3-7.1
		c-0.7-0.4-1.2-1.2-1.2-2.1v-14.2C514.1,164.5,515.4,163.7,516.5,164.3z M526.4,147.2l12.3,7.1c0.7,0.4,1.6,0.4,2.4,0l12.3-7.1
		c1-0.6,1-2.1,0-2.7l-12.3-7.1c-0.7-0.4-1.6-0.4-2.4,0l-12.3,7.1C525.3,145.1,525.3,146.6,526.4,147.2z M481.7,144.3l-27.7-16
		c-0.8-0.5-1.8-0.5-2.7,0l-27.7,16c-1.2,0.7-1.2,2.4,0,3.1l27.7,16c0.8,0.5,1.8,0.5,2.7,0l27.7-16
		C482.9,146.6,482.9,145,481.7,144.3z M492.5,164L474,174.6c-0.5,0.3-0.9,0.9-0.9,1.5v21.3c0,0.9,1,1.5,1.8,1l18.5-10.7
		c0.5-0.3,0.9-0.9,0.9-1.5V165C494.3,164.1,493.3,163.5,492.5,164z M583.8,0.6l-66.6,38.3c-2,1.1-3.2,3.2-3.2,5.5v76.8
		c0,3.3,3.6,5.3,6.4,3.7l66.6-38.3c2-1.1,3.1-3.2,3.1-5.5V4.2C590.2,1,586.7-1.1,583.8,0.6z M441.4,42.2v53.4c0,1.6,0.8,3,2.2,3.8
		l46.2,26.6c2,1.1,4.5-0.3,4.5-2.6V70.2c0-1.6-0.8-3-2.2-3.8l-46.2-26.6C443.9,38.6,441.4,40,441.4,42.2z">
  </path>
  <g>
   <g>
    <path class="st0" d="M391.1,150.3c-0.5-1.2-1.5-1.7-2.7-1c-1.2,0.7-23,13.7-23,13.7v-12c0-1.4-0.9-1.8-2.1-1.4l-7.1,2.6
				c-1,0.4-1.4,1.1-1.4,2.1V207c0,1.1,0.7,1.8,1.8,1.8h6.8c1.1,0,1.8-0.7,1.8-1.8v-32.3c0,0,25.8-15.9,26.8-16.5
				c1-0.6,1.6-1.2,1.1-2.3C392.8,154.6,391.1,150.3,391.1,150.3">
    </path>
    <path class="st0" d="M57,175.7c0-14.7-10-27.1-26.8-27.1C13.7,148.7,0,160.5,0,179.9c0,17.6,11.5,30.5,30.8,30.5
				c8.8,0,17.6-3.1,24.2-8.9c0.9-0.7,0.9-1.7,0.2-2.6l-3.3-5.1c-0.6-1-1.6-1.1-2.6-0.4c-6,4.4-12.1,6.6-18.6,6.6
				c-12.4,0-19.1-8.1-20-18.2h44.3c1.1,0,1.8-0.8,1.8-1.8L57,175.7L57,175.7z M11.6,172.5c2.3-8.4,8.9-13.6,18.2-13.6
				c10.2,0,15.5,6,16,13.6H11.6z">
    </path>
    <path class="st0" d="M116.7,233.4h6.8c1.1,0,1.8-0.7,1.8-1.8V151c0-1.4-0.9-1.8-2.2-1.4l-7,2.6c-1,0.4-1.4,1.1-1.4,2.1v2.6
				c-3.8-5.1-11.3-8.2-19.3-8.2c-16,0-30,12-30,30.8c0,16.6,10.8,30.8,29.4,30.8c8.4,0,16.5-3.8,20-8.1v29.3
				C114.9,232.6,115.6,233.4,116.7,233.4 M95.7,199.9c-10.4,0-19.3-7.1-19.3-20.6c0-13.5,8.9-20.4,19.3-20.4
				c10.9,0,19.3,7,19.3,20.4C115,193,106.5,199.9,95.7,199.9">
    </path>
    <path class="st0" d="M160.3,210.3c6.4,0,13.3-2.1,17.9-8.7v5.4c0,1.1,0.7,1.8,1.8,1.8h6.8c1.1,0,1.8-0.7,1.8-1.8v-55.9
				c0-1.5-0.9-2-2.1-1.5l-7.1,2.6c-1,0.4-1.4,1.1-1.4,2.1v29.4c0,10.4-6.7,16.3-15.9,16.3c-9.1,0-15.2-5.7-15.2-16.3V151
				c0-1.4-0.9-1.8-2.1-1.4l-7.1,2.6c-1,0.4-1.4,1.1-1.4,2.1V184C136.5,201.4,147,210.3,160.3,210.3">
    </path>
    <g>
     <path class="st0" d="M203,143.4l7.5-2.5c1.2-0.4,1.7-1,1.7-2.2v-8.9c0-1.1-0.9-2-2.2-1.5l-7.3,2.7c-1.1,0.4-1.7,0.9-1.7,2.1v8.6
					C200.9,143,201.6,143.9,203,143.4">
     </path>
     <path class="st0" d="M203.1,208.9h6.8c1.1,0,1.8-0.7,1.8-1.8V151c0-1.4-0.9-1.8-2.1-1.4l-7.1,2.6c-1,0.4-1.4,1.1-1.4,2.1V207
					C201.3,208.1,202,208.9,203.1,208.9">
     </path>
    </g>
    <path class="st0" d="M226.2,208.9h6.8c1.1,0,1.8-0.7,1.8-1.8v-31.7c0-10.4,6.7-16.3,15.9-16.3c9.1,0,15.2,5.7,15.2,16.3V207
				c0,1.1,0.7,1.8,1.8,1.8h6.8c1.1,0,1.8-0.7,1.8-1.8v-32.1c0-17.4-10.5-26.3-23.7-26.3c-6.4,0-13.3,2.1-17.9,8.7V151
				c0-1.4-0.9-1.8-2.1-1.4l-7.1,2.6c-1,0.4-1.4,1.1-1.4,2.1V207C224.4,208.1,225.1,208.9,226.2,208.9">
    </path>
    <path class="st0" d="M315.8,148.7c-17.6,0-30.2,13.1-30.2,30.8c0,17.8,12.6,30.8,30.2,30.8c17.6,0,30.1-13.1,30.1-30.8
				C345.9,161.7,333.4,148.7,315.8,148.7 M315.8,200.1c-12.1,0-19.5-9.1-19.5-20.6c0-11.5,7.3-20.6,19.5-20.6
				c12,0,19.3,9.1,19.3,20.6C335.1,191,327.8,200.1,315.8,200.1">
    </path>
   </g>
  </g>
 </g>
</svg>