<svg xmlns="http://www.w3.org/2000/svg" xml:space="preserve" viewBox="0 0 590.2 233.4"><path d="m516.5 164.3 12.3 7.1c.7.4 1.2 1.2 1.2 2.1v14.2c0 1.2-1.3 2-2.3 1.4l-12.3-7.1c-.7-.4-1.2-1.2-1.2-2.1v-14.2c-.1-1.2 1.2-2 2.3-1.4m9.9-17.1 12.3 7.1c.7.4 1.6.4 2.4 0l12.3-7.1c1-.6 1-2.1 0-2.7l-12.3-7.1c-.7-.4-1.6-.4-2.4 0l-12.3 7.1c-1.1.6-1.1 2.1 0 2.7m-44.7-2.9-27.7-16c-.8-.5-1.8-.5-2.7 0l-27.7 16c-1.2.7-1.2 2.4 0 3.1l27.7 16c.8.5 1.8.5 2.7 0l27.7-16c1.2-.8 1.2-2.4 0-3.1m10.8 19.7L474 174.6c-.5.3-.9.9-.9 1.5v21.3c0 .9 1 1.5 1.8 1l18.5-10.7c.5-.3.9-.9.9-1.5V165c0-.9-1-1.5-1.8-1M583.8.6l-66.6 38.3c-2 1.1-3.2 3.2-3.2 5.5v76.8c0 3.3 3.6 5.3 6.4 3.7L587 86.6c2-1.1 3.1-3.2 3.1-5.5V4.2c.1-3.2-3.4-5.3-6.3-3.6M441.4 42.2v53.4c0 1.6.8 3 2.2 3.8l46.2 26.6c2 1.1 4.5-.3 4.5-2.6V70.2c0-1.6-.8-3-2.2-3.8l-46.2-26.6c-2-1.2-4.5.2-4.5 2.4m-50.3 108.1c-.5-1.2-1.5-1.7-2.7-1s-23 13.7-23 13.7v-12c0-1.4-.9-1.8-2.1-1.4l-7.1 2.6c-1 .4-1.4 1.1-1.4 2.1V207c0 1.1.7 1.8 1.8 1.8h6.8c1.1 0 1.8-.7 1.8-1.8v-32.3s25.8-15.9 26.8-16.5 1.6-1.2 1.1-2.3c-.3-1.3-2-5.6-2-5.6M57 175.7c0-14.7-10-27.1-26.8-27.1-16.5.1-30.2 11.9-30.2 31.3 0 17.6 11.5 30.5 30.8 30.5 8.8 0 17.6-3.1 24.2-8.9.9-.7.9-1.7.2-2.6l-3.3-5.1c-.6-1-1.6-1.1-2.6-.4-6 4.4-12.1 6.6-18.6 6.6-12.4 0-19.1-8.1-20-18.2H55c1.1 0 1.8-.8 1.8-1.8zm-45.4-3.2c2.3-8.4 8.9-13.6 18.2-13.6 10.2 0 15.5 6 16 13.6zm105.1 60.9h6.8c1.1 0 1.8-.7 1.8-1.8V151c0-1.4-.9-1.8-2.2-1.4l-7 2.6c-1 .4-1.4 1.1-1.4 2.1v2.6c-3.8-5.1-11.3-8.2-19.3-8.2-16 0-30 12-30 30.8 0 16.6 10.8 30.8 29.4 30.8 8.4 0 16.5-3.8 20-8.1v29.3c.1 1.1.8 1.9 1.9 1.9m-21-33.5c-10.4 0-19.3-7.1-19.3-20.6s8.9-20.4 19.3-20.4c10.9 0 19.3 7 19.3 20.4 0 13.7-8.5 20.6-19.3 20.6m64.6 10.4c6.4 0 13.3-2.1 17.9-8.7v5.4c0 1.1.7 1.8 1.8 1.8h6.8c1.1 0 1.8-.7 1.8-1.8v-55.9c0-1.5-.9-2-2.1-1.5l-7.1 2.6c-1 .4-1.4 1.1-1.4 2.1v29.4c0 10.4-6.7 16.3-15.9 16.3-9.1 0-15.2-5.7-15.2-16.3V151c0-1.4-.9-1.8-2.1-1.4l-7.1 2.6c-1 .4-1.4 1.1-1.4 2.1V184c.2 17.4 10.7 26.3 24 26.3m42.7-66.9 7.5-2.5c1.2-.4 1.7-1 1.7-2.2v-8.9c0-1.1-.9-2-2.2-1.5l-7.3 2.7c-1.1.4-1.7.9-1.7 2.1v8.6c-.1 1.3.6 2.2 2 1.7m.1 65.5h6.8c1.1 0 1.8-.7 1.8-1.8V151c0-1.4-.9-1.8-2.1-1.4l-7.1 2.6c-1 .4-1.4 1.1-1.4 2.1V207c.2 1.1.9 1.9 2 1.9m23.1 0h6.8c1.1 0 1.8-.7 1.8-1.8v-31.7c0-10.4 6.7-16.3 15.9-16.3 9.1 0 15.2 5.7 15.2 16.3V207c0 1.1.7 1.8 1.8 1.8h6.8c1.1 0 1.8-.7 1.8-1.8v-32.1c0-17.4-10.5-26.3-23.7-26.3-6.4 0-13.3 2.1-17.9 8.7V151c0-1.4-.9-1.8-2.1-1.4l-7.1 2.6c-1 .4-1.4 1.1-1.4 2.1V207c.3 1.1 1 1.9 2.1 1.9m89.6-60.2c-17.6 0-30.2 13.1-30.2 30.8 0 17.8 12.6 30.8 30.2 30.8s30.1-13.1 30.1-30.8c0-17.8-12.5-30.8-30.1-30.8m0 51.4c-12.1 0-19.5-9.1-19.5-20.6s7.3-20.6 19.5-20.6c12 0 19.3 9.1 19.3 20.6s-7.3 20.6-19.3 20.6" style="fill:#ff1243"/></svg>