<?xml version="1.0" encoding="UTF-8" standalone="no"?>
<!-- Created with Inkscape (http://www.inkscape.org/) -->

<svg
   xmlns:dc="http://purl.org/dc/elements/1.1/"
   xmlns:cc="http://creativecommons.org/ns#"
   xmlns:rdf="http://www.w3.org/1999/02/22-rdf-syntax-ns#"
   xmlns:svg="http://www.w3.org/2000/svg"
   xmlns="http://www.w3.org/2000/svg"
   xmlns:sodipodi="http://sodipodi.sourceforge.net/DTD/sodipodi-0.dtd"
   xmlns:inkscape="http://www.inkscape.org/namespaces/inkscape"
   id="svg4136"
   version="1.1"
   inkscape:version="0.91 r13725"
   xml:space="preserve"
   width="508"
   height="79.98819"
   viewBox="0 0 508 79.98819"
   sodipodi:docname="Multiconsult logo.svg"><metadata
     id="metadata4142"><rdf:RDF><cc:Work
         rdf:about=""><dc:format>image/svg+xml</dc:format><dc:type
           rdf:resource="http://purl.org/dc/dcmitype/StillImage" /><dc:title></dc:title></cc:Work></rdf:RDF></metadata><defs
     id="defs4140"><clipPath
       clipPathUnits="userSpaceOnUse"
       id="clipPath5452"><path
         d="m 407.857,707.849 134.939,0 0,19.428 -134.939,0 0,-19.428 z"
         id="path5454"
         inkscape:connector-curvature="0" /></clipPath></defs><sodipodi:namedview
     pagecolor="#ffffff"
     bordercolor="#666666"
     borderopacity="1"
     objecttolerance="10"
     gridtolerance="10"
     guidetolerance="10"
     inkscape:pageopacity="0"
     inkscape:pageshadow="2"
     inkscape:window-width="1920"
     inkscape:window-height="1018"
     id="namedview4138"
     showgrid="false"
     fit-margin-bottom="4"
     fit-margin-left="4"
     fit-margin-top="4"
     fit-margin-right="4"
     inkscape:zoom="0.85573789"
     inkscape:cx="-133.77403"
     inkscape:cy="-384.74812"
     inkscape:window-x="-8"
     inkscape:window-y="-8"
     inkscape:window-maximized="1"
     inkscape:current-layer="g4144" /><g
     id="g4144"
     inkscape:groupmode="layer"
     inkscape:label="Multiconsult-årsrapport-2013-F41-lav"
     transform="matrix(1.25,0,0,-1.25,-505.82151,960.79945)"><g
       id="g5448"
       transform="matrix(2.9643068,0,0,2.9643068,-801.15666,-1390.4326)"><g
         id="g5450"
         clip-path="url(#clipPath5452)"><g
           id="g5456"
           transform="translate(422.5872,708.1516)"><path
             d="M 0,0 -2.122,0 C -2.334,0 -2.425,0.091 -2.425,0.303 L -2.092,13.76 -6.426,2.91 C -6.455,2.85 -6.547,2.758 -6.699,2.728 l -1.03,0 C -7.881,2.758 -7.971,2.85 -8.002,2.91 l -4.273,10.88 0.272,-13.487 C -12.003,0.091 -12.094,0 -12.306,0 l -2.121,0 c -0.213,0 -0.303,0.091 -0.303,0.303 l 0,18.489 c 0,0.212 0.09,0.303 0.303,0.303 l 2.091,0 c 0.121,0 0.242,-0.061 0.273,-0.183 l 4.789,-12.032 0.09,0 4.759,12.063 0.273,0.183 L 0,19.095 c 0.211,0 0.303,-0.091 0.303,-0.303 l 0,-18.489 C 0.303,0.091 0.211,0 0,0"
             style="fill:#4f4c4d;fill-opacity:1;fill-rule:nonzero;stroke:none"
             id="path5458"
             inkscape:connector-curvature="0" /></g><g
           id="g5460"
           transform="translate(436.804,708.1516)"><path
             d="m 0,0 -1.819,0 c -0.212,0 -0.303,0.091 -0.303,0.303 l 0,0.365 C -2.122,0.879 -2.212,1 -2.334,1 -2.727,1 -3.607,0 -5.365,0 c -3.03,0 -5.244,2.092 -5.244,5.153 l 0,8.184 c 0,0.211 0.092,0.302 0.303,0.302 l 2.123,0 c 0.211,0 0.303,-0.091 0.303,-0.302 l 0,-8.184 c 0,-1.485 1.181,-2.728 2.727,-2.728 1.546,0 2.728,1.243 2.728,2.728 l 0,8.184 c 0,0.211 0.091,0.302 0.303,0.302 l 2.122,0 c 0.213,0 0.303,-0.091 0.303,-0.302 l 0,-13.034 C 0.303,0.091 0.213,0 0,0"
             style="fill:#4f4c4d;fill-opacity:1;fill-rule:nonzero;stroke:none"
             id="path5462"
             inkscape:connector-curvature="0" /></g><g
           id="g5464"
           transform="translate(443.4738,708.1516)"><path
             d="m 0,0 -2.122,0 c -0.212,0 -0.303,0.091 -0.303,0.303 l 0,18.489 c 0,0.212 0.091,0.303 0.303,0.303 l 2.122,0 c 0.212,0 0.303,-0.091 0.303,-0.303 l 0,-18.489 C 0.303,0.091 0.212,0 0,0"
             style="fill:#4f4c4d;fill-opacity:1;fill-rule:nonzero;stroke:none"
             id="path5466"
             inkscape:connector-curvature="0" /></g><g
           id="g5468"
           transform="translate(458.7127,721.7901)"><path
             d="M 0,0 -1.682,0 -2.121,0 -7.847,0 C -8.059,0 -8.15,0.091 -8.15,0.303 l 0,2.122 c 0,0.213 -0.091,0.303 -0.303,0.303 l -0.94,0 -0.212,-0.09 -3.485,-3.698 -0.061,-1.062 c 0,-0.211 0.09,-0.302 0.303,-0.302 l 1.667,0 c 0.212,0 0.303,-0.092 0.303,-0.303 l 0,-6.063 0.007,0 0,-4.546 c 0,-0.211 0.091,-0.303 0.304,-0.303 l 2.121,0 c 0.212,0 0.303,0.092 0.303,0.303 l 0,10.667 c 0.018,0.167 0.107,0.245 0.296,0.245 l 5.423,0 0,-10.912 c 0,-0.211 0.091,-0.303 0.303,-0.303 l 2.425,4.203 0,9.134 C 0.304,-0.09 0.212,0 0,0"
             style="fill:#4f4c4d;fill-opacity:1;fill-rule:nonzero;stroke:none"
             id="path5470"
             inkscape:connector-curvature="0" /></g><g
           id="g5472"
           transform="translate(472.6862,710.9711)"><path
             d="m 0,0 c 0,-0.213 -0.364,-1.002 -1.273,-1.85 -0.91,-0.848 -2.183,-1.272 -3.789,-1.272 -3.303,0 -5.456,2.061 -5.456,5.151 l 0,3.942 c 0,3.091 2.153,5.151 5.456,5.151 0.97,0 1.819,-0.181 2.576,-0.514 1.607,-0.728 2.455,-1.911 2.455,-2.547 0,-0.121 -0.06,-0.182 -0.182,-0.242 l -1.939,-0.97 c -0.061,-0.03 -0.121,-0.03 -0.151,-0.03 -0.122,0 -0.152,0.061 -0.243,0.182 -0.727,1 -1.274,1.696 -2.516,1.696 -1.545,0 -2.727,-1.241 -2.727,-2.726 l 0,-3.942 c 0,-1.484 1.182,-2.727 2.727,-2.727 0.727,0 1.334,0.273 1.667,0.667 0.667,0.788 0.94,1.273 1.122,1.273 0.06,0 0.121,-0.031 0.181,-0.061 l 1.91,-0.97 C -0.06,0.151 0,0.09 0,0"
             style="fill:#4f4c4d;fill-opacity:1;fill-rule:nonzero;stroke:none"
             id="path5474"
             inkscape:connector-curvature="0" /></g><g
           id="g5476"
           transform="translate(482.9931,716.9417)"><path
             d="M 0,0 C 0,1.485 -1.213,2.727 -2.729,2.727 -4.243,2.727 -5.456,1.485 -5.456,0 l 0,-3.942 c 0,-1.483 1.182,-2.727 2.727,-2.727 1.516,0 2.729,1.244 2.729,2.727 L 0,0 Z m -2.729,-9.093 c -3.302,0 -5.455,2.062 -5.455,5.151 l 0,3.942 c 0,3.091 2.153,5.152 5.455,5.152 3.305,0 5.456,-2.091 5.456,-5.152 l 0,-3.942 c 0,-3.089 -2.151,-5.151 -5.456,-5.151"
             style="fill:#4f4c4d;fill-opacity:1;fill-rule:nonzero;stroke:none"
             id="path5478"
             inkscape:connector-curvature="0" /></g><g
           id="g5480"
           transform="translate(499.363,708.1516)"><path
             d="m 0,0 -2.121,0 c -0.213,0 -0.303,0.091 -0.303,0.303 l 0,8.184 c 0,1.485 -1.182,2.727 -2.727,2.727 -1.515,0 -2.728,-1.242 -2.728,-2.727 l 0,-8.184 C -7.879,0.091 -7.971,0 -8.183,0 l -2.12,0 c -0.213,0 -0.304,0.091 -0.304,0.303 l 0,13.034 c 0,0.211 0.091,0.302 0.304,0.302 l 1.817,0 c 0.213,0 0.303,-0.091 0.303,-0.302 l 0,-0.365 c 0,-0.212 0.092,-0.333 0.212,-0.333 0.395,0 1.244,1 3.031,1 3.062,0 5.244,-2.091 5.244,-5.152 l 0,-8.184 C 0.304,0.091 0.213,0 0,0"
             style="fill:#4f4c4d;fill-opacity:1;fill-rule:nonzero;stroke:none"
             id="path5482"
             inkscape:connector-curvature="0" /></g><g
           id="g5484"
           transform="translate(505.0599,718.2137)"><path
             d="m 0,0 c 0,-1.242 1.091,-1.545 3.305,-2 3.243,-0.637 4.82,-1.425 4.82,-3.789 0,-2.728 -1.941,-4.576 -5.002,-4.576 l -0.91,0 c -3.001,0 -4.94,1.848 -4.94,3.061 0,0.061 0.06,0.152 0.182,0.213 l 1.757,0.878 c 0.061,0.03 0.122,0.061 0.153,0.061 0.09,0 0.15,-0.092 0.242,-0.181 0.727,-0.941 1.273,-1.699 2.606,-1.699 l 0.91,0 c 1.394,0 2.303,0.789 2.303,1.758 0,1.304 -1.334,1.456 -3.849,1.97 -2.88,0.577 -4.244,1.455 -4.244,3.729 0,2.636 1.971,4.455 4.88,4.455 l 0.91,0 c 3,0 4.94,-1.849 4.94,-3.061 0,-0.091 -0.061,-0.152 -0.182,-0.213 L 6.123,-0.272 c -0.061,-0.03 -0.151,-0.061 -0.182,-0.061 -0.09,0 -0.122,0.091 -0.212,0.182 -0.758,0.97 -1.303,1.697 -2.606,1.697 l -0.91,0 C 0.789,1.546 0,0.97 0,0"
             style="fill:#4f4c4d;fill-opacity:1;fill-rule:nonzero;stroke:none"
             id="path5486"
             inkscape:connector-curvature="0" /></g><g
           id="g5488"
           transform="translate(526.3102,708.1516)"><path
             d="M 0,0 -1.819,0 C -2.03,0 -2.121,0.091 -2.121,0.303 l 0,0.365 C -2.121,0.879 -2.213,1 -2.334,1 -2.728,1 -3.606,0 -5.364,0 c -3.032,0 -5.243,2.092 -5.243,5.153 l 0,8.184 c 0,0.211 0.091,0.302 0.302,0.302 l 2.121,0 c 0.213,0 0.303,-0.091 0.303,-0.302 l 0,-8.184 c 0,-1.485 1.184,-2.728 2.73,-2.728 1.545,0 2.726,1.243 2.726,2.728 l 0,8.184 c 0,0.211 0.091,0.302 0.304,0.302 l 2.121,0 c 0.213,0 0.303,-0.091 0.303,-0.302 l 0,-13.034 C 0.303,0.091 0.213,0 0,0"
             style="fill:#4f4c4d;fill-opacity:1;fill-rule:nonzero;stroke:none"
             id="path5490"
             inkscape:connector-curvature="0" /></g><g
           id="g5492"
           transform="translate(532.9803,708.1516)"><path
             d="m 0,0 -2.122,0 c -0.213,0 -0.303,0.091 -0.303,0.303 l 0,18.489 c 0,0.212 0.09,0.303 0.303,0.303 l 2.122,0 c 0.212,0 0.302,-0.091 0.302,-0.303 l 0,-18.489 C 0.302,0.091 0.212,0 0,0"
             style="fill:#4f4c4d;fill-opacity:1;fill-rule:nonzero;stroke:none"
             id="path5494"
             inkscape:connector-curvature="0" /></g><g
           id="g5496"
           transform="translate(542.4938,721.7901)"><path
             d="m 0,0 -2.122,0 c -0.212,0 -0.302,0.091 -0.302,0.303 l 0,2.122 c 0,0.213 -0.092,0.303 -0.304,0.303 l -0.94,0 -0.211,-0.09 -3.486,-3.698 -0.061,-1.062 c 0,-0.211 0.092,-0.302 0.303,-0.302 l 1.668,0 c 0.211,0 0.302,-0.092 0.302,-0.303 l 0,-6.063 0,-4.546 c 0,-0.211 0.092,-0.303 0.305,-0.303 l 2.121,0 c 0.213,0 0.304,0.092 0.304,0.303 l 0,10.618 c 0.003,0.204 0.093,0.294 0.301,0.294 l 2.122,0 c 0.212,0 0.303,0.091 0.303,0.302 l 0,1.82 C 0.303,-0.09 0.212,0 0,0"
             style="fill:#4f4c4d;fill-opacity:1;fill-rule:nonzero;stroke:none"
             id="path5498"
             inkscape:connector-curvature="0" /></g><g
           id="g5500"
           transform="translate(459.5947,725.4139)"><path
             d="m 0,0 c 0,-0.954 -0.774,-1.726 -1.728,-1.726 -0.952,0 -1.726,0.772 -1.726,1.726 0,0.954 0.774,1.727 1.726,1.727 C -0.774,1.727 0,0.954 0,0"
             style="fill:#f78d20;fill-opacity:1;fill-rule:nonzero;stroke:none"
             id="path5502"
             inkscape:connector-curvature="0" /></g></g></g></g></svg>