<svg xmlns="http://www.w3.org/2000/svg" width="182.423" height="54.846" viewBox="0 0 48.266 14.511"><g style="fill:#000"><path d="M0 0c0-1.538.262-2.552.749-3.227.636-.826 1.61-1.276 2.883-1.276 1.422 0 2.77.413 4.043.976.262.112.524.187.786.187.936 0 1.835-.788 1.835-1.763 0-.713-.3-1.351-.974-1.689-1.797-.863-3.706-1.276-5.69-1.276-2.172 0-4.044.713-5.429 2.102-1.348 1.351-2.059 3.227-2.059 5.441v4.728c0 2.177.711 4.052 2.059 5.403 1.385 1.389 3.257 2.102 5.429 2.102 2.208 0 4.081-.713 5.428-2.102 1.348-1.351 2.097-3.226 2.097-5.403V2.439A2.43 2.43 0 0 0 8.724 0Zm7.301 3.565c0 3.114-1.273 4.578-3.669 4.578C1.273 8.143 0 6.717 0 3.565Z" style="fill:#000;fill-opacity:1;fill-rule:nonzero;stroke:none" transform="matrix(.35278 0 0 -.35278 19.473 11.533)"/></g><g style="fill:#000"><path d="m0 0-3.969-5.854a1.95 1.95 0 0 0-1.572-.826c-1.011 0-1.947.864-1.947 1.952 0 .375.113.75.337 1.088l4.905 6.942-4.792 6.755a1.95 1.95 0 0 0-.337 1.088c0 1.013.861 1.951 1.947 1.951.598 0 1.197-.3 1.572-.826L0 6.604l3.856 5.666c.375.563 1.011.826 1.61.826 1.048 0 1.91-.863 1.91-1.951 0-.375-.113-.751-.337-1.088L2.247 3.302 7.151-3.64c.262-.338.374-.713.374-1.088 0-1.051-.898-1.952-1.984-1.952-.599 0-1.198.263-1.572.826z" style="fill:#000;fill-opacity:1;fill-rule:nonzero;stroke:none" transform="matrix(.35278 0 0 -.35278 26.853 12.022)"/></g><g style="fill:#000"><path d="M0 0c0-1.05-.674-1.951-1.648-2.289-1.834-.638-3.968-.976-6.065-.976-2.284 0-4.081.563-5.354 1.652s-1.946 2.627-1.946 4.465.673 3.265 1.946 4.315c1.273 1.088 3.07 1.651 5.354 1.651h3.857v1.314c0 1.576-1.161 2.814-3.108 2.814-1.76 0-2.733-.225-4.043-1.013-.3-.188-.712-.338-1.049-.338-1.011 0-1.834.751-1.834 1.689 0 .675.299 1.351.936 1.726 2.021 1.163 3.781 1.501 6.477 1.501 4.193 0 6.477-3.04 6.477-6.379zm-3.856 5.254h-3.857c-3.257 0-3.444-1.764-3.444-2.402 0-.675.187-2.552 3.444-2.552 1.273 0 2.658.188 3.857.488z" style="fill:#000;fill-opacity:1;fill-rule:nonzero;stroke:none" transform="matrix(.35278 0 0 -.35278 35.487 13.227)"/></g><g style="fill:#000"><path d="M0 0c0 2.289-1.348 3.64-3.669 3.64-1.236 0-2.471-.188-3.632-.488v-13.771c0-1.089-.861-1.952-1.909-1.952a1.936 1.936 0 0 0-1.947 1.952V3.94c0 1.051.636 1.951 1.647 2.289 1.835.638 3.819.976 5.841.976 2.209 0 4.081-.713 5.429-2.102C3.107 3.753 3.856 1.876 3.856-.3v-10.319a1.936 1.936 0 0 0-1.947-1.952C.823-12.571 0-11.708 0-10.619z" style="fill:#000;fill-opacity:1;fill-rule:nonzero;stroke:none" transform="matrix(.35278 0 0 -.35278 40.939 9.944)"/></g><g style="fill:#000"><path d="M0 0c-2.022.751-3.594 2.326-3.594 5.141 0 3.302 2.733 5.666 6.477 5.666 2.546 0 3.856-.375 5.091-.938.749-.3 1.236-.976 1.236-1.764a1.8 1.8 0 0 0-1.797-1.801c-.262 0-.636.075-.899.188-.936.45-2.471.75-3.706.75-1.535 0-2.546-.75-2.546-2.026 0-.976.749-1.576 1.535-1.839l3.669-1.201c2.471-.825 3.969-2.514 3.969-5.253 0-3.302-2.658-5.892-6.665-5.892-2.209 0-4.005.413-5.391 1.051-.711.338-1.161.976-1.161 1.726 0 .976.824 1.877 1.873 1.877.262 0 .599-.113.861-.225 1.011-.526 2.246-.864 3.894-.864 1.796 0 2.732.676 2.732 1.952 0 1.388-1.123 1.838-2.508 2.326z" style="fill:#000;fill-opacity:1;fill-rule:nonzero;stroke:none" transform="matrix(.35278 0 0 -.35278 44.805 11.215)"/></g><path d="M0 0s-2.153.826-5.069.826c-5.284 0-8.064-2.891-9.413-4.75-1.276-1.759-2.08-3.591-2.687-6.126-.58-2.422-.673-5.452-.773-7.866-.252-6.068.315-16.747-2.296-16.747-1.342 0-2.258 2.068-2.567 2.86-.126.322-1.147 3.293-2.409 8.91-.786 3.499-2.652 11.929-3.195 13.823-.25.873-.882 3.189-2.112 5.198-1.611 2.632-4.36 3.96-6.745 3.96-2.317 0-4.457-1.6-5.243-2.376-2.393-2.363-3.174-5.813-3.426-7.183-.272-1.479-.606-4.57-.606-4.57-.48-3.685-1.283-10.069-1.465-11.407-.936-6.887-2.891-7.998-4.775-8.612-.443-.144-1.291-.211-1.583-.211a7 7 0 0 0-2.198.357c-.133.052-.381.151-.67.151q-.253 0-.476-.098c-.397-.173-.577-.412-.639-.523-.767-1.182-.827-2.451-.827-2.811 0-.869.53-1.161.69-1.229.046-.02 1.134-.485 2.738-.734 4.816-.748 7.831 2.094 8.646 2.89.768.75 2.093 2.295 2.966 5.314.557 1.926.881 3.815 1.127 5.914.185 1.583 1.398 12.066 1.646 13.534.261 1.544.657 3.148 1.418 4.615.537 1.036 1.46 2.146 2.82 2.146.524 0 1.005-.16 1.428-.475 1.305-.968 2.083-3.257 2.343-4.246.348-1.328 2.838-11.826 3.232-13.654 2.652-12.306 4.44-14.441 6.912-15.674 1.415-.705 4.196-1.491 6.717.502 2.83 2.236 2.904 6.6 3.097 9.25.197 2.73.204 4.914.218 5.894.135 9.747.214 12.749 2.81 16.508 1.397 2.023 4.263 3.453 9.014 1.977.116-.036.372-.098.583-.098.923 0 1.305.937 1.543 1.869C.936-2.262 1.383-.448 0 0" style="fill:#ee2426;fill-opacity:1;fill-rule:nonzero;stroke:none" transform="matrix(.35278 0 0 -.35278 21.008 .424)"/></svg>