<svg xmlns="http://www.w3.org/2000/svg" class="the-header__logo-media" data-name="Layer 1" viewBox="0 0 98 42"><path d="M0 16h98v2H0z" class="cls-1" style="fill:#3f9c35"/><path d="M0 20h98v4H0z" class="cls-2" style="fill:#003591"/><path d="M0 0h98v12H0z" class="cls-3" style="fill:#99d9f0"/><path d="M59.14 30.02a8.4 8.4 0 0 0-3.452-.648h-6.836V42h6.836a8.4 8.4 0 0 0 3.452-.648 4.8 4.8 0 0 0 2.223-1.953 6.33 6.33 0 0 0 .774-3.275v-.876a6.33 6.33 0 0 0-.774-3.275 4.8 4.8 0 0 0-2.223-1.953m.926 6.036a3.92 3.92 0 0 1-1.094 3.048 4.72 4.72 0 0 1-3.267.993h-4.748v-8.822h4.748a4.8 4.8 0 0 1 3.267.968 3.9 3.9 0 0 1 1.094 3.073Zm17.881 3.184-9.766-9.868h-2.054V42h2.054v-9.856L77.947 42h2.071V29.372h-2.071zm17.814-9.868-4.833 9.868-4.832-9.868h-2.374L90.053 42h1.633L98 29.372z" class="cls-4" style="fill:#0f214a"/></svg>