<svg xmlns="http://www.w3.org/2000/svg" xml:space="preserve" width="508" height="79.988" viewBox="0 0 508 79.988"><path d="M0 0h-2.122c-.212 0-.303.091-.303.303l.333 13.457-4.334-10.85a.4.4 0 0 0-.273-.182h-1.03a.4.4 0 0 0-.273.182l-4.273 10.88.272-13.487c0-.212-.091-.303-.303-.303h-2.121c-.213 0-.303.091-.303.303v18.489c0 .212.09.303.303.303h2.091c.121 0 .242-.061.273-.183L-7.274 6.88h.09l4.759 12.063.273.183L0 19.095c.211 0 .303-.091.303-.303V.303C.303.091.211 0 0 0" style="fill:#4f4c4d;fill-opacity:1;fill-rule:nonzero;stroke:none" transform="matrix(3.70538 0 0 -3.70538 58.578 74.868)"/><path d="M0 0h-1.819c-.212 0-.303.091-.303.303v.365c0 .211-.09.332-.212.332-.393 0-1.273-1-3.031-1-3.03 0-5.244 2.092-5.244 5.153v8.184c0 .211.092.302.303.302h2.123c.211 0 .303-.091.303-.302V5.153a2.716 2.716 0 0 1 2.727-2.728 2.717 2.717 0 0 1 2.728 2.728v8.184c0 .211.091.302.303.302H0c.213 0 .303-.091.303-.302V.303C.303.091.213 0 0 0" style="fill:#4f4c4d;fill-opacity:1;fill-rule:nonzero;stroke:none" transform="matrix(3.70538 0 0 -3.70538 111.258 74.868)"/><path d="M0 0h-2.122c-.212 0-.303.091-.303.303v18.489c0 .212.091.303.303.303H0c.212 0 .303-.091.303-.303V.303C.303.091.212 0 0 0" style="fill:#4f4c4d;fill-opacity:1;fill-rule:nonzero;stroke:none" transform="matrix(3.70538 0 0 -3.70538 135.973 74.868)"/><path d="M0 0h-7.847c-.212 0-.303.091-.303.303v2.122c0 .213-.091.303-.303.303h-.94l-.212-.09-3.485-3.698-.061-1.062c0-.211.09-.302.303-.302h1.667c.212 0 .303-.092.303-.303V-8.79h.007v-4.546c0-.211.091-.303.304-.303h2.121c.212 0 .303.092.303.303v10.667c.018.167.107.245.296.245h5.423v-10.912c0-.211.091-.303.303-.303L.304-9.436v9.134C.304-.09.212 0 0 0" style="fill:#4f4c4d;fill-opacity:1;fill-rule:nonzero;stroke:none" transform="matrix(3.70538 0 0 -3.70538 192.439 24.334)"/><path d="M0 0c0-.213-.364-1.002-1.273-1.85-.91-.848-2.183-1.272-3.789-1.272-3.303 0-5.456 2.061-5.456 5.151v3.942c0 3.091 2.153 5.151 5.456 5.151.97 0 1.819-.181 2.576-.514C-.879 9.88-.031 8.697-.031 8.061c0-.121-.06-.182-.182-.242l-1.939-.97c-.061-.03-.121-.03-.151-.03-.122 0-.152.061-.243.182-.727 1-1.274 1.696-2.516 1.696a2.715 2.715 0 0 1-2.727-2.726V2.029A2.716 2.716 0 0 1-5.062-.698c.727 0 1.334.273 1.667.667.667.788.94 1.273 1.122 1.273.06 0 .121-.031.181-.061l1.91-.97C-.06.151 0 .09 0 0" style="fill:#4f4c4d;fill-opacity:1;fill-rule:nonzero;stroke:none" transform="matrix(3.70538 0 0 -3.70538 244.214 64.422)"/><path d="M0 0a2.736 2.736 0 0 1-2.729 2.727A2.735 2.735 0 0 1-5.456 0v-3.942a2.717 2.717 0 0 1 2.727-2.727A2.737 2.737 0 0 1 0-3.942zm-2.729-9.093c-3.302 0-5.455 2.062-5.455 5.151V0c0 3.091 2.153 5.152 5.455 5.152C.576 5.152 2.727 3.061 2.727 0v-3.942c0-3.089-2.151-5.151-5.456-5.151" style="fill:#4f4c4d;fill-opacity:1;fill-rule:nonzero;stroke:none" transform="matrix(3.70538 0 0 -3.70538 282.406 42.297)"/><path d="M0 0h-2.121c-.213 0-.303.091-.303.303v8.184a2.716 2.716 0 0 1-2.727 2.727 2.736 2.736 0 0 1-2.728-2.727V.303c0-.212-.092-.303-.304-.303h-2.12c-.213 0-.304.091-.304.303v13.034c0 .211.091.302.304.302h1.817c.213 0 .303-.091.303-.302v-.365c0-.212.092-.333.212-.333.395 0 1.244 1 3.031 1 3.062 0 5.244-2.091 5.244-5.152V.303C.304.091.213 0 0 0" style="fill:#4f4c4d;fill-opacity:1;fill-rule:nonzero;stroke:none" transform="matrix(3.70538 0 0 -3.70538 343.063 74.868)"/><path d="M0 0c0-1.242 1.091-1.545 3.305-2 3.243-.637 4.82-1.425 4.82-3.789 0-2.728-1.941-4.576-5.002-4.576h-.91c-3.001 0-4.94 1.848-4.94 3.061 0 .061.06.152.182.213l1.757.878c.061.03.122.061.153.061.09 0 .15-.092.242-.181C.334-7.274.88-8.032 2.213-8.032h.91c1.394 0 2.303.789 2.303 1.758 0 1.304-1.334 1.456-3.849 1.97-2.88.577-4.244 1.455-4.244 3.729 0 2.636 1.971 4.455 4.88 4.455h.91c3 0 4.94-1.849 4.94-3.061 0-.091-.061-.152-.182-.213L6.123-.272a.6.6 0 0 0-.182-.061c-.09 0-.122.091-.212.182-.758.97-1.303 1.697-2.606 1.697h-.91C.789 1.546 0 .97 0 0" style="fill:#4f4c4d;fill-opacity:1;fill-rule:nonzero;stroke:none" transform="matrix(3.70538 0 0 -3.70538 364.172 37.584)"/><path d="M0 0h-1.819c-.211 0-.302.091-.302.303v.365c0 .211-.092.332-.213.332-.394 0-1.272-1-3.03-1-3.032 0-5.243 2.092-5.243 5.153v8.184c0 .211.091.302.302.302h2.121c.213 0 .303-.091.303-.302V5.153a2.72 2.72 0 0 1 2.73-2.728 2.716 2.716 0 0 1 2.726 2.728v8.184c0 .211.091.302.304.302H0c.213 0 .303-.091.303-.302V.303C.303.091.213 0 0 0" style="fill:#4f4c4d;fill-opacity:1;fill-rule:nonzero;stroke:none" transform="matrix(3.70538 0 0 -3.70538 442.912 74.868)"/><path d="M0 0h-2.122c-.213 0-.303.091-.303.303v18.489c0 .212.09.303.303.303H0c.212 0 .302-.091.302-.303V.303C.302.091.212 0 0 0" style="fill:#4f4c4d;fill-opacity:1;fill-rule:nonzero;stroke:none" transform="matrix(3.70538 0 0 -3.70538 467.626 74.868)"/><path d="M0 0h-2.122c-.212 0-.302.091-.302.303v2.122c0 .213-.092.303-.304.303h-.94l-.211-.09-3.486-3.698-.061-1.062c0-.211.092-.302.303-.302h1.668c.211 0 .302-.092.302-.303v-10.609c0-.211.092-.303.305-.303h2.121c.213 0 .304.092.304.303v10.618c.003.204.093.294.301.294H0c.212 0 .303.091.303.302v1.82C.303-.09.212 0 0 0" style="fill:#4f4c4d;fill-opacity:1;fill-rule:nonzero;stroke:none" transform="matrix(3.70538 0 0 -3.70538 502.88 24.334)"/><path d="M0 0a1.727 1.727 0 1 0-3.453.001A1.727 1.727 0 0 0 0 0" style="fill:#f78d20;fill-opacity:1;fill-rule:nonzero;stroke:none" transform="matrix(3.70538 0 0 -3.70538 195.707 10.905)"/></svg>